<?xml version="1.0" standalone="no"?>
<!DOCTYPE svg PUBLIC "-//W3C//DTD SVG 1.1//EN" "http://www.w3.org/Graphics/SVG/1.1/DTD/svg11.dtd" >
<svg xmlns="http://www.w3.org/2000/svg" xmlns:xlink="http://www.w3.org/1999/xlink" version="1.1">
<metadata>
Created by FontForge 20190801 at Fri Jan 18 16:29:50 2019
 By www-data
Copyright (c) 2019 by Svet Simov. All rights reserved.
</metadata>
<defs>
<font id="NoahGrotesqueMedium" horiz-adv-x="0" >
  <font-face 
    font-family="NoahGrotesqueMedium"
    font-weight="500"
    font-stretch="normal"
    units-per-em="1000"
    panose-1="0 0 6 0 0 0 0 0 0 0"
    ascent="800"
    descent="-200"
    x-height="409"
    cap-height="680"
    bbox="-355 -294 1147 953"
    underline-thickness="50"
    underline-position="-100"
    unicode-range="U+0020-FB02"
  />
<missing-glyph horiz-adv-x="467" 
d="M383 713v-933h-296v933h296zM311 650h-154v-30h60v-35h-61v-31h155v31h-62v35h62v30zM249 530h-93v-97h155v32h-62v65zM217 498v-33h-30v33h30zM311 408h-155v-31h61v-34h-61v-31h93v65h62v31zM311 352h-31v-62h-124v-31h155v93zM311 238h-94v-52h32v21h31v-44h-93v75
h-31v-105h155v105zM311 77h-155v-106h155v106zM280 46v-44h-93v44h93zM311 -50h-155v-31h65l-65 -44v-31h155v31h-95l65 44h30v31z" />
    <glyph glyph-name="fi" unicode="fi" horiz-adv-x="546" 
d="M477 409v-409h-82v339h-214v-339h-82v339h-87v70h87v137q0 86 44 132.5t131 46.5q102 0 186 -65l-35 -59q-67 49 -139 49q-105 0 -105 -106v-135h296z" />
    <glyph glyph-name="fl" unicode="fl" horiz-adv-x="539" 
d="M403 713h67v-713h-83v611q-53 39 -112 39q-44 0 -69 -24.5t-25 -69.5v-147h124v-70h-124v-339h-82v339h-87v70h87v150q0 74 42.5 120t121.5 46q73 0 133 -44z" />
    <glyph glyph-name="f_f" unicode="ff" horiz-adv-x="633" 
d="M571 650q-33 0 -52.5 -22t-19.5 -62v-157h123v-70h-123v-339h-83v339h-235v-339h-82v339h-87v70h87v160q0 70 37 113t108 43q57 0 101 -20l-23 -67q-28 12 -66 12q-34 0 -54.5 -22t-20.5 -62v-157h235v160q0 70 37 113t106 43q62 0 112 -36l-32 -60q-34 21 -68 21z" />
    <glyph glyph-name="f_f_i" unicode="ffi" horiz-adv-x="866" 
d="M797 409v-409h-82v339h-216v-339h-83v339h-235v-339h-82v339h-87v70h87v160q0 70 37 113t108 43q53 0 101 -20l-23 -67q-28 12 -64 12q-35 0 -56 -22t-21 -62v-157h235v137q0 86 44.5 132.5t131.5 46.5q93 0 173 -66l-37 -56q-35 25 -61.5 36t-62.5 11q-105 0 -105 -106
v-135h298z" />
    <glyph glyph-name="f_f_l" unicode="ffl" horiz-adv-x="866" 
d="M730 713h67v-713h-82v609q-57 41 -122 41q-45 0 -69.5 -25t-24.5 -75v-141h119v-70h-119v-339h-83v339h-235v-339h-82v339h-87v70h87v160q0 70 37 113t108 43q57 0 101 -20l-23 -67q-27 12 -66 12q-34 0 -54.5 -22t-20.5 -62v-157h235v148q0 76 42.5 122t122.5 46
q83 0 142 -46z" />
    <glyph glyph-name=".notdef" horiz-adv-x="467" 
d="M383 713v-933h-296v933h296zM311 650h-154v-30h60v-35h-61v-31h155v31h-62v35h62v30zM249 530h-93v-97h155v32h-62v65zM217 498v-33h-30v33h30zM311 408h-155v-31h61v-34h-61v-31h93v65h62v31zM311 352h-31v-62h-124v-31h155v93zM311 238h-94v-52h32v21h31v-44h-93v75
h-31v-105h155v105zM311 77h-155v-106h155v106zM280 46v-44h-93v44h93zM311 -50h-155v-31h65l-65 -44v-31h155v31h-95l65 44h30v31z" />
    <glyph glyph-name=".null" 
 />
    <glyph glyph-name="nonmarkingreturn" horiz-adv-x="333" 
 />
    <glyph glyph-name="space" unicode=" " horiz-adv-x="224" 
 />
    <glyph glyph-name="exclam" unicode="!" horiz-adv-x="264" 
d="M92 172l-8 508h97l-9 -508h-80zM132 -11q-24 0 -41.5 15t-17.5 43t17.5 43t41.5 15q25 0 42 -15t17 -43t-17 -43t-42 -15z" />
    <glyph glyph-name="quotedbl" unicode="&#x22;" horiz-adv-x="333" 
d="M46 471v209h86l-18 -209h-68zM201 471v209h86l-18 -209h-68z" />
    <glyph glyph-name="numbersign" unicode="#" horiz-adv-x="526" 
d="M89 0l29 192h-90v69h99l20 136h-92v69h103l32 214h73l-33 -214h115l33 214h72l-32 -214h80v-69h-90l-21 -136h83v-69h-93l-28 -192h-73l28 192h-115l-28 -192h-72zM200 261h115l20 136h-115z" />
    <glyph glyph-name="dollar" unicode="$" horiz-adv-x="535" 
d="M236 -97v89q-113 12 -200 82l48 65q85 -69 196 -69q56 0 93 27t37 69q0 22 -9.5 41t-21 31t-36.5 26t-40 20.5t-48 19.5q-45 19 -73.5 33.5t-59.5 38t-46.5 54t-15.5 68.5q0 73 48.5 118.5t127.5 54.5v88h78v-89q83 -9 158 -61l-40 -71q-73 55 -162 55q-49 0 -84.5 -22
t-35.5 -68q0 -22 11 -40t35.5 -33.5t45 -25t57.5 -24.5q46 -18 76 -33.5t61.5 -40t47.5 -58t16 -76.5q0 -73 -51 -123t-135 -58v-88h-78z" />
    <glyph glyph-name="percent" unicode="%" horiz-adv-x="758" 
d="M186 391q-72 0 -111 45t-39 105q0 59 39 104.5t111 45.5q71 0 110 -45t39 -105t-39 -105t-110 -45zM149 0l392 680h74l-391 -680h-75zM186 451q42 0 61.5 28t19.5 62t-19.5 61.5t-61.5 27.5t-62 -27.5t-20 -61.5t20 -62t62 -28zM573 -11q-72 0 -111 45.5t-39 104.5
q0 60 39 105t111 45q71 0 110 -45t39 -105q0 -59 -39 -104.5t-110 -45.5zM573 50q42 0 61.5 27.5t19.5 61.5t-19.5 62t-61.5 28t-62 -28t-20 -62t20 -61.5t62 -27.5z" />
    <glyph glyph-name="ampersand" unicode="&#x26;" horiz-adv-x="637" 
d="M252 -11q-95 0 -150.5 49.5t-55.5 119.5q0 128 143 210q-76 86 -76 157q0 68 51.5 117t133.5 49q72 0 118 -43t46 -106q0 -60 -41 -105.5t-114 -85.5l149 -153q45 82 48 167h79q-2 -123 -71 -228l121 -133l-90 -9l-79 86q-90 -92 -212 -92zM257 408q59 32 90 61t31 69
q0 31 -23 53t-61 22q-44 0 -70 -25.5t-26 -61.5q0 -48 59 -118zM254 68q86 0 155 71l-168 172q-53 -27 -79.5 -66.5t-26.5 -79.5t32 -68.5t87 -28.5z" />
    <glyph glyph-name="quotesingle" unicode="'" horiz-adv-x="177" 
d="M46 471v209h86l-18 -209h-68z" />
    <glyph glyph-name="parenleft" unicode="(" horiz-adv-x="309" 
d="M226 -192q-71 84 -113 211t-42 267t42 267t113 211l52 -47q-60 -74 -94.5 -188.5t-34.5 -242.5t34.5 -242.5t94.5 -188.5z" />
    <glyph glyph-name="parenright" unicode=")" horiz-adv-x="309" 
d="M82 764q72 -84 114 -211t42 -267t-42 -267t-114 -211l-51 47q60 74 94.5 188.5t34.5 242.5t-34.5 242.5t-94.5 188.5z" />
    <glyph glyph-name="asterisk" unicode="*" horiz-adv-x="353" 
d="M101 381l-46 35l84 100l-119 32l19 55l113 -43l-5 120h59l-5 -120l114 43l18 -55l-119 -32l84 -100l-46 -35l-75 108z" />
    <glyph glyph-name="plus" unicode="+" horiz-adv-x="521" 
d="M223 145v159h-158v72h158v159h75v-159h157v-72h-157v-159h-75z" />
    <glyph glyph-name="comma" unicode="," horiz-adv-x="259" 
d="M129 105q26 0 43 -18t17 -55q0 -95 -87 -166l-24 24q52 51 60 100q-3 -1 -9 -1q-25 0 -42 16t-17 42q0 28 17.5 43t41.5 15z" />
    <glyph glyph-name="hyphen" unicode="-" horiz-adv-x="380" 
d="M57 180v72h265v-72h-265z" />
    <glyph glyph-name="period" unicode="." horiz-adv-x="258" 
d="M129 -11q-24 0 -41.5 15t-17.5 43t17.5 43t41.5 15t41.5 -15t17.5 -43t-17.5 -43t-41.5 -15z" />
    <glyph glyph-name="slash" unicode="/" horiz-adv-x="390" 
d="M100 -11h-72l263 702h71z" />
    <glyph glyph-name="zero" unicode="0" horiz-adv-x="577" 
d="M289 -11q-111 0 -174.5 92t-63.5 250q0 157 63.5 249t174.5 92t174.5 -92t63.5 -249q0 -158 -63.5 -250t-174.5 -92zM289 71q70 0 108.5 70t38.5 190t-38.5 190t-108.5 70t-109 -70t-39 -190t39 -190t109 -70z" />
    <glyph glyph-name="one" unicode="1" horiz-adv-x="348" 
d="M223 670h36v-670h-89v501q0 26 2 40q-5 -4 -24 -15l-92 -56l-39 67z" />
    <glyph glyph-name="two" unicode="2" horiz-adv-x="466" 
d="M238 80h196v-80h-405v28l240 326q62 83 62 134q0 45 -27 73.5t-73 28.5q-71 0 -127 -77l-62 48q80 111 194 111q83 0 134 -50.5t51 -126.5q0 -45 -18.5 -86t-69.5 -110l-122 -166q-16 -23 -43 -54q24 1 70 1z" />
    <glyph glyph-name="three" unicode="3" horiz-adv-x="524" 
d="M237 -11q-62 0 -117 27.5t-92 74.5l58 52q65 -72 149 -72q69 0 110 34t41 87q0 43 -24.5 70.5t-56.5 36.5t-71 9h-83v78h72q65 0 98.5 32t33.5 75t-31.5 71t-83.5 28q-72 0 -140 -64l-53 51q83 93 200 93q88 0 142.5 -48.5t54.5 -121.5q0 -45 -25 -86t-71 -63
q64 -20 96 -66t32 -102q0 -86 -66 -141t-173 -55z" />
    <glyph glyph-name="four" unicode="4" horiz-adv-x="519" 
d="M421 212h77v-77h-77v-135h-84v135h-322v34l371 501h35v-458zM340 212v198q0 50 3 82q-21 -30 -46 -63l-120 -165q-26 -36 -41 -53q25 1 75 1h129z" />
    <glyph glyph-name="five" unicode="5" horiz-adv-x="478" 
d="M218 412q101 0 164 -55t63 -151q0 -97 -65.5 -157.5t-165.5 -60.5q-122 0 -195 89l53 58q48 -64 142 -64q62 0 101.5 37t39.5 99q0 70 -46 101.5t-116 31.5q-60 0 -112 -19l-15 12l42 328h315v-80h-243l-23 -174q35 5 61 5z" />
    <glyph glyph-name="six" unicode="6" horiz-adv-x="523" 
d="M283 410q85 0 143.5 -54t58.5 -151q0 -95 -59 -155.5t-154 -60.5q-108 0 -165 71.5t-57 183.5v12q0 181 86 290t270 126l10 -77q-121 -10 -190 -72.5t-84 -166.5q50 54 141 54zM270 71q55 0 91 36.5t36 96.5q0 63 -36.5 96.5t-90.5 33.5q-59 0 -95 -35t-36 -98
q0 -58 36.5 -94t94.5 -36z" />
    <glyph glyph-name="seven" unicode="7" horiz-adv-x="443" 
d="M20 661h406v-27l-245 -634h-92l199 517l27 66q-56 -2 -76 -2h-219v80z" />
    <glyph glyph-name="eight" unicode="8" horiz-adv-x="550" 
d="M275 -10q-103 0 -165 52.5t-62 142.5q0 60 32.5 105t91.5 62q-105 37 -105 145q0 78 58 126.5t152 48.5q93 0 149 -48.5t56 -126.5q0 -52 -28.5 -89.5t-71.5 -55.5q51 -16 85.5 -63t34.5 -106q0 -90 -61.5 -141.5t-165.5 -51.5zM277 390q54 0 86 29t32 75
q0 44 -32.5 71.5t-85.5 27.5q-54 0 -88 -27.5t-34 -71.5q0 -47 33 -75.5t89 -28.5zM275 71q60 0 98.5 31t38.5 86q0 56 -37 90t-102 34q-61 0 -98 -34.5t-37 -89.5q0 -53 39 -85t98 -32z" />
    <glyph glyph-name="nine" unicode="9" horiz-adv-x="526" 
d="M254 672q110 0 166 -73.5t56 -188.5q0 -386 -356 -421l-11 77q121 10 190.5 72.5t84.5 167.5q-50 -55 -142 -55q-85 0 -143 54t-58 152q0 94 59 154.5t154 60.5zM256 327q59 0 95 35t36 97q0 58 -37 94.5t-94 36.5q-55 0 -91 -36.5t-36 -96.5q0 -63 36.5 -96.5
t90.5 -33.5z" />
    <glyph glyph-name="colon" unicode=":" horiz-adv-x="256" 
d="M128 296q-24 0 -41 15t-17 42t17 42t41 15t41 -15t17 -42t-17 -42t-41 -15zM128 -11q-24 0 -41 15t-17 42q0 28 17 42.5t41 14.5t41 -14.5t17 -42.5q0 -27 -17 -42t-41 -15z" />
    <glyph glyph-name="semicolon" unicode=";" horiz-adv-x="259" 
d="M128 297q-24 0 -41 14.5t-17 42.5t17 42.5t41 14.5t41 -14.5t17 -42.5t-17 -42.5t-41 -14.5zM129 104q26 0 43 -17.5t17 -54.5q0 -95 -87 -166l-24 24q52 51 60 100q-3 -1 -9 -1q-25 0 -42 16t-17 42q0 27 17.5 42t41.5 15z" />
    <glyph glyph-name="less" unicode="&#x3c;" horiz-adv-x="423" 
d="M368 167l-329 147v72l329 148v-83l-241 -101l241 -101v-82z" />
    <glyph glyph-name="equal" unicode="=" horiz-adv-x="496" 
d="M65 398v72h366v-72h-366zM65 210v72h366v-72h-366z" />
    <glyph glyph-name="greater" unicode="&#x3e;" horiz-adv-x="423" 
d="M55 167v82l241 101l-241 101v83l329 -148v-72z" />
    <glyph glyph-name="question" unicode="?" horiz-adv-x="479" 
d="M164 172q-2 16 -2 44q0 48 14.5 87.5t29.5 58.5t45 50q26 26 38.5 40t24 36.5t11.5 44.5q0 31 -25 54.5t-71 23.5q-75 0 -127 -58l-52 58q77 80 186 80q82 0 131 -45.5t49 -104.5q0 -34 -16 -67.5t-33.5 -53.5t-55.5 -60q-22 -23 -34 -39t-22.5 -46t-10.5 -66
q0 -24 2 -37h-82zM207 -11q-25 0 -42 15t-17 43t17 43t42 15q24 0 41 -15t17 -43t-17 -43t-41 -15z" />
    <glyph glyph-name="at" unicode="@" horiz-adv-x="829" 
d="M380 -144q-144 0 -237.5 95t-93.5 246q0 186 116 311t295 125q133 0 226.5 -82t93.5 -233q0 -107 -45.5 -180t-128.5 -73q-66 0 -84 60q-17 -30 -54.5 -49.5t-82.5 -19.5q-64 0 -101 42.5t-37 106.5q0 96 58 161.5t156 65.5q67 0 129 -38l-19 -209q-3 -31 8 -47.5
t32 -16.5q53 0 80 57t27 135q0 129 -74 194.5t-186 65.5q-148 0 -247 -107.5t-99 -264.5q0 -128 76 -206.5t194 -78.5q78 0 149 31l24 -54q-87 -37 -175 -37zM393 110q47 0 80.5 35t40.5 98l12 117q-31 15 -71 15q-62 0 -102.5 -48.5t-40.5 -117.5q0 -43 21.5 -71t59.5 -28z
" />
    <glyph glyph-name="A" unicode="A" horiz-adv-x="681" 
d="M355 685l319 -683v-2h-95l-64 139h-349l-63 -139h-95v2l319 683h28zM341 532q-27 -69 -45 -109l-96 -207h281l-95 207q-19 42 -45 109z" />
    <glyph glyph-name="B" unicode="B" horiz-adv-x="630" 
d="M474 359q50 -23 79.5 -68t29.5 -101q0 -85 -59.5 -137.5t-152.5 -52.5h-282v680h264q86 0 143 -49.5t57 -127.5q0 -93 -79 -144zM179 601v-209h166q56 0 87 28t31 79q0 48 -33.5 75t-87.5 27h-163zM362 79q58 0 94 31.5t36 86.5q0 53 -34.5 84.5t-91.5 31.5h-187v-234
h183z" />
    <glyph glyph-name="C" unicode="C" horiz-adv-x="689" 
d="M396 -13q-153 0 -250 102.5t-97 251.5q0 153 98 252.5t250 99.5q77 0 137.5 -26t117.5 -81l-50 -58q-82 82 -204 82q-113 0 -185 -76.5t-72 -192.5q0 -115 71.5 -193t184.5 -78q131 0 208 106l62 -54q-45 -63 -114.5 -99t-156.5 -36z" />
    <glyph glyph-name="D" unicode="D" horiz-adv-x="716" 
d="M89 0v680h231q154 0 250.5 -96t96.5 -245t-95.5 -244t-250.5 -95h-232zM179 81h140q116 0 186.5 73t70.5 185q0 113 -71 187t-187 74h-139v-519z" />
    <glyph glyph-name="E" unicode="E" horiz-adv-x="556" 
d="M179 81h336v-81h-426v680h417v-81h-327v-212h288v-79h-288v-227z" />
    <glyph glyph-name="F" unicode="F" horiz-adv-x="539" 
d="M89 0v680h417v-83h-327v-229h294v-82h-294v-286h-90z" />
    <glyph glyph-name="G" unicode="G" horiz-adv-x="730" 
d="M395 371h282v-254q-102 -130 -277 -130q-153 0 -252 100.5t-99 253.5q0 150 96 251t253 101q155 0 260 -113l-55 -59q-82 90 -204 90q-117 0 -187.5 -76.5t-70.5 -193.5q0 -120 73.5 -196t192.5 -76q117 0 187 78v145h-199v79z" />
    <glyph glyph-name="H" unicode="H" horiz-adv-x="735" 
d="M89 0v680h90v-296h376v296h90v-680h-90v301h-376v-301h-90z" />
    <glyph glyph-name="I" unicode="I" horiz-adv-x="269" 
d="M89 0v680h90v-680h-90z" />
    <glyph glyph-name="J" unicode="J" horiz-adv-x="498" 
d="M198 -13q-104 0 -188 62l43 71q65 -51 142 -51q64 0 97.5 37.5t33.5 110.5v463h90v-464q0 -112 -56 -170.5t-162 -58.5z" />
    <glyph glyph-name="K" unicode="K" horiz-adv-x="589" 
d="M267 342l316 -339v-3h-110l-294 314v-314h-90v680h90v-315l279 315h107v-3z" />
    <glyph glyph-name="L" unicode="L" horiz-adv-x="519" 
d="M89 0v680h90v-597h315v-83h-405z" />
    <glyph glyph-name="M" unicode="M" horiz-adv-x="856" 
d="M708 686l98 -686h-89l-59 417q-7 36 -8 69q-10 -16 -40 -63l-173 -271h-19l-172 271q-29 45 -40 64q-1 -12 -9 -71l-58 -416h-89l98 686h27l209 -329q41 -67 44 -73q17 32 44 73l209 329h27z" />
    <glyph glyph-name="N" unicode="N" horiz-adv-x="751" 
d="M572 680h90v-685h-38l-394 450q-38 40 -54 60q3 -36 3 -71v-434h-90v685h37l390 -444q5 -6 25.5 -29.5t32.5 -37.5q-2 60 -2 83v423z" />
    <glyph glyph-name="O" unicode="O" horiz-adv-x="795" 
d="M398 -13q-152 0 -250.5 102.5t-98.5 251.5q0 153 98 252.5t251 99.5q154 0 251 -99t97 -253q0 -149 -98 -251.5t-250 -102.5zM398 70q114 0 185.5 78.5t71.5 192.5q0 118 -71 193.5t-186 75.5t-186.5 -75.5t-71.5 -193.5q0 -114 72 -192.5t186 -78.5z" />
    <glyph glyph-name="P" unicode="P" horiz-adv-x="592" 
d="M89 0v680h255q102 0 161.5 -64.5t59.5 -147.5q0 -84 -58.5 -145t-165.5 -61h-162v-262h-90zM179 342h156q68 0 104 38t36 89q0 54 -37.5 92t-98.5 38h-160v-257z" />
    <glyph glyph-name="Q" unicode="Q" horiz-adv-x="795" 
d="M746 341q0 -84 -34 -157t-94 -122l128 -94l-51 -66l-154 114q-66 -29 -143 -29q-152 0 -250.5 102.5t-98.5 251.5q0 153 98 252.5t251 99.5q154 0 251 -99t97 -253zM140 341q0 -114 72 -192.5t186 -78.5t185.5 78.5t71.5 192.5q0 118 -71 193.5t-186 75.5t-186.5 -75.5
t-71.5 -193.5z" />
    <glyph glyph-name="R" unicode="R" horiz-adv-x="621" 
d="M403 279l184 -276v-3h-104l-176 272h-128v-272h-90v680h262q95 0 159 -58.5t64 -146.5q0 -74 -46 -127t-125 -69zM179 351h165q66 0 103 33t37 90q0 54 -38.5 90t-98.5 36h-168v-249z" />
    <glyph glyph-name="S" unicode="S" horiz-adv-x="565" 
d="M289 -13q-140 0 -241 83l45 71q82 -72 195 -72q59 0 101 29.5t42 80.5q0 27 -12 48t-37.5 36.5t-48 25.5t-59.5 22q-93 32 -149 79.5t-56 124.5q0 82 62.5 130t153.5 48q115 0 213 -70l-40 -67q-83 55 -168 55q-53 0 -91 -24t-38 -67q0 -26 11.5 -46.5t37 -36t45.5 -24.5
t57 -22q47 -16 81.5 -33t65.5 -41.5t47 -58t16 -75.5q0 -90 -66.5 -143t-166.5 -53z" />
    <glyph glyph-name="T" unicode="T" horiz-adv-x="528" 
d="M510 680v-83h-201v-597h-90v597h-200v83h491z" />
    <glyph glyph-name="U" unicode="U" horiz-adv-x="696" 
d="M349 -13q-117 0 -192 66.5t-75 185.5v441h90v-437q0 -85 47.5 -129t129.5 -44q80 0 127.5 44t47.5 129v437h90v-441q0 -119 -74.5 -185.5t-190.5 -66.5z" />
    <glyph glyph-name="V" unicode="V" horiz-adv-x="684" 
d="M577 680h98v-2l-319 -683h-28l-320 683v2h97l199 -431q28 -60 38 -92q17 49 39 95z" />
    <glyph glyph-name="W" unicode="W" horiz-adv-x="960" 
d="M848 680h94v-3l-236 -682h-27l-170 397q-13 29 -30 81q-16 -54 -28 -81l-170 -397h-27l-236 682v3h95l132 -394q25 -74 33 -109q13 46 39 108l150 358h24l144 -339q28 -66 47 -127q12 42 38 120z" />
    <glyph glyph-name="X" unicode="X" horiz-adv-x="625" 
d="M14 0v2l245 351l-224 325v2h104l107 -155q50 -76 68 -106q43 71 68 108l105 153h103v-2l-224 -325l245 -351v-2h-105l-127 185q-57 87 -66 102q-23 -41 -67 -103l-128 -184h-104z" />
    <glyph glyph-name="Y" unicode="Y" horiz-adv-x="629" 
d="M508 680h104v-3l-252 -376v-301h-91v301l-252 376v3h104l137 -207q40 -61 57 -97q16 33 56 97z" />
    <glyph glyph-name="Z" unicode="Z" horiz-adv-x="574" 
d="M39 0v27l313 499q6 10 21.5 34.5t24.5 37.5q-24 -1 -75 -1h-266v83h473v-27l-318 -508q-40 -61 -41 -63q23 1 65 1h300v-83h-497z" />
    <glyph glyph-name="bracketleft" unicode="[" horiz-adv-x="262" 
d="M69 -187v946h163v-70h-86v-806h86v-70h-163z" />
    <glyph glyph-name="backslash" unicode="\" horiz-adv-x="390" 
d="M291 -11l-263 702h71l263 -702h-71z" />
    <glyph glyph-name="bracketright" unicode="]" horiz-adv-x="262" 
d="M193 -187h-163v70h86v806h-86v70h163v-946z" />
    <glyph glyph-name="asciicircum" unicode="^" horiz-adv-x="462" 
d="M34 345l162 335h63l169 -335h-85l-115 239l-110 -239h-84z" />
    <glyph glyph-name="underscore" unicode="_" horiz-adv-x="490" 
d="M45 -92v67h400v-67h-400z" />
    <glyph glyph-name="grave" unicode="`" horiz-adv-x="268" 
d="M191 500l-148 99l52 59l134 -115z" />
    <glyph glyph-name="a" unicode="a" horiz-adv-x="453" 
d="M222 415q78 0 123 -38.5t45 -107.5v-269h-56l-16 62q-55 -71 -151 -71q-59 0 -94.5 31t-35.5 85q0 67 55.5 106t148.5 39q47 0 66 -2v19q0 35 -25 55t-70 20q-58 0 -129 -33l-23 65q85 39 162 39zM187 59q54 0 86.5 35t35.5 96q-29 4 -53 4q-65 0 -100.5 -21.5
t-35.5 -58.5q0 -26 17.5 -40.5t49.5 -14.5z" />
    <glyph glyph-name="b" unicode="b" horiz-adv-x="541" 
d="M297 419q89 0 146.5 -60t57.5 -152q0 -96 -57 -156.5t-148 -60.5q-98 0 -153 71l-13 -61h-61v713h83v-233q0 -74 -4 -129q54 68 149 68zM285 63q59 0 96.5 39.5t37.5 102.5q0 62 -37.5 101.5t-96.5 39.5q-61 0 -99 -39.5t-38 -101.5q0 -63 38 -102.5t99 -39.5z" />
    <glyph glyph-name="c" unicode="c" horiz-adv-x="431" 
d="M246 -12q-82 0 -144.5 58.5t-62.5 158.5q0 98 63 157t153 59q89 0 150 -57l-43 -54q-44 38 -105 38q-56 0 -95 -39t-39 -104t38 -104t95 -39q67 0 113 44l44 -56q-37 -33 -74 -47.5t-93 -14.5z" />
    <glyph glyph-name="d" unicode="d" horiz-adv-x="541" 
d="M390 713h82v-713h-60l-14 63q-53 -73 -154 -73q-91 0 -147.5 60.5t-56.5 156.5q0 92 57.5 152t146.5 60q95 0 149 -67q-3 62 -3 128v233zM256 63q61 0 99 39.5t38 102.5q0 62 -38 101.5t-99 39.5q-59 0 -96 -39.5t-37 -101.5q0 -63 37 -102.5t96 -39.5z" />
    <glyph glyph-name="e" unicode="e" horiz-adv-x="466" 
d="M250 421q84 0 132.5 -53.5t48.5 -145.5q0 -23 -3 -47h-306q8 -53 45.5 -84.5t92.5 -31.5q67 0 113 43l40 -56q-68 -58 -158 -58q-94 0 -155 61t-61 156q0 92 60.5 154t150.5 62zM248 350q-47 0 -81 -30.5t-44 -81.5h232q-3 55 -32 83.5t-75 28.5z" />
    <glyph glyph-name="f" unicode="f" horiz-adv-x="316" 
d="M99 0v339h-87v70h87v160q0 70 37 113t106 43q62 0 112 -36l-32 -60q-34 21 -68 21q-33 0 -52.5 -22t-19.5 -62v-157h123v-70h-123v-339h-83z" />
    <glyph glyph-name="g" unicode="g" horiz-adv-x="541" 
d="M415 409h57v-447q0 -97 -59.5 -145t-151.5 -48q-116 0 -190 74l43 58q57 -57 142 -57q61 0 97 30t36 90q0 57 2 87q-55 -61 -146 -61q-93 0 -149 62t-56 153t55 152.5t146 61.5q104 0 155 -68zM256 63q68 0 102.5 40t34.5 102q0 61 -34 101.5t-103 40.5q-63 0 -98 -40
t-35 -102t36 -102t97 -40z" />
    <glyph glyph-name="h" unicode="h" horiz-adv-x="494" 
d="M284 420q73 0 110 -44t37 -121v-255h-83v250q0 44 -19.5 70t-58.5 26q-56 0 -87 -41.5t-31 -102.5v-202h-83v713h83v-301q0 -40 -1 -65q40 73 133 73z" />
    <glyph glyph-name="i" unicode="i" horiz-adv-x="221" 
d="M110 519q-25 0 -40.5 15.5t-15.5 38.5q0 25 15.5 40.5t40.5 15.5q26 0 41.5 -15.5t15.5 -41.5q0 -23 -16 -38t-41 -15zM69 0v409h83v-409h-83z" />
    <glyph glyph-name="j" unicode="j" horiz-adv-x="225" 
d="M114 519q-25 0 -40.5 15.5t-15.5 38.5q0 25 15.5 40.5t40.5 15.5q26 0 41.5 -15.5t15.5 -41.5q0 -23 -16 -38t-41 -15zM-34 -231l-11 71q72 5 95 36t23 103v430h83v-424q0 -109 -41 -159.5t-149 -56.5z" />
    <glyph glyph-name="k" unicode="k" horiz-adv-x="420" 
d="M221 211l194 -206v-5h-97l-166 177v-177h-83v713h83v-471l150 167h96v-4z" />
    <glyph glyph-name="l" unicode="l" horiz-adv-x="221" 
d="M69 0v713h83v-713h-83z" />
    <glyph glyph-name="m" unicode="m" horiz-adv-x="751" 
d="M544 420q69 0 106.5 -43t37.5 -119v-258h-82v253q0 44 -20 68.5t-56 24.5q-53 0 -81.5 -40.5t-28.5 -94.5v-211h-83v255q0 39 -19 65t-57 26q-53 0 -81 -40.5t-28 -94.5v-211h-83v409h58l19 -63q44 74 131 74q93 0 126 -77q43 77 141 77z" />
    <glyph glyph-name="n" unicode="n" horiz-adv-x="494" 
d="M285 420q71 0 108.5 -44t37.5 -126v-250h-83v246q0 100 -77 100q-55 0 -87 -34.5t-32 -86.5v-225h-83v409h58l19 -62q49 73 139 73z" />
    <glyph glyph-name="o" unicode="o" horiz-adv-x="515" 
d="M258 -12q-97 0 -158 61t-61 156t61 155.5t158 60.5q96 0 157 -60.5t61 -155.5t-61 -156t-157 -61zM258 62q60 0 97 39.5t37 103.5q0 63 -37 102.5t-97 39.5t-97.5 -39.5t-37.5 -102.5q0 -64 37 -103.5t98 -39.5z" />
    <glyph glyph-name="p" unicode="p" horiz-adv-x="540" 
d="M299 419q87 0 144 -60t57 -151q0 -98 -56 -158t-146 -60q-93 0 -149 64q3 -56 3 -127v-147h-83v629h58l18 -61q56 71 154 71zM286 63q58 0 94.5 39t36.5 101q0 64 -36.5 103.5t-94.5 39.5q-62 0 -100 -38t-38 -101q0 -66 38 -105t100 -39z" />
    <glyph glyph-name="q" unicode="q" horiz-adv-x="540" 
d="M413 409h58v-629h-82v147q0 54 2 130q-52 -67 -149 -67q-90 0 -146 60t-56 158q0 92 57 151.5t145 59.5q95 0 152 -73zM255 63q62 0 99.5 39t37.5 105q0 63 -38 101t-99 38q-59 0 -95.5 -39.5t-36.5 -103.5q0 -62 36.5 -101t95.5 -39z" />
    <glyph glyph-name="r" unicode="r" horiz-adv-x="342" 
d="M265 419q37 0 69 -15l-23 -71q-23 9 -51 9q-50 0 -79 -30t-29 -84v-228h-83v409h58l18 -57q39 67 120 67z" />
    <glyph glyph-name="s" unicode="s" horiz-adv-x="374" 
d="M192 -9q-85 0 -156 46l34 58q57 -34 119 -34q32 0 51 13.5t19 36.5q0 16 -14 30t-28 20.5t-38 15.5q-5 2 -8 3q-120 44 -120 126q0 52 40.5 80.5t101.5 28.5q68 0 129 -37l-31 -55q-45 24 -93 24q-67 0 -67 -41q0 -37 77 -64q61 -20 96 -50t35 -81q0 -53 -41 -86.5
t-106 -33.5z" />
    <glyph glyph-name="t" unicode="t" horiz-adv-x="341" 
d="M213 -9q-55 0 -86.5 32t-31.5 100v216l-77 4v66h77l1 145h81v-145h137v-70h-137v-212q0 -60 48 -60q41 0 76 23l31 -60q-55 -39 -119 -39z" />
    <glyph glyph-name="u" unicode="u" horiz-adv-x="491" 
d="M340 409h82v-409h-60l-17 63q-46 -71 -132 -71q-73 0 -111.5 44.5t-38.5 122.5v250h83v-245q0 -98 84 -98q51 0 80.5 40.5t29.5 97.5v205z" />
    <glyph glyph-name="v" unicode="v" horiz-adv-x="436" 
d="M338 409h90v-2l-193 -412h-33l-193 412v2h90l95 -214q16 -39 25 -67q7 28 24 67z" />
    <glyph glyph-name="w" unicode="w" horiz-adv-x="616" 
d="M516 409h85v-2l-149 -412h-25l-119 250l-120 -250h-25l-148 412v2h85l72 -211q13 -41 14 -46q1 4 20 47l93 188h18l93 -188q11 -21 20 -47l14 47z" />
    <glyph glyph-name="x" unicode="x" horiz-adv-x="432" 
d="M23 0v2l144 214l-130 191v2h91l59 -88q15 -24 28 -50q5 8 16 25t17 26l58 87h89v-2l-129 -191l143 -214v-2h-92l-68 104q-12 17 -34 56q-18 -35 -33 -57l-69 -103h-90z" />
    <glyph glyph-name="y" unicode="y" horiz-adv-x="446" 
d="M352 409h85v-2l-255 -627h-86v2l94 219l-179 406v2h86l105 -244q17 -42 28 -76q9 32 26 76z" />
    <glyph glyph-name="z" unicode="z" horiz-adv-x="388" 
d="M227 73h127v-73h-318v22l174 279q14 24 23 37q-23 -1 -43 -1h-141v72h303v-22l-153 -245q-24 -40 -46 -70q28 1 74 1z" />
    <glyph glyph-name="braceleft" unicode="{" horiz-adv-x="314" 
d="M285 -190q-81 -4 -117.5 28.5t-36.5 107.5v212q0 48 -17 70t-64 22v72q47 -1 64 21.5t17 70.5v212q0 75 36.5 107.5t117.5 28.5v-71q-46 1 -62 -13.5t-16 -56.5v-218q0 -90 -69 -117q69 -27 69 -117v-218q0 -42 16 -56.5t62 -13.5v-71z" />
    <glyph glyph-name="bar" unicode="|" horiz-adv-x="225" 
d="M73 -166v905h79v-905h-79z" />
    <glyph glyph-name="braceright" unicode="}" horiz-adv-x="314" 
d="M29 -190v71q46 -1 61.5 13.5t15.5 56.5v218q0 90 70 117q-70 27 -70 117v218q0 42 -15.5 56.5t-61.5 13.5v71q81 4 117.5 -28.5t36.5 -107.5v-212q0 -48 17 -70.5t64 -21.5v-72q-47 0 -64 -22t-17 -70v-212q0 -75 -36.5 -107.5t-117.5 -28.5z" />
    <glyph glyph-name="asciitilde" unicode="~" horiz-adv-x="561" 
d="M123 279l-60 35q39 99 128 99q45 0 99 -35q3 -2 14 -8.5t15 -9t13 -7t14 -6.5t12.5 -3.5t14.5 -1.5q43 0 63 64l62 -32q-33 -107 -122 -107q-43 0 -96 34q-3 2 -14 8.5t-15 8.5t-13 7t-15 7t-14 3.5t-15 1.5q-29 0 -44.5 -14.5t-26.5 -43.5z" />
    <glyph glyph-name="uni00A0" unicode="&#xa0;" horiz-adv-x="224" 
 />
    <glyph glyph-name="exclamdown" unicode="&#xa1;" horiz-adv-x="264" 
d="M132 411q25 0 42 -15t17 -43t-17 -43t-42 -15q-24 0 -41.5 15t-17.5 43t17.5 43t41.5 15zM92 228h80l9 -508h-97z" />
    <glyph glyph-name="cent" unicode="&#xa2;" horiz-adv-x="430" 
d="M401 131q-48 -53 -126 -63v-79h-61v79q-75 11 -122 67.5t-47 138.5q0 84 47.5 141.5t121.5 68.5v78h61v-78q74 -9 119 -62l-45 -53q-39 45 -96 45q-52 0 -88 -37.5t-36 -102.5q0 -60 35 -97.5t87 -37.5q61 0 106 48z" />
    <glyph glyph-name="sterling" unicode="&#xa3;" horiz-adv-x="478" 
d="M166 81h286v-81h-401l-18 45q60 54 94 115t34 115v8h-102v68h81q-5 10 -18.5 33.5t-20.5 37.5t-13.5 38t-6.5 49q0 70 52.5 116t130.5 46q96 0 167 -64l-49 -56q-45 39 -107 39q-45 0 -74 -24t-29 -63q0 -24 9.5 -48t26 -54.5t24.5 -49.5h146v-68h-130v-10
q0 -98 -82 -192z" />
    <glyph glyph-name="currency" unicode="&#xa4;" horiz-adv-x="524" 
d="M89 133l-44 44l64 63q-31 51 -31 110t31 110l-64 63l44 45l62 -63q47 36 111 36q66 0 111 -36l62 63l44 -45l-63 -63q31 -51 31 -110t-31 -110l63 -63l-44 -44l-62 62q-47 -37 -111 -37q-63 0 -111 37zM262 228q50 0 80 34t30 88t-30 88t-80 34q-49 0 -79.5 -34
t-30.5 -88t30.5 -88t79.5 -34z" />
    <glyph glyph-name="yen" unicode="&#xa5;" horiz-adv-x="589" 
d="M249 0v164h-157v65h157v58h-157v65h128l-207 309h99l182 -284l182 284h100l-208 -309h128v-65h-156v-58h156v-65h-156v-164h-91z" />
    <glyph glyph-name="brokenbar" unicode="&#xa6;" horiz-adv-x="225" 
d="M73 353v386h79v-386h-79zM73 -166v404h79v-404h-79z" />
    <glyph glyph-name="section" unicode="&#xa7;" horiz-adv-x="524" 
d="M256 -53q-109 0 -187 67l44 63q59 -56 146 -56q101 0 101 76q0 24 -18 43t-38.5 29t-59.5 25q-34 13 -52 20.5t-48 23.5t-45 31t-27.5 38t-12.5 49q0 71 66 106q-39 36 -39 90q0 68 50 103.5t126 35.5q88 0 162 -49l-36 -61q-53 38 -125 38q-43 0 -69.5 -16.5
t-26.5 -48.5q0 -30 27.5 -49.5t81.5 -41.5q37 -15 64 -28t58.5 -34t48.5 -47.5t17 -57.5q0 -62 -60 -105q38 -38 38 -91q0 -75 -51 -114t-135 -39zM351 229q34 24 34 59q0 12 -4.5 22.5t-14 19.5t-18 16t-24 14.5t-24 11.5t-25.5 11t-22 9q-50 20 -73 33q-43 -27 -43 -61
q0 -11 5 -21t14.5 -19t19 -16t25 -14t24.5 -11t25 -10.5t21 -8.5q47 -18 80 -35z" />
    <glyph glyph-name="dieresis" unicode="&#xa8;" horiz-adv-x="399" 
d="M119 522q-22 0 -36.5 15t-14.5 35q0 21 14 36.5t37 15.5t37 -15.5t14 -35.5t-14 -35.5t-37 -15.5zM280 522q-23 0 -37 15t-14 35q0 21 14 36.5t37 15.5q24 0 37.5 -15.5t13.5 -36.5q0 -20 -14 -35t-37 -15z" />
    <glyph glyph-name="copyright" unicode="&#xa9;" horiz-adv-x="777" 
d="M389 -3q-150 0 -245 98.5t-95 244.5t94.5 244t245.5 98q150 0 244.5 -98t94.5 -244t-94.5 -244.5t-244.5 -98.5zM389 57q125 0 201.5 80.5t76.5 202.5q0 121 -76.5 201.5t-201.5 80.5t-202 -80.5t-77 -201.5t77 -202t202 -81zM402 156q-73 0 -127.5 47.5t-54.5 136.5
q0 84 52.5 133.5t127.5 49.5q74 0 125 -50l-35 -45q-37 33 -89 33q-50 0 -81 -33.5t-31 -88.5t32.5 -87.5t82.5 -32.5q54 0 93 41l35 -48q-53 -56 -130 -56z" />
    <glyph glyph-name="ordfeminine" unicode="&#xaa;" horiz-adv-x="304" 
d="M120 449q-35 0 -55.5 19.5t-20.5 52.5q0 41 36.5 62.5t85.5 21.5q11 0 29 -2v19q0 38 -48 38q-36 0 -73 -20l-19 45q46 26 98 26q43 0 70 -22.5t27 -67.5v-166h-40l-10 34q-9 -16 -30 -28t-50 -12zM135 493q25 0 43 19.5t18 49.5q-12 3 -27 3q-28 0 -49 -10t-21 -32
q0 -30 36 -30zM49 348v50h201v-50h-201z" />
    <glyph glyph-name="guillemotleft" unicode="&#xab;" horiz-adv-x="415" 
d="M152 46l-123 196l121 191l62 -34l-89 -157l91 -162zM308 46l-122 196l121 191l61 -34l-88 -157l90 -162z" />
    <glyph glyph-name="logicalnot" unicode="&#xac;" horiz-adv-x="537" 
d="M401 193v138h-338v74h410v-212h-72z" />
    <glyph glyph-name="registered" unicode="&#xae;" horiz-adv-x="543" 
d="M271 237q-95 0 -158.5 64.5t-63.5 161.5q0 96 63.5 160t158.5 64t158.5 -64t63.5 -160q0 -97 -63.5 -161.5t-158.5 -64.5zM271 284q74 0 123.5 51t49.5 128q0 75 -49.5 125.5t-123.5 50.5t-123.5 -50.5t-49.5 -125.5q0 -76 49.5 -127.5t123.5 -51.5zM194 356v217h96
q31 0 51 -18.5t20 -46.5q0 -26 -15 -42.5t-40 -20.5l61 -89h-47l-57 87h-30v-87h-39zM233 477h53q16 0 26 8.5t10 22.5q0 13 -10 22t-26 9h-53v-62z" />
    <glyph glyph-name="macron" unicode="&#xaf;" horiz-adv-x="386" 
d="M65 523v65h255v-65h-255z" />
    <glyph glyph-name="degree" unicode="&#xb0;" horiz-adv-x="349" 
d="M174 423q-59 0 -99 35.5t-40 98.5q0 62 40 97.5t99 35.5t99 -35.5t40 -97.5q0 -63 -40 -98.5t-99 -35.5zM174 482q31 0 51.5 20t20.5 55q0 34 -21 54.5t-51 20.5t-50.5 -20.5t-20.5 -54.5q0 -35 20.5 -55t50.5 -20z" />
    <glyph glyph-name="plusminus" unicode="&#xb1;" horiz-adv-x="482" 
d="M203 245v141h-139v71h139v139h75v-139h140v-71h-140v-141h-75zM64 101v70h354v-70h-354z" />
    <glyph glyph-name="acute" unicode="&#xb4;" horiz-adv-x="283" 
d="M87 500l-38 44l134 114l51 -58z" />
    <glyph glyph-name="uni00B5" unicode="&#xb5;" horiz-adv-x="499" 
d="M347 409h83v-409h-69l-8 65q-45 -69 -117 -69q-60 0 -92 38q5 -71 5 -179v-69h-80v623h82v-201q0 -138 90 -138q53 0 79.5 41.5t26.5 96.5v201z" />
    <glyph glyph-name="paragraph" unicode="&#xb6;" horiz-adv-x="606" 
d="M228 -94v393q-88 1 -140.5 54t-52.5 136q0 85 52.5 138t140.5 53h289v-774h-79v701h-132v-701h-78z" />
    <glyph glyph-name="periodcentered" unicode="&#xb7;" horiz-adv-x="258" 
d="M129 292q-24 0 -41.5 15t-17.5 43t17.5 43t41.5 15t41.5 -15t17.5 -43t-17.5 -43t-41.5 -15z" />
    <glyph glyph-name="cedilla" unicode="&#xb8;" horiz-adv-x="300" 
d="M150 -213q-59 0 -101 27l24 47q32 -20 70 -20q49 0 49 32q0 44 -96 42l36 83h59l-21 -51q39 -5 63 -24.5t24 -53.5q0 -39 -30.5 -60.5t-76.5 -21.5z" />
    <glyph glyph-name="ordmasculine" unicode="&#xba;" horiz-adv-x="313" 
d="M157 450q-55 0 -83.5 38t-28.5 93q0 54 28.5 92t83.5 38t83 -38t28 -92q0 -55 -28 -93t-83 -38zM157 503q27 0 41 24t14 54q0 31 -13.5 54.5t-41.5 23.5t-41.5 -24t-13.5 -54q0 -31 13 -54.5t42 -23.5zM58 348v50h202v-50h-202z" />
    <glyph glyph-name="guillemotright" unicode="&#xbb;" horiz-adv-x="415" 
d="M107 46l-62 34l91 162l-89 157l62 34l121 -191zM263 46l-61 34l90 162l-89 157l62 34l121 -191z" />
    <glyph glyph-name="onequarter" unicode="&#xbc;" horiz-adv-x="607" 
d="M99 397v188l-36 -34l-35 34l104 99h20v-287h-53zM77 0l353 680h61l-352 -680h-62zM473 0v50h-136v17l170 220h17v-192h35v-45h-35v-50h-51zM415 95h59v77z" />
    <glyph glyph-name="onehalf" unicode="&#xbd;" horiz-adv-x="631" 
d="M99 397v188l-36 -34l-35 34l104 99h20v-287h-53zM430 680h61l-352 -680h-62zM491 49h101v-49h-194v16l106 140q23 31 23 53q0 35 -36 35q-27 0 -45 -37l-43 20q23 66 90 66q40 0 64.5 -24t24.5 -59q0 -39 -32 -84z" />
    <glyph glyph-name="threequarters" unicode="&#xbe;" horiz-adv-x="678" 
d="M136 387q-60 0 -93 36l30 37q21 -24 59 -24q24 0 38 12t14 33q0 41 -54 41h-31v46h27q45 0 45 37q0 16 -11.5 25.5t-26.5 9.5q-28 0 -47 -17l-33 35q35 32 86 32q34 0 60 -21.5t26 -55.5q0 -46 -39 -65q22 -5 37.5 -25.5t15.5 -45.5q0 -41 -28.5 -65.5t-74.5 -24.5z
M148 0l353 680h61l-352 -680h-62zM544 0v50h-136v17l170 220h17v-192h35v-45h-35v-50h-51zM486 95h59v77z" />
    <glyph glyph-name="questiondown" unicode="&#xbf;" horiz-adv-x="430" 
d="M258 411q24 0 41.5 -15t17.5 -43t-17.5 -43t-41.5 -15q-25 0 -42 15t-17 43t17 43t42 15zM300 228q2 -16 2 -44q0 -48 -14.5 -87.5t-29.5 -58.5t-45 -50q-26 -26 -38.5 -40t-24 -36.5t-11.5 -44.5q0 -31 25 -54.5t71 -23.5q75 0 127 58l52 -58q-77 -80 -186 -80
q-82 0 -130.5 45.5t-48.5 104.5q0 34 16 67.5t33 54t55 60.5q33 33 50 65t17 84q0 24 -2 38h82z" />
    <glyph glyph-name="Agrave" unicode="&#xc0;" horiz-adv-x="681" 
d="M379 754l-152 101l54 62l138 -118zM355 685l319 -683v-2h-95l-64 139h-349l-63 -139h-95v2l319 683h28zM341 532q-27 -69 -45 -109l-96 -207h281l-95 207q-19 42 -45 109z" />
    <glyph glyph-name="Aacute" unicode="&#xc1;" horiz-adv-x="681" 
d="M440 856l-151 -102l-40 45l138 118zM355 685l319 -683v-2h-95l-64 139h-348l-64 -139h-95v2l319 683h28zM341 532q-27 -69 -45 -109l-95 -207h280l-95 207q-14 32 -45 109z" />
    <glyph glyph-name="Acircumflex" unicode="&#xc2;" horiz-adv-x="681" 
d="M232 744l-35 44l135 106h17l134 -107l-33 -43l-109 72zM355 685l319 -683v-2h-95l-64 139h-349l-63 -139h-95v2l319 683h28zM341 532q-27 -69 -45 -109l-96 -207h281l-95 207q-19 42 -45 109z" />
    <glyph glyph-name="Atilde" unicode="&#xc3;" horiz-adv-x="681" 
d="M249 769l-54 31q32 79 87 79q30 0 70 -20q30 -15 42 -15q22 0 38 34l54 -30q-32 -77 -86 -77q-28 0 -61 17q-36 17 -49 17q-25 0 -41 -36zM355 685l319 -683v-2h-95l-64 139h-349l-63 -139h-95v2l319 683h28zM341 532q-27 -69 -45 -109l-96 -207h281l-95 207
q-19 42 -45 109z" />
    <glyph glyph-name="Adieresis" unicode="&#xc4;" horiz-adv-x="681" 
d="M244 774q-24 0 -39 15.5t-15 36.5q0 22 14.5 38.5t39.5 16.5q24 0 39 -16t15 -37q0 -22 -14.5 -38t-39.5 -16zM437 774q-24 0 -39 16t-15 37t15 37.5t39 16.5q25 0 39.5 -16.5t14.5 -37.5t-15 -37t-39 -16zM355 685l319 -683v-2h-95l-64 139h-349l-63 -139h-95v2l319 683
h28zM341 532q-27 -69 -45 -109l-96 -207h281l-95 207q-19 42 -45 109z" />
    <glyph glyph-name="Aring" unicode="&#xc5;" horiz-adv-x="681" 
d="M342 725q-46 0 -79.5 27.5t-33.5 75.5q0 49 32.5 76.5t78.5 27.5t78.5 -27.5t32.5 -76.5q0 -48 -32 -75.5t-77 -27.5zM341 775q22 0 37.5 14t15.5 39q0 26 -16 40t-38 14t-37.5 -14t-15.5 -40q0 -25 16 -39t38 -14zM355 685l319 -683v-2h-95l-64 139h-349l-63 -139h-95v2
l319 683h28zM341 532q-27 -69 -45 -109l-96 -207h281l-95 207q-19 42 -45 109z" />
    <glyph glyph-name="AE" unicode="&#xc6;" horiz-adv-x="864" 
d="M523 81h301v-81h-387v141h-249l-91 -141h-101v3l444 677h374v-81h-291v-211h257v-78h-257v-229zM235 216h202v212v108q-18 -37 -41 -71z" />
    <glyph glyph-name="Ccedilla" unicode="&#xc7;" horiz-adv-x="689" 
d="M667 122q-83 -117 -231 -133l-18 -41q40 -4 66 -25t26 -57q0 -41 -32.5 -63.5t-81.5 -22.5q-64 0 -107 28l25 51q33 -22 74 -22q51 0 51 34q0 46 -100 44l31 73q-143 10 -232 110.5t-89 242.5q0 153 98 252.5t250 99.5q77 0 137.5 -26t117.5 -81l-50 -58q-82 82 -204 82
q-113 0 -185 -76.5t-72 -192.5q0 -115 71.5 -193t184.5 -78q131 0 208 106z" />
    <glyph glyph-name="Egrave" unicode="&#xc8;" horiz-adv-x="556" 
d="M339 754l-152 101l54 62l138 -118zM179 81h336v-81h-426v680h417v-81h-327v-212h288v-79h-288v-227z" />
    <glyph glyph-name="Eacute" unicode="&#xc9;" horiz-adv-x="556" 
d="M399 856l-151 -102l-40 45l138 118zM179 81h336v-81h-426v680h417v-81h-327v-212h288v-79h-288v-227z" />
    <glyph glyph-name="Ecircumflex" unicode="&#xca;" horiz-adv-x="556" 
d="M191 744l-35 44l135 106h17l134 -107l-33 -43l-109 72zM179 81h336v-81h-426v680h417v-81h-327v-212h288v-79h-288v-227z" />
    <glyph glyph-name="Edieresis" unicode="&#xcb;" horiz-adv-x="556" 
d="M203 774q-24 0 -39 15.5t-15 36.5q0 22 14.5 38.5t39.5 16.5q24 0 39 -16t15 -37q0 -22 -14.5 -38t-39.5 -16zM396 774q-24 0 -39 16t-15 37t15 37.5t39 16.5q25 0 39.5 -16.5t14.5 -37.5t-15 -37t-39 -16zM179 81h336v-81h-426v680h417v-81h-327v-212h288v-79h-288v-227
z" />
    <glyph glyph-name="Igrave" unicode="&#xcc;" horiz-adv-x="269" 
d="M172 754l-152 101l54 62l138 -118zM89 0v680h90v-680h-90z" />
    <glyph glyph-name="Iacute" unicode="&#xcd;" horiz-adv-x="269" 
d="M82 754l-40 45l138 118l53 -61zM89 0v680h90v-680h-90z" />
    <glyph glyph-name="Icircumflex" unicode="&#xce;" horiz-adv-x="269" 
d="M25 744l-35 44l135 106h17l134 -107l-33 -43l-109 72zM89 0v680h90v-680h-90z" />
    <glyph glyph-name="Idieresis" unicode="&#xcf;" horiz-adv-x="269" 
d="M37 774q-24 0 -39 15.5t-15 36.5q0 22 14.5 38.5t39.5 16.5q24 0 39 -16t15 -37q0 -22 -14.5 -38t-39.5 -16zM230 774q-24 0 -39 16t-15 37t15 37.5t39 16.5q25 0 39.5 -16.5t14.5 -37.5t-15 -37t-39 -16zM89 0v680h90v-680h-90z" />
    <glyph glyph-name="Eth" unicode="&#xd0;" horiz-adv-x="721" 
d="M325 680q154 0 250.5 -96t96.5 -245t-95.5 -244t-250.5 -95h-232v316h-73v65h73v299h231zM324 81q116 0 186.5 73t70.5 185q0 113 -71 187t-187 74h-139v-219h176v-65h-176v-235h140z" />
    <glyph glyph-name="Ntilde" unicode="&#xd1;" horiz-adv-x="751" 
d="M323 805q-25 0 -41 -36l-54 31q32 79 87 79q30 0 70 -20q30 -15 42 -15q22 0 38 34l54 -30q-32 -77 -86 -77q-28 0 -61 17q-36 17 -49 17zM572 680h90v-685h-38l-394 450q-38 40 -54 60q3 -36 3 -71v-434h-90v685h37l390 -444q5 -6 25.5 -29.5t32.5 -37.5q-2 60 -2 83
v423z" />
    <glyph glyph-name="Ograve" unicode="&#xd2;" horiz-adv-x="795" 
d="M436 754l-152 101l54 62l138 -118zM398 -13q-152 0 -250.5 102.5t-98.5 251.5q0 153 98 252.5t251 99.5q154 0 251 -99t97 -253q0 -149 -98 -251.5t-250 -102.5zM398 70q114 0 185.5 78.5t71.5 192.5q0 118 -71 193.5t-186 75.5t-186.5 -75.5t-71.5 -193.5
q0 -114 72 -192.5t186 -78.5z" />
    <glyph glyph-name="Oacute" unicode="&#xd3;" horiz-adv-x="795" 
d="M346 754l-40 45l138 118l53 -61zM398 -13q-152 0 -250.5 102.5t-98.5 251.5q0 153 98 252.5t251 99.5q154 0 251 -99t97 -253q0 -149 -98 -251.5t-250 -102.5zM398 70q114 0 185.5 78.5t71.5 192.5q0 118 -71 193.5t-186 75.5t-186.5 -75.5t-71.5 -193.5
q0 -114 72 -192.5t186 -78.5z" />
    <glyph glyph-name="Ocircumflex" unicode="&#xd4;" horiz-adv-x="795" 
d="M288 744l-35 44l135 106h17l134 -107l-33 -43l-109 72zM398 -13q-152 0 -250.5 102.5t-98.5 251.5q0 153 98 252.5t251 99.5q154 0 251 -99t97 -253q0 -149 -98 -251.5t-250 -102.5zM398 70q114 0 185.5 78.5t71.5 192.5q0 118 -71 193.5t-186 75.5t-186.5 -75.5
t-71.5 -193.5q0 -114 72 -192.5t186 -78.5z" />
    <glyph glyph-name="Otilde" unicode="&#xd5;" horiz-adv-x="795" 
d="M305 769l-54 31q32 79 87 79q30 0 70 -20q30 -15 42 -15q22 0 38 34l54 -30q-32 -77 -86 -77q-28 0 -61 17q-36 17 -49 17q-25 0 -41 -36zM398 -13q-152 0 -250.5 102.5t-98.5 251.5q0 153 98 252.5t251 99.5q154 0 251 -99t97 -253q0 -149 -98 -251.5t-250 -102.5z
M398 70q114 0 185.5 78.5t71.5 192.5q0 118 -71 193.5t-186 75.5t-186.5 -75.5t-71.5 -193.5q0 -114 72 -192.5t186 -78.5z" />
    <glyph glyph-name="Odieresis" unicode="&#xd6;" horiz-adv-x="795" 
d="M301 774q-24 0 -39 15.5t-15 36.5q0 22 14.5 38.5t39.5 16.5q24 0 39 -16t15 -37q0 -22 -14.5 -38t-39.5 -16zM494 774q-24 0 -39 16t-15 37t15 37.5t39 16.5q25 0 39.5 -16.5t14.5 -37.5t-15 -37t-39 -16zM398 -13q-152 0 -250.5 102.5t-98.5 251.5q0 153 98 252.5
t251 99.5q154 0 251 -99t97 -253q0 -149 -98 -251.5t-250 -102.5zM398 70q114 0 185.5 78.5t71.5 192.5q0 118 -71 193.5t-186 75.5t-186.5 -75.5t-71.5 -193.5q0 -114 72 -192.5t186 -78.5z" />
    <glyph glyph-name="multiply" unicode="&#xd7;" horiz-adv-x="492" 
d="M127 171l-51 51l120 118l-120 119l51 50l119 -119l120 119l50 -50l-120 -119l120 -119l-50 -50l-120 119z" />
    <glyph glyph-name="Oslash" unicode="&#xd8;" horiz-adv-x="795" 
d="M627 614q119 -100 119 -273q0 -149 -98 -251.5t-250 -102.5q-98 0 -176 45l-56 -80l-52 37l56 80q-57 48 -89 119t-32 153q0 153 98 252.5t251 99.5q99 0 177 -43l68 98l52 -36zM140 341q0 -123 81 -201l307 439q-56 32 -130 32q-115 0 -186.5 -76t-71.5 -194zM398 70
q114 0 185.5 78.5t71.5 192.5q0 128 -80 203l-306 -441q58 -33 129 -33z" />
    <glyph glyph-name="Ugrave" unicode="&#xd9;" horiz-adv-x="696" 
d="M388 754l-152 101l54 62l138 -118zM349 -13q-117 0 -192 66.5t-75 185.5v441h90v-437q0 -85 47.5 -129t129.5 -44q80 0 127.5 44t47.5 129v437h90v-441q0 -119 -74.5 -185.5t-190.5 -66.5z" />
    <glyph glyph-name="Uacute" unicode="&#xda;" horiz-adv-x="696" 
d="M298 754l-40 45l138 118l53 -61zM349 -13q-117 0 -192 66.5t-75 185.5v441h90v-437q0 -85 47.5 -129t129.5 -44q80 0 127.5 44t47.5 129v437h90v-441q0 -119 -74.5 -185.5t-190.5 -66.5z" />
    <glyph glyph-name="Ucircumflex" unicode="&#xdb;" horiz-adv-x="696" 
d="M241 744l-35 44l135 106h17l134 -107l-33 -43l-109 72zM349 -13q-117 0 -192 66.5t-75 185.5v441h90v-437q0 -85 47.5 -129t129.5 -44q80 0 127.5 44t47.5 129v437h90v-441q0 -119 -74.5 -185.5t-190.5 -66.5z" />
    <glyph glyph-name="Udieresis" unicode="&#xdc;" horiz-adv-x="696" 
d="M253 774q-24 0 -39 15.5t-15 36.5q0 22 14.5 38.5t39.5 16.5q24 0 39 -16t15 -37q0 -22 -14.5 -38t-39.5 -16zM446 774q-24 0 -39 16t-15 37t15 37.5t39 16.5q25 0 39.5 -16.5t14.5 -37.5t-15 -37t-39 -16zM349 -13q-117 0 -192 66.5t-75 185.5v441h90v-437
q0 -85 47.5 -129t129.5 -44q80 0 127.5 44t47.5 129v437h90v-441q0 -119 -74.5 -185.5t-190.5 -66.5z" />
    <glyph glyph-name="Yacute" unicode="&#xdd;" horiz-adv-x="629" 
d="M413 856l-151 -102l-40 45l138 118zM508 680h104v-3l-252 -376v-301h-91v301l-252 376v3h104l137 -207q40 -61 57 -97q22 45 56 97z" />
    <glyph glyph-name="Thorn" unicode="&#xde;" horiz-adv-x="587" 
d="M89 0v680h91v-118h157q103 0 161.5 -65.5t58.5 -148.5t-58 -146t-166 -63h-153v-139h-91zM180 219h148q67 0 102.5 38t36.5 92q0 56 -37.5 94.5t-98.5 38.5h-151v-263z" />
    <glyph glyph-name="germandbls" unicode="&#xdf;" horiz-adv-x="504" 
d="M302 -8q-47 0 -99 18l18 72q34 -16 69 -16q48 0 78 20t30 52q0 21 -13 39t-32 32t-37.5 30.5t-31.5 41.5t-13 57q0 36 13 63.5t29 43t29 42.5t13 62q0 47 -25 72.5t-71 25.5q-52 0 -79.5 -39t-27.5 -112v-496h-83v499q0 110 48.5 167t141.5 57q80 0 130 -46t50 -121
q0 -44 -13.5 -76.5t-30 -49t-30 -39t-13.5 -48.5q0 -23 13.5 -41.5t32 -33t37.5 -30.5t32.5 -41.5t13.5 -58.5q0 -67 -51.5 -106.5t-127.5 -39.5z" />
    <glyph glyph-name="agrave" unicode="&#xe0;" horiz-adv-x="453" 
d="M304 543l-38 -43l-148 99l52 59zM222 415q78 0 123 -38.5t45 -107.5v-269h-56l-16 62q-55 -71 -151 -71q-59 0 -94.5 31t-35.5 85q0 67 55.5 106t148.5 39q47 0 66 -2v19q0 35 -25 55t-70 20q-58 0 -129 -33l-23 65q85 39 162 39zM187 59q54 0 86.5 35t35.5 96
q-29 4 -53 4q-65 0 -100.5 -21.5t-35.5 -58.5q0 -26 17.5 -40.5t49.5 -14.5z" />
    <glyph glyph-name="aacute" unicode="&#xe1;" horiz-adv-x="453" 
d="M314 600l-147 -100l-38 44l134 114zM222 415q78 0 123 -38.5t45 -107.5v-269h-56l-16 62q-55 -71 -151 -71q-59 0 -94.5 31t-35.5 85q0 67 55.5 106t148.5 39q47 0 66 -2v19q0 35 -25 55t-70 20q-58 0 -129 -33l-23 65q85 39 162 39zM187 59q54 0 86.5 35t35.5 96
q-29 4 -53 4q-65 0 -100.5 -21.5t-35.5 -58.5q0 -26 17.5 -40.5t49.5 -14.5z" />
    <glyph glyph-name="acircumflex" unicode="&#xe2;" horiz-adv-x="453" 
d="M218 560l-89 -71l-34 42l114 103h17l113 -104l-32 -41zM222 415q78 0 123 -38.5t45 -107.5v-269h-56l-16 62q-55 -71 -151 -71q-59 0 -94.5 31t-35.5 85q0 67 55.5 106t148.5 39q47 0 66 -2v19q0 35 -25 55t-70 20q-58 0 -129 -33l-23 65q85 39 162 39zM187 59
q54 0 86.5 35t35.5 96q-29 4 -53 4q-65 0 -100.5 -21.5t-35.5 -58.5q0 -26 17.5 -40.5t49.5 -14.5z" />
    <glyph glyph-name="atilde" unicode="&#xe3;" horiz-adv-x="453" 
d="M172 553q-23 0 -37 -34l-51 29q30 73 80 73q28 0 61 -18q29 -16 42 -16q20 0 34 32l51 -28q-30 -71 -80 -71q-26 0 -55 16q-32 17 -45 17zM222 415q78 0 123 -38.5t45 -107.5v-269h-56l-16 62q-55 -71 -151 -71q-59 0 -94.5 31t-35.5 85q0 67 55.5 106t148.5 39
q47 0 66 -2v19q0 35 -25 55t-70 20q-58 0 -129 -33l-23 65q85 39 162 39zM187 59q54 0 86.5 35t35.5 96q-29 4 -53 4q-65 0 -100.5 -21.5t-35.5 -58.5q0 -26 17.5 -40.5t49.5 -14.5z" />
    <glyph glyph-name="adieresis" unicode="&#xe4;" horiz-adv-x="453" 
d="M137 522q-22 0 -36.5 15t-14.5 35q0 21 14 36.5t37 15.5t37 -15.5t14 -35.5t-14 -35.5t-37 -15.5zM298 522q-23 0 -37 15t-14 35q0 21 14 36.5t37 15.5q24 0 37.5 -15.5t13.5 -36.5q0 -20 -14 -35t-37 -15zM222 415q78 0 123 -38.5t45 -107.5v-269h-56l-16 62
q-55 -71 -151 -71q-59 0 -94.5 31t-35.5 85q0 67 55.5 106t148.5 39q47 0 66 -2v19q0 35 -25 55t-70 20q-58 0 -129 -33l-23 65q85 39 162 39zM187 59q54 0 86.5 35t35.5 96q-29 4 -53 4q-65 0 -100.5 -21.5t-35.5 -58.5q0 -26 17.5 -40.5t49.5 -14.5z" />
    <glyph glyph-name="aring" unicode="&#xe5;" horiz-adv-x="453" 
d="M219 476q-44 0 -75 26t-31 72t31 71.5t75 25.5t74.5 -25.5t30.5 -71.5t-30.5 -72t-74.5 -26zM219 624q-21 0 -36 -13.5t-15 -36.5q0 -24 15 -37t36 -13t35 13t14 37t-14 37t-35 13zM222 415q78 0 123 -38.5t45 -107.5v-269h-56l-16 62q-55 -71 -151 -71q-59 0 -94.5 31
t-35.5 85q0 67 55.5 106t148.5 39q47 0 66 -2v19q0 35 -25 55t-70 20q-58 0 -129 -33l-23 65q85 39 162 39zM187 59q54 0 86.5 35t35.5 96q-29 4 -53 4q-65 0 -100.5 -21.5t-35.5 -58.5q0 -26 17.5 -40.5t49.5 -14.5z" />
    <glyph glyph-name="ae" unicode="&#xe6;" horiz-adv-x="688" 
d="M485 415q81 0 124.5 -52.5t43.5 -141.5q0 -27 -2 -41h-288q6 -54 41 -88t89 -34q60 0 105 42l39 -53q-66 -58 -148 -58q-115 0 -163 91q-31 -48 -69 -68.5t-94 -20.5q-54 0 -90 31.5t-36 86.5q0 71 59 104.5t144 33.5q31 0 51 -2v25q0 41 -20 57.5t-61 16.5
q-67 0 -127 -33l-24 65q78 39 159 39q96 0 122 -64q42 64 145 64zM365 242h212q0 47 -25.5 75.5t-70.5 28.5q-99 0 -116 -104zM180 60q46 0 78.5 34.5t33.5 91.5q-17 2 -46 2q-126 0 -126 -74q0 -24 16 -39t44 -15z" />
    <glyph glyph-name="ccedilla" unicode="&#xe7;" horiz-adv-x="431" 
d="M250 -53q39 -5 63 -24.5t24 -53.5q0 -39 -30.5 -60.5t-76.5 -21.5q-59 0 -101 27l24 47q32 -20 70 -20q49 0 49 32q0 44 -96 42l33 76q-71 13 -120.5 69.5t-49.5 144.5q0 98 63 157t153 59q89 0 150 -57l-43 -54q-44 38 -105 38q-56 0 -95 -39t-39 -104t38 -104t95 -39
q67 0 113 44l44 -56q-34 -30 -66.5 -44.5t-79.5 -16.5z" />
    <glyph glyph-name="egrave" unicode="&#xe8;" horiz-adv-x="466" 
d="M286 500l-148 99l52 59l134 -115zM250 421q84 0 132.5 -53.5t48.5 -145.5q0 -23 -3 -47h-306q8 -53 45.5 -84.5t92.5 -31.5q67 0 113 43l40 -56q-68 -58 -158 -58q-94 0 -155 61t-61 156q0 92 60.5 154t150.5 62zM248 350q-47 0 -81 -30.5t-44 -81.5h232q-3 55 -32 83.5
t-75 28.5z" />
    <glyph glyph-name="eacute" unicode="&#xe9;" horiz-adv-x="466" 
d="M335 600l-147 -100l-38 44l134 114zM250 421q84 0 132.5 -53.5t48.5 -145.5q0 -23 -3 -47h-306q8 -52 45.5 -84t92.5 -32q67 0 113 43l40 -56q-68 -58 -158 -58q-94 0 -155 61t-61 156q0 92 60.5 154t150.5 62zM248 350q-47 0 -81 -30t-44 -82h232q-3 55 -32.5 83.5
t-74.5 28.5z" />
    <glyph glyph-name="ecircumflex" unicode="&#xea;" horiz-adv-x="466" 
d="M239 560l-89 -71l-34 42l114 103h17l113 -104l-32 -41zM250 421q84 0 132.5 -53.5t48.5 -145.5q0 -23 -3 -47h-306q8 -52 45.5 -84t92.5 -32q67 0 113 43l40 -56q-68 -58 -158 -58q-94 0 -155 61t-61 156q0 92 60.5 154t150.5 62zM248 350q-47 0 -81 -30t-44 -82h232
q-3 55 -32.5 83.5t-74.5 28.5z" />
    <glyph glyph-name="edieresis" unicode="&#xeb;" horiz-adv-x="466" 
d="M158 522q-22 0 -36.5 15t-14.5 35q0 21 13.5 36.5t37.5 15.5q23 0 37 -15.5t14 -35.5t-14 -35.5t-37 -15.5zM319 522q-23 0 -37 15t-14 35q0 21 14 36.5t37 15.5t37 -15.5t14 -36.5q0 -20 -14 -35t-37 -15zM250 421q84 0 132.5 -53.5t48.5 -145.5q0 -23 -3 -47h-306
q8 -53 45.5 -84.5t92.5 -31.5q67 0 113 43l40 -56q-68 -58 -158 -58q-94 0 -155 61t-61 156q0 92 60.5 154t150.5 62zM248 350q-47 0 -81 -30.5t-44 -81.5h232q-3 55 -32 83.5t-75 28.5z" />
    <glyph glyph-name="igrave" unicode="&#xec;" horiz-adv-x="221" 
d="M157 500l-148 99l52 59l134 -115zM69 0v409h83v-409h-83z" />
    <glyph glyph-name="iacute" unicode="&#xed;" horiz-adv-x="221" 
d="M60 509l-38 44l134 114l50 -58zM69 0v409h83v-409h-83z" />
    <glyph glyph-name="icircumflex" unicode="&#xee;" horiz-adv-x="221" 
d="M21 498l-34 42l115 103h17l112 -104l-32 -41l-88 71zM69 0v409h83v-409h-83z" />
    <glyph glyph-name="idieresis" unicode="&#xef;" horiz-adv-x="221" 
d="M33 520q-22 0 -36.5 14.5t-14.5 37.5t14.5 38t36.5 15t36.5 -15t14.5 -38q0 -22 -14.5 -37t-36.5 -15zM186 520q-22 0 -36 14.5t-14 37.5t14 38t36 15t36.5 -15t14.5 -38t-14.5 -37.5t-36.5 -14.5zM69 0v409h83v-409h-83z" />
    <glyph glyph-name="eth" unicode="&#xf0;" horiz-adv-x="492" 
d="M335 575q114 -136 114 -338q0 -111 -53.5 -180t-151.5 -69q-84 0 -144 55t-60 155q0 92 55.5 149t134.5 57q80 0 134 -53q-20 101 -90 180l-84 -61l-42 54l77 56q-53 43 -119 72l34 64q85 -37 146 -91l68 49l42 -54zM243 62q64 0 94 43.5t30 102.5t-37 93t-90 34
q-52 0 -85.5 -37.5t-33.5 -98.5t33 -99t89 -38z" />
    <glyph glyph-name="ntilde" unicode="&#xf1;" horiz-adv-x="494" 
d="M200 553q-23 0 -37 -34l-51 29q30 73 80 73q28 0 61 -18q29 -16 42 -16q20 0 34 32l51 -28q-30 -71 -80 -71q-26 0 -55 16q-32 17 -45 17zM285 420q71 0 108.5 -44t37.5 -126v-250h-83v246q0 100 -77 100q-55 0 -87 -34.5t-32 -86.5v-225h-83v409h58l19 -62q49 73 139 73
z" />
    <glyph glyph-name="ograve" unicode="&#xf2;" horiz-adv-x="515" 
d="M305 500l-148 99l52 59l134 -115zM258 -12q-97 0 -158 61t-61 156t61 155.5t158 60.5q96 0 157 -60.5t61 -155.5t-61 -156t-157 -61zM258 62q60 0 97 39.5t37 103.5q0 63 -37 102.5t-97 39.5t-97.5 -39.5t-37.5 -102.5q0 -64 37 -103.5t98 -39.5z" />
    <glyph glyph-name="oacute" unicode="&#xf3;" horiz-adv-x="515" 
d="M207 500l-38 44l134 114l51 -58zM258 -12q-97 0 -158 61t-61 156t61 155.5t158 60.5q96 0 157 -60.5t61 -155.5t-61 -156t-157 -61zM258 62q60 0 97 39.5t37 103.5q0 63 -37 102.5t-97 39.5t-97.5 -39.5t-37.5 -102.5q0 -64 37 -103.5t98 -39.5z" />
    <glyph glyph-name="ocircumflex" unicode="&#xf4;" horiz-adv-x="515" 
d="M168 489l-34 42l114 103h17l113 -104l-32 -41l-89 71zM258 -12q-97 0 -158 61t-61 156t61 155.5t158 60.5q96 0 157 -60.5t61 -155.5t-61 -156t-157 -61zM258 62q60 0 97 39.5t37 103.5q0 63 -37 102.5t-97 39.5t-97.5 -39.5t-37.5 -102.5q0 -64 37 -103.5t98 -39.5z" />
    <glyph glyph-name="otilde" unicode="&#xf5;" horiz-adv-x="515" 
d="M174 519l-51 29q30 73 80 73q28 0 61 -18q29 -16 42 -16q20 0 34 32l51 -28q-30 -71 -80 -71q-26 0 -55 16q-32 17 -45 17q-23 0 -37 -34zM258 -12q-97 0 -158 61t-61 156t61 155.5t158 60.5q96 0 157 -60.5t61 -155.5t-61 -156t-157 -61zM258 62q60 0 97 39.5t37 103.5
q0 63 -37 102.5t-97 39.5t-97.5 -39.5t-37.5 -102.5q0 -64 37 -103.5t98 -39.5z" />
    <glyph glyph-name="odieresis" unicode="&#xf6;" horiz-adv-x="515" 
d="M177 522q-22 0 -36.5 15t-14.5 35q0 21 14 36.5t37 15.5t37 -15.5t14 -35.5t-14 -35.5t-37 -15.5zM338 522q-23 0 -37 15t-14 35q0 21 14 36.5t37 15.5q24 0 37.5 -15.5t13.5 -36.5q0 -20 -14 -35t-37 -15zM258 -12q-97 0 -158 61t-61 156t61 155.5t158 60.5
q96 0 157 -60.5t61 -155.5t-61 -156t-157 -61zM258 62q60 0 97 39.5t37 103.5q0 63 -37 102.5t-97 39.5t-97.5 -39.5t-37.5 -102.5q0 -64 37 -103.5t98 -39.5z" />
    <glyph glyph-name="divide" unicode="&#xf7;" horiz-adv-x="540" 
d="M270 447q-28 0 -43.5 16.5t-15.5 41.5q0 26 15.5 42t43.5 16t43.5 -16t15.5 -42q0 -25 -15.5 -41.5t-43.5 -16.5zM64 304v72h412v-72h-412zM270 117q-28 0 -43.5 16t-15.5 42q0 25 15.5 41t43.5 16t43.5 -16t15.5 -41q0 -26 -15.5 -42t-43.5 -16z" />
    <glyph glyph-name="oslash" unicode="&#xf8;" horiz-adv-x="515" 
d="M401 373q75 -61 75 -168q0 -95 -61 -156t-157 -61q-59 0 -105 23l-35 -51l-39 27l35 50q-75 61 -75 168q0 95 61 155.5t158 60.5q57 0 103 -23l37 53l38 -27zM258 348q-60 0 -98 -40t-38 -103q0 -64 39 -105l159 234q-28 14 -62 14zM258 61q60 0 97.5 40t37.5 104
t-38 104l-160 -234q28 -14 63 -14z" />
    <glyph glyph-name="ugrave" unicode="&#xf9;" horiz-adv-x="491" 
d="M291 500l-148 99l52 59l134 -115zM340 409h82v-409h-60l-17 63q-46 -71 -132 -71q-73 0 -111.5 44.5t-38.5 122.5v250h83v-245q0 -98 84 -98q51 0 80.5 40.5t29.5 97.5v205z" />
    <glyph glyph-name="uacute" unicode="&#xfa;" horiz-adv-x="491" 
d="M340 600l-147 -100l-38 44l134 114zM340 409h82v-409h-60l-17 63q-46 -71 -132 -71q-73 0 -111.5 44.5t-38.5 122.5v250h83v-245q0 -98 84 -98q51 0 80.5 40.5t29.5 97.5v205z" />
    <glyph glyph-name="ucircumflex" unicode="&#xfb;" horiz-adv-x="491" 
d="M244 560l-89 -71l-34 42l114 103h17l113 -104l-32 -41zM340 409h82v-409h-60l-17 63q-46 -71 -132 -71q-73 0 -111.5 44.5t-38.5 122.5v250h83v-245q0 -98 84 -98q51 0 80.5 40.5t29.5 97.5v205z" />
    <glyph glyph-name="udieresis" unicode="&#xfc;" horiz-adv-x="491" 
d="M163 522q-22 0 -36.5 15t-14.5 35q0 21 14 36.5t37 15.5t37 -15.5t14 -35.5t-14 -35.5t-37 -15.5zM324 522q-23 0 -37 15t-14 35q0 21 14 36.5t37 15.5q24 0 37.5 -15.5t13.5 -36.5q0 -20 -14 -35t-37 -15zM340 409h82v-409h-60l-17 63q-46 -71 -132 -71
q-73 0 -111.5 44.5t-38.5 122.5v250h83v-245q0 -98 84 -98q51 0 80.5 40.5t29.5 97.5v205z" />
    <glyph glyph-name="yacute" unicode="&#xfd;" horiz-adv-x="446" 
d="M319 600l-147 -100l-38 44l134 114zM352 409h85v-2l-255 -627h-86v2l94 220l-179 405v2h86l105 -244q16 -39 28 -77q9 33 26 77z" />
    <glyph glyph-name="thorn" unicode="&#xfe;" horiz-adv-x="540" 
d="M298 419q88 0 145 -60.5t57 -153.5q0 -94 -57 -154.5t-145 -60.5q-94 0 -150 67q4 -76 4 -130v-147h-83v933h83v-233q0 -74 -5 -131q54 70 151 70zM285 63q59 0 95.5 39t36.5 103q0 63 -36.5 102.5t-95.5 39.5q-62 0 -99.5 -38.5t-37.5 -102.5q0 -65 37 -104t100 -39z
" />
    <glyph glyph-name="ydieresis" unicode="&#xff;" horiz-adv-x="446" 
d="M142 522q-22 0 -36.5 15t-14.5 35q0 21 14 36.5t37 15.5t37 -15.5t14 -35.5t-14 -35.5t-37 -15.5zM303 522q-23 0 -37 15t-14 35q0 21 14 36.5t37 15.5t37 -15.5t14 -36.5q0 -20 -14 -35t-37 -15zM352 409h85v-2l-255 -627h-86v2l94 219l-179 406v2h86l105 -244
q17 -42 28 -76q9 32 26 76z" />
    <glyph glyph-name="Amacron" unicode="&#x100;" horiz-adv-x="681" 
d="M202 775v70h273v-70h-273zM355 685l319 -683v-2h-95l-64 139h-349l-63 -139h-95v2l319 683h28zM341 532q-27 -69 -45 -109l-96 -207h281l-95 207q-19 42 -45 109z" />
    <glyph glyph-name="amacron" unicode="&#x101;" horiz-adv-x="453" 
d="M345 588v-65h-255v65h255zM222 415q78 0 123 -38.5t45 -107.5v-269h-56l-16 62q-55 -71 -151 -71q-59 0 -94.5 31t-35.5 85q0 67 55.5 106t148.5 39q47 0 66 -2v19q0 35 -25 55t-70 20q-58 0 -129 -33l-23 65q85 39 162 39zM187 59q54 0 86.5 35t35.5 96q-29 4 -53 4
q-65 0 -100.5 -21.5t-35.5 -58.5q0 -26 17.5 -40.5t49.5 -14.5z" />
    <glyph glyph-name="Abreve" unicode="&#x102;" horiz-adv-x="681" 
d="M341 747q-51 0 -88 29t-49 83l58 17q7 -28 29.5 -44.5t49.5 -16.5t49.5 16.5t29.5 44.5l58 -17q-12 -54 -49.5 -83t-87.5 -29zM355 685l319 -683v-2h-95l-64 139h-349l-63 -139h-95v2l319 683h28zM341 532q-27 -69 -45 -109l-96 -207h281l-95 207q-19 42 -45 109z" />
    <glyph glyph-name="abreve" unicode="&#x103;" horiz-adv-x="453" 
d="M219 496q-45 0 -78 27.5t-44 79.5l54 17q7 -27 25.5 -43t42.5 -16q23 0 42 16t25 43l55 -17q-12 -52 -45 -79.5t-77 -27.5zM222 415q78 0 123 -38.5t45 -107.5v-269h-56l-16 62q-55 -71 -151 -71q-59 0 -94.5 31t-35.5 85q0 67 55.5 106t148.5 39q47 0 66 -2v19
q0 35 -25 55t-70 20q-58 0 -129 -33l-23 65q85 39 162 39zM187 59q54 0 86.5 35t35.5 96q-29 4 -53 4q-65 0 -100.5 -21.5t-35.5 -58.5q0 -26 17.5 -40.5t49.5 -14.5z" />
    <glyph glyph-name="Aogonek" unicode="&#x104;" horiz-adv-x="681" 
d="M669 -132l21 -64q-37 -25 -88 -25q-48 0 -74.5 23.5t-26.5 63.5q0 64 77 136l-63 137h-349l-63 -139h-95v2l319 683h28l319 -683v-2h-6q-83 -64 -83 -115q0 -33 38 -33q21 0 46 16zM200 216h281l-95 207q-19 42 -45 109q-27 -69 -45 -109z" />
    <glyph glyph-name="aogonek" unicode="&#x105;" horiz-adv-x="453" 
d="M390 -132l22 -57q-35 -25 -85 -25q-46 0 -71 23.5t-25 59.5q0 68 97 153l-10 40q-55 -71 -151 -71q-59 0 -94.5 31t-35.5 85q0 67 55.5 106t148.5 39q47 0 66 -2v19q0 35 -25 55t-70 20q-58 0 -129 -33l-23 65q85 39 162 39q78 0 123 -38.5t45 -107.5v-269
q-83 -67 -83 -116q0 -32 38 -32q22 0 45 16zM187 59q54 0 86.5 35t35.5 96q-29 4 -53 4q-65 0 -100.5 -21.5t-35.5 -58.5q0 -26 17.5 -40.5t49.5 -14.5z" />
    <glyph glyph-name="Cacute" unicode="&#x106;" horiz-adv-x="689" 
d="M346 754l-40 45l138 118l53 -61zM396 -13q-153 0 -250 102.5t-97 251.5q0 153 98 252.5t250 99.5q77 0 137.5 -26t117.5 -81l-50 -58q-82 82 -204 82q-113 0 -185 -76.5t-72 -192.5q0 -115 71.5 -193t184.5 -78q131 0 208 106l62 -54q-45 -63 -114.5 -99t-156.5 -36z" />
    <glyph glyph-name="cacute" unicode="&#x107;" horiz-adv-x="431" 
d="M202 500l-38 44l134 114l51 -58zM246 -12q-82 0 -144.5 58.5t-62.5 158.5q0 98 63 157t153 59q89 0 150 -57l-43 -54q-44 38 -105 38q-56 0 -95 -39t-39 -104t38 -104t95 -39q67 0 113 44l44 -56q-37 -33 -74 -47.5t-93 -14.5z" />
    <glyph glyph-name="Ccircumflex" unicode="&#x108;" horiz-adv-x="689" 
d="M289 744l-35 44l135 106h17l134 -107l-33 -43l-109 72zM396 -13q-153 0 -250 102.5t-97 251.5q0 153 98 252.5t250 99.5q77 0 137.5 -26t117.5 -81l-50 -58q-82 82 -204 82q-113 0 -185 -76.5t-72 -192.5q0 -115 71.5 -193t184.5 -78q131 0 208 106l62 -54
q-45 -63 -114.5 -99t-156.5 -36z" />
    <glyph glyph-name="ccircumflex" unicode="&#x109;" horiz-adv-x="431" 
d="M164 489l-34 42l114 103h17l113 -104l-32 -41l-89 71zM246 -12q-82 0 -144.5 58.5t-62.5 158.5q0 98 63 157t153 59q89 0 150 -57l-43 -54q-44 38 -105 38q-56 0 -95 -39t-39 -104t38 -104t95 -39q67 0 113 44l44 -56q-37 -33 -74 -47.5t-93 -14.5z" />
    <glyph glyph-name="Cdotaccent" unicode="&#x10a;" horiz-adv-x="689" 
d="M398 771q-26 0 -41 16.5t-15 39.5t15 40t41 17q27 0 42.5 -17t15.5 -41q0 -23 -15.5 -39t-42.5 -16zM396 -13q-153 0 -250 102.5t-97 251.5q0 153 98 252.5t250 99.5q77 0 137.5 -26t117.5 -81l-50 -58q-82 82 -204 82q-113 0 -185 -76.5t-72 -192.5q0 -115 71.5 -193
t184.5 -78q131 0 208 106l62 -54q-45 -63 -114.5 -99t-156.5 -36z" />
    <glyph glyph-name="cdotaccent" unicode="&#x10b;" horiz-adv-x="431" 
d="M253 517q-24 0 -39.5 15.5t-15.5 38.5q0 25 15.5 40.5t39.5 15.5q25 0 40.5 -15.5t15.5 -40.5q0 -24 -16 -39t-40 -15zM246 -12q-82 0 -144.5 58.5t-62.5 158.5q0 98 63 157t153 59q89 0 150 -57l-43 -54q-44 38 -105 38q-56 0 -95 -39t-39 -104t38 -104t95 -39
q67 0 113 44l44 -56q-37 -33 -74 -47.5t-93 -14.5z" />
    <glyph glyph-name="Ccaron" unicode="&#x10c;" horiz-adv-x="689" 
d="M388 748l-133 107l33 42l108 -72l110 72l35 -43l-135 -106h-18zM396 -13q-153 0 -250 102.5t-97 251.5q0 153 98 252.5t250 99.5q77 0 137.5 -26t117.5 -81l-50 -58q-82 82 -204 82q-113 0 -185 -76.5t-72 -192.5q0 -115 71.5 -193t184.5 -78q131 0 208 106l62 -54
q-45 -63 -114.5 -99t-156.5 -36z" />
    <glyph glyph-name="ccaron" unicode="&#x10d;" horiz-adv-x="431" 
d="M244 496l-112 104l32 42l88 -71l90 71l34 -42l-115 -104h-17zM246 -12q-82 0 -144.5 58.5t-62.5 158.5q0 98 63 157t153 59q89 0 150 -57l-43 -54q-44 38 -105 38q-56 0 -95 -39t-39 -104t38 -104t95 -39q67 0 113 44l44 -56q-37 -33 -74 -47.5t-93 -14.5z" />
    <glyph glyph-name="Dcaron" unicode="&#x10e;" horiz-adv-x="716" 
d="M316 748l-133 107l33 42l108 -72l110 72l35 -43l-135 -106h-18zM89 0v680h231q154 0 250.5 -96t96.5 -245t-95.5 -244t-250.5 -95h-232zM179 81h140q116 0 186.5 73t70.5 185q0 113 -71 187t-187 74h-139v-519z" />
    <glyph glyph-name="dcaron" unicode="&#x10f;" horiz-adv-x="539" 
d="M389 480v233h83v-713h-61l-13 62q-55 -72 -154 -72q-91 0 -147.5 60.5t-56.5 156.5q0 92 57.5 152t146.5 60q94 0 148 -67q-3 62 -3 128zM540 713h85q-11 -110 -51 -169h-60q25 81 26 169zM256 63q61 0 99 39.5t38 102.5q0 62 -38 101.5t-99 39.5q-59 0 -96.5 -39.5
t-37.5 -101.5q0 -63 37.5 -102.5t96.5 -39.5z" />
    <glyph glyph-name="Dcroat" unicode="&#x110;" horiz-adv-x="721" 
d="M325 680q154 0 250.5 -96t96.5 -245t-95.5 -244t-250.5 -95h-232v316h-73v65h73v299h231zM324 81q116 0 186.5 73t70.5 185q0 113 -71 187t-187 74h-139v-219h176v-65h-176v-235h140z" />
    <glyph glyph-name="dcroat" unicode="&#x111;" horiz-adv-x="541" 
d="M525 583v-54h-53v-529h-60l-14 61q-54 -71 -154 -71q-91 0 -147.5 60.5t-56.5 156.5q0 92 57.5 152t146.5 60q95 0 149 -67q-3 62 -3 128v49h-141v54h141v130h82v-130h53zM256 63q61 0 99 39.5t38 102.5q0 62 -38 101.5t-99 39.5q-59 0 -96 -39.5t-37 -101.5
q0 -63 37 -102.5t96 -39.5z" />
    <glyph glyph-name="Emacron" unicode="&#x112;" horiz-adv-x="556" 
d="M162 775v70h273v-70h-273zM179 81h336v-81h-426v680h417v-81h-327v-212h288v-79h-288v-227z" />
    <glyph glyph-name="emacron" unicode="&#x113;" horiz-adv-x="466" 
d="M111 523v65h255v-65h-255zM250 421q84 0 132.5 -53.5t48.5 -145.5q0 -23 -3 -47h-306q8 -53 45.5 -84.5t92.5 -31.5q67 0 113 43l40 -56q-68 -58 -158 -58q-94 0 -155 61t-61 156q0 92 60.5 154t150.5 62zM248 350q-47 0 -81 -30.5t-44 -81.5h232q-3 55 -32 83.5
t-75 28.5z" />
    <glyph glyph-name="Ebreve" unicode="&#x114;" horiz-adv-x="556" 
d="M301 747q-51 0 -88 29t-49 83l58 17q7 -28 29.5 -44.5t49.5 -16.5t49.5 16.5t29.5 44.5l58 -17q-12 -54 -49.5 -83t-87.5 -29zM179 81h336v-81h-426v680h417v-81h-327v-212h288v-79h-288v-227z" />
    <glyph glyph-name="ebreve" unicode="&#x115;" horiz-adv-x="466" 
d="M239 496q-45 0 -78 27.5t-44 79.5l54 17q7 -27 25.5 -43t42.5 -16q23 0 42 16t25 43l55 -17q-12 -52 -45 -79.5t-77 -27.5zM250 421q84 0 132.5 -53.5t48.5 -145.5q0 -23 -3 -47h-306q8 -52 45.5 -84t92.5 -32q67 0 113 43l40 -56q-68 -58 -158 -58q-94 0 -155 61
t-61 156q0 92 60.5 154t150.5 62zM248 350q-47 0 -81 -30t-44 -82h232q-3 55 -32.5 83.5t-74.5 28.5z" />
    <glyph glyph-name="Edotaccent" unicode="&#x116;" horiz-adv-x="556" 
d="M300 771q-26 0 -41 16.5t-15 39.5t15 40t41 17q27 0 42.5 -17t15.5 -41q0 -23 -15.5 -39t-42.5 -16zM179 81h336v-81h-426v680h417v-81h-327v-212h288v-79h-288v-227z" />
    <glyph glyph-name="edotaccent" unicode="&#x117;" horiz-adv-x="466" 
d="M239 517q-24 0 -39.5 15.5t-15.5 38.5q0 25 15.5 40.5t39.5 15.5q25 0 40.5 -15.5t15.5 -40.5q0 -24 -16 -39t-40 -15zM250 421q84 0 132.5 -53.5t48.5 -145.5q0 -23 -3 -47h-306q8 -53 45.5 -84.5t92.5 -31.5q67 0 113 43l40 -56q-68 -58 -158 -58q-94 0 -155 61
t-61 156q0 92 60.5 154t150.5 62zM248 350q-47 0 -81 -30.5t-44 -81.5h232q-3 55 -32 83.5t-75 28.5z" />
    <glyph glyph-name="Eogonek" unicode="&#x118;" horiz-adv-x="556" 
d="M507 -132l22 -64q-38 -25 -88 -25q-48 0 -74.5 23.5t-26.5 63.5q0 64 83 134h-334v680h417v-81h-327v-212h288v-79h-288v-227h336v-81q-91 -68 -91 -115q0 -33 37 -33q23 0 46 16z" />
    <glyph glyph-name="eogonek" unicode="&#x119;" horiz-adv-x="465" 
d="M242 420q89 0 138.5 -52.5t49.5 -145.5q0 -23 -3 -47h-306q8 -51 46 -83t93 -32q65 0 114 41l38 -54q-3 -2 -8 -7q-110 -96 -110 -155q0 -33 37 -33q22 0 45 16l22 -57q-35 -25 -85 -25q-46 0 -70.5 23t-24.5 60q0 58 67 122q-20 -2 -32 -2q-96 0 -155 60t-59 156
q0 91 57.5 153t145.5 62zM243 350q-45 0 -78 -30.5t-42 -81.5h230q0 56 -29.5 84t-80.5 28z" />
    <glyph glyph-name="Ecaron" unicode="&#x11a;" horiz-adv-x="556" 
d="M291 748l-133 107l33 42l108 -72l110 72l35 -43l-135 -106h-18zM179 81h336v-81h-426v680h417v-81h-327v-212h288v-79h-288v-227z" />
    <glyph glyph-name="ecaron" unicode="&#x11b;" horiz-adv-x="466" 
d="M247 496h-17l-112 104l32 42l88 -71l90 71l34 -42zM250 421q84 0 132.5 -53.5t48.5 -145.5q0 -23 -3 -47h-306q8 -52 45.5 -84t92.5 -32q67 0 113 43l40 -56q-68 -58 -158 -58q-94 0 -155 61t-61 156q0 92 60.5 154t150.5 62zM248 350q-47 0 -81 -30t-44 -82h232
q-3 55 -32.5 83.5t-74.5 28.5z" />
    <glyph glyph-name="Gcircumflex" unicode="&#x11c;" horiz-adv-x="730" 
d="M288 744l-35 44l135 106h17l134 -107l-33 -43l-109 72zM395 371h282v-254q-102 -130 -277 -130q-153 0 -252 100.5t-99 253.5q0 150 96 251t253 101q155 0 260 -113l-55 -59q-82 90 -204 90q-117 0 -187.5 -76.5t-70.5 -193.5q0 -120 73.5 -196t192.5 -76q117 0 187 78
v145h-199v79z" />
    <glyph glyph-name="gcircumflex" unicode="&#x11d;" horiz-adv-x="541" 
d="M257 560l-89 -71l-34 42l114 103h17l113 -104l-32 -41zM415 409h57v-447q0 -97 -59.5 -145t-151.5 -48q-116 0 -190 74l43 58q57 -57 142 -57q61 0 97 30t36 90q0 57 2 87q-54 -61 -146 -61q-93 0 -149 62t-56 153t55 152.5t146 61.5q103 0 156 -67zM256 63
q68 0 102.5 40t34.5 102q0 61 -34 101.5t-103 40.5q-63 0 -98 -40t-35 -102t36 -102t97 -40z" />
    <glyph glyph-name="Gbreve" unicode="&#x11e;" horiz-adv-x="730" 
d="M397 747q-51 0 -88 29t-49 83l58 17q7 -28 29.5 -44.5t49.5 -16.5t49.5 16.5t29.5 44.5l58 -17q-12 -54 -49.5 -83t-87.5 -29zM395 371h282v-254q-102 -130 -277 -130q-153 0 -252 100.5t-99 253.5q0 150 96 251t253 101q155 0 260 -113l-55 -59q-82 90 -204 90
q-117 0 -187.5 -76.5t-70.5 -193.5q0 -120 73.5 -196t192.5 -76q117 0 187 78v145h-199v79z" />
    <glyph glyph-name="gbreve" unicode="&#x11f;" horiz-adv-x="541" 
d="M257 496q-45 0 -78 27.5t-44 79.5l54 17q7 -27 25.5 -43t42.5 -16q23 0 42 16t25 43l55 -17q-12 -52 -45 -79.5t-77 -27.5zM415 409h57v-447q0 -97 -59.5 -145t-151.5 -48q-116 0 -190 74l43 58q57 -57 142 -57q61 0 97 30t36 90q0 57 2 87q-54 -61 -146 -61
q-93 0 -149 62t-56 153t55 152.5t146 61.5q103 0 156 -67zM256 63q68 0 102.5 40t34.5 102q0 61 -34 101.5t-103 40.5q-63 0 -98 -40t-35 -102t36 -102t97 -40z" />
    <glyph glyph-name="Gdotaccent" unicode="&#x120;" horiz-adv-x="730" 
d="M397 771q-26 0 -41 16.5t-15 39.5t15 40t41 17q27 0 42.5 -17t15.5 -41q0 -23 -15.5 -39t-42.5 -16zM395 371h282v-254q-102 -130 -277 -130q-153 0 -252 100.5t-99 253.5q0 150 96 251t253 101q155 0 260 -113l-55 -59q-82 90 -204 90q-117 0 -187.5 -76.5t-70.5 -193.5
q0 -120 73.5 -196t192.5 -76q117 0 187 78v145h-199v79z" />
    <glyph glyph-name="gdotaccent" unicode="&#x121;" horiz-adv-x="541" 
d="M257 517q-24 0 -39.5 15.5t-15.5 38.5q0 25 15.5 40.5t39.5 15.5q25 0 40.5 -15.5t15.5 -40.5q0 -24 -16 -39t-40 -15zM415 409h57v-447q0 -97 -59.5 -145t-151.5 -48q-116 0 -190 74l43 58q57 -57 142 -57q61 0 97 30t36 90q0 57 2 87q-55 -61 -146 -61q-93 0 -149 62
t-56 153t55 152.5t146 61.5q104 0 155 -68zM256 63q68 0 102.5 40t34.5 102q0 61 -34 101.5t-103 40.5q-63 0 -98 -40t-35 -102t36 -102t97 -40z" />
    <glyph glyph-name="uni0122" unicode="&#x122;" horiz-adv-x="730" 
d="M395 371h282v-254q-102 -130 -277 -130q-153 0 -252 100.5t-99 253.5q0 150 96 251t253 101q155 0 260 -113l-55 -59q-82 90 -204 90q-117 0 -187.5 -76.5t-70.5 -193.5q0 -120 73.5 -196t192.5 -76q117 0 187 78v145h-199v79zM340 -283q29 91 29 182h85
q-9 -110 -53 -182h-61z" />
    <glyph glyph-name="uni0123" unicode="&#x123;" horiz-adv-x="541" 
d="M325 680q-28 -91 -28 -179h-84q9 106 53 179h59zM415 409h57v-447q0 -97 -59.5 -145t-151.5 -48q-116 0 -190 74l43 58q57 -57 142 -57q61 0 97 30t36 90q0 57 2 87q-54 -61 -146 -61q-93 0 -149 62t-56 153t55 152.5t146 61.5q103 0 156 -67zM256 63q68 0 102.5 40
t34.5 102q0 61 -34 101.5t-103 40.5q-63 0 -98 -40t-35 -102t36 -102t97 -40z" />
    <glyph glyph-name="Hcircumflex" unicode="&#x124;" horiz-adv-x="735" 
d="M257 744l-35 44l135 106h17l134 -107l-33 -43l-109 72zM89 0v680h90v-296h376v296h90v-680h-90v301h-376v-301h-90z" />
    <glyph glyph-name="hcircumflex" unicode="&#x125;" horiz-adv-x="494" 
d="M219 777l-109 72l-109 -72l-35 44l135 106h17l134 -107zM284 420q73 0 110 -44t37 -121v-255h-83v250q0 44 -19.5 70t-58.5 26q-56 0 -87 -41.5t-31 -102.5v-202h-83v713h83v-301q0 -40 -1 -65q40 73 133 73z" />
    <glyph glyph-name="Hbar" unicode="&#x126;" horiz-adv-x="739" 
d="M707 569v-56h-59v-513h-90v301h-376v-301h-90v513h-60v56h60v111h90v-111h376v111h90v-111h59zM558 384v129h-376v-129h376z" />
    <glyph glyph-name="hbar" unicode="&#x127;" horiz-adv-x="494" 
d="M285 419q71 0 108.5 -43.5t37.5 -117.5v-258h-83v253q0 92 -79 92q-56 0 -86.5 -41.5t-30.5 -102.5v-201h-83v529h-54v54h54v130h83v-130h151v-54h-151v-117q0 -41 -1 -66q39 73 134 73z" />
    <glyph glyph-name="Itilde" unicode="&#x128;" horiz-adv-x="269" 
d="M42 769l-54 31q32 79 87 79q30 0 70 -20q30 -15 42 -15q22 0 38 34l54 -30q-32 -77 -86 -77q-28 0 -61 17q-36 17 -49 17q-25 0 -41 -36zM89 0v680h90v-680h-90z" />
    <glyph glyph-name="itilde" unicode="&#x129;" horiz-adv-x="221" 
d="M27 528l-51 29q30 73 80 73q29 0 62 -18q29 -16 41 -16q20 0 34 32l51 -28q-30 -71 -80 -71q-26 0 -55 16q-32 17 -45 17q-23 0 -37 -34zM69 0v409h83v-409h-83z" />
    <glyph glyph-name="Imacron" unicode="&#x12a;" horiz-adv-x="269" 
d="M-5 775v70h273v-70h-273zM89 0v680h90v-680h-90z" />
    <glyph glyph-name="imacron" unicode="&#x12b;" horiz-adv-x="221" 
d="M5 522v68h208v-68h-208zM69 0v409h83v-409h-83z" />
    <glyph glyph-name="Ibreve" unicode="&#x12c;" horiz-adv-x="269" 
d="M135 747q-51 0 -88.5 29t-49.5 83l59 17q7 -28 29.5 -44.5t49.5 -16.5t49.5 16.5t29.5 44.5l58 -17q-12 -54 -49.5 -83t-87.5 -29zM89 0v680h90v-680h-90z" />
    <glyph glyph-name="ibreve" unicode="&#x12d;" horiz-adv-x="221" 
d="M111 496q-45 0 -78 27.5t-44 79.5l54 17q7 -27 25.5 -43t42.5 -16q23 0 42 16t25 43l55 -17q-12 -52 -45 -79.5t-77 -27.5zM69 0v409h83v-409h-83z" />
    <glyph glyph-name="Iogonek" unicode="&#x12e;" horiz-adv-x="269" 
d="M202 -132l21 -64q-37 -25 -87 -25q-49 0 -76 23.5t-27 64.5q0 60 57 133h-1v680h90v-680q-60 -70 -60 -115q0 -33 37 -33q21 0 46 16z" />
    <glyph glyph-name="iogonek" unicode="&#x12f;" horiz-adv-x="221" 
d="M110 518q-24 0 -40 15.5t-16 39.5q0 25 16 41t40 16q26 0 41.5 -16t15.5 -42q0 -24 -16 -39t-41 -15zM177 -132l21 -57q-35 -25 -84 -25q-47 0 -71.5 22.5t-24.5 59.5q0 58 57 132h-6v409h83v-409q-58 -66 -58 -114q0 -34 37 -34q21 0 46 16z" />
    <glyph glyph-name="Idotaccent" unicode="&#x130;" horiz-adv-x="269" 
d="M134 771q-26 0 -41 16.5t-15 39.5t15 40t41 17q27 0 42.5 -17t15.5 -41q0 -23 -15.5 -39t-42.5 -16zM89 0v680h90v-680h-90z" />
    <glyph glyph-name="dotlessi" unicode="&#x131;" horiz-adv-x="221" 
d="M69 0v409h83v-409h-83z" />
    <glyph glyph-name="IJ" unicode="&#x132;" horiz-adv-x="767" 
d="M89 0v680h90v-680h-90zM467 -13q-104 0 -188 62l43 71q64 -51 142 -51q64 0 97.5 37.5t33.5 110.5v463h90v-464q0 -112 -56 -170.5t-162 -58.5z" />
    <glyph glyph-name="ij" unicode="&#x133;" horiz-adv-x="445" 
d="M110 519q-25 0 -40.5 15.5t-15.5 38.5q0 25 15.5 40.5t40.5 15.5q26 0 41.5 -15.5t15.5 -41.5q0 -23 -16 -38t-41 -15zM335 519q-25 0 -40.5 15.5t-15.5 38.5q0 25 15.5 40.5t40.5 15.5q26 0 41.5 -15.5t15.5 -41.5q0 -23 -16 -38t-41 -15zM69 0v409h83v-409h-83z
M187 -231l-11 71q72 5 95 36t23 103v430h83v-424q0 -109 -41 -159.5t-149 -56.5z" />
    <glyph glyph-name="Jcircumflex" unicode="&#x134;" horiz-adv-x="498" 
d="M262 744l-35 44l135 106h17l134 -107l-33 -43l-109 72zM198 -13q-104 0 -188 62l43 71q65 -51 142 -51q64 0 97.5 37.5t33.5 110.5v463h90v-464q0 -112 -56 -170.5t-162 -58.5z" />
    <glyph glyph-name="jcircumflex" unicode="&#x135;" horiz-adv-x="225" 
d="M25 489l-34 42l114 103h17l113 -104l-32 -41l-89 71zM-34 -231l-11 71q72 5 95 36t23 103v430h83v-424q0 -109 -41 -159.5t-149 -56.5z" />
    <glyph glyph-name="uni0136" unicode="&#x136;" horiz-adv-x="589" 
d="M267 342l316 -339v-3h-110l-294 314v-314h-90v680h90v-315l279 315h107v-3zM248 -283q29 91 29 182h85q-9 -110 -53 -182h-61z" />
    <glyph glyph-name="uni0137" unicode="&#x137;" horiz-adv-x="420" 
d="M221 211l194 -206v-5h-97l-166 177v-177h-83v713h83v-471l150 167h96v-4zM165 -278q29 89 29 179h83q-9 -108 -52 -179h-60z" />
    <glyph glyph-name="kgreenlandic" unicode="&#x138;" horiz-adv-x="420" 
d="M221 211l194 -206v-5h-97l-166 177v-177h-83v409h83v-167l150 167h96v-4z" />
    <glyph glyph-name="Lacute" unicode="&#x139;" horiz-adv-x="519" 
d="M83 754l-40 45l138 118l53 -61zM89 0v680h90v-597h315v-83h-405z" />
    <glyph glyph-name="lacute" unicode="&#x13a;" horiz-adv-x="221" 
d="M59 787l-40 45l138 118l53 -61zM69 0v713h83v-713h-83z" />
    <glyph glyph-name="uni013B" unicode="&#x13b;" horiz-adv-x="519" 
d="M89 0v680h90v-597h315v-83h-405zM218 -283q29 91 29 182h85q-9 -110 -53 -182h-61z" />
    <glyph glyph-name="uni013C" unicode="&#x13c;" horiz-adv-x="221" 
d="M69 0v713h83v-713h-83zM46 -278q29 89 29 179h83q-9 -108 -52 -179h-60z" />
    <glyph glyph-name="Lcaron" unicode="&#x13d;" horiz-adv-x="519" 
d="M89 0v680h90v-597h315v-83h-405zM310 511q29 80 29 169h85q-9 -107 -53 -169h-61z" />
    <glyph glyph-name="lcaron" unicode="&#x13e;" horiz-adv-x="219" 
d="M69 0v713h83v-713h-83zM194 544q25 81 26 169h86q-10 -107 -51 -169h-61z" />
    <glyph glyph-name="Ldot" unicode="&#x13f;" horiz-adv-x="519" 
d="M89 0v680h90v-597h315v-83h-405zM386 299q-24 0 -41 14.5t-17 42.5t17 42.5t41 14.5t41 -14.5t17 -42.5t-17 -42.5t-41 -14.5z" />
    <glyph glyph-name="ldot" unicode="&#x140;" horiz-adv-x="351" 
d="M69 0v713h83v-713h-83zM276 294q-24 0 -41 14.5t-17 41.5q0 28 17 42.5t41 14.5t40.5 -14.5t16.5 -42.5q0 -27 -16.5 -41.5t-40.5 -14.5z" />
    <glyph glyph-name="Lslash" unicode="&#x141;" horiz-adv-x="521" 
d="M181 83h315v-83h-405v276l-59 -20l-23 64l82 28v332h90v-301l138 47l23 -64l-161 -55v-224z" />
    <glyph glyph-name="lslash" unicode="&#x142;" horiz-adv-x="267" 
d="M260 362l-85 -29v-333h-83v304l-67 -23l-18 57l85 30v345h83v-316l66 23z" />
    <glyph glyph-name="Nacute" unicode="&#x143;" horiz-adv-x="751" 
d="M473 856l-151 -102l-40 45l138 118zM572 680h90v-685h-38l-394 450q-38 40 -54 60q3 -36 3 -71v-434h-90v685h37l390 -444q5 -6 25.5 -29.5t32.5 -37.5q-2 60 -2 83v423z" />
    <glyph glyph-name="nacute" unicode="&#x144;" horiz-adv-x="494" 
d="M342 600l-147 -100l-38 44l134 114zM285 420q71 0 108.5 -44t37.5 -126v-250h-83v246q0 100 -77 100q-55 0 -87 -34.5t-32 -86.5v-225h-83v409h58l19 -62q49 73 139 73z" />
    <glyph glyph-name="uni0145" unicode="&#x145;" horiz-adv-x="751" 
d="M572 680h90v-685h-38l-394 450q-38 40 -54 60q3 -36 3 -71v-434h-90v685h37l390 -444q5 -6 25.5 -29.5t32.5 -37.5q-2 60 -2 83v423zM310 -283q29 91 29 182h85q-9 -110 -53 -182h-61z" />
    <glyph glyph-name="uni0146" unicode="&#x146;" horiz-adv-x="494" 
d="M285 420q71 0 108.5 -44t37.5 -126v-250h-83v246q0 100 -77 100q-55 0 -87 -34.5t-32 -86.5v-225h-83v409h58l19 -62q49 73 139 73zM184 -278q29 89 29 179h83q-9 -108 -52 -179h-60z" />
    <glyph glyph-name="Ncaron" unicode="&#x147;" horiz-adv-x="751" 
d="M383 748h-18l-133 107l33 42l108 -72l110 72l35 -43zM572 680h90v-685h-38l-394 450q-38 40 -54 60q3 -36 3 -71v-434h-90v685h37l390 -444q5 -6 25.5 -29.5t32.5 -37.5q-2 60 -2 83v423z" />
    <glyph glyph-name="ncaron" unicode="&#x148;" horiz-adv-x="494" 
d="M254 496h-17l-112 104l32 42l88 -71l90 71l34 -42zM285 420q71 0 108.5 -44t37.5 -126v-250h-83v246q0 100 -77 100q-55 0 -87 -34.5t-32 -86.5v-225h-83v409h58l19 -62q49 73 139 73z" />
    <glyph glyph-name="napostrophe" unicode="&#x149;" horiz-adv-x="503" 
d="M-24 438q29 89 29 181h86q-10 -112 -54 -181h-61zM78 0v409h61l17 -67q42 78 137 78q71 0 109 -43.5t38 -124.5v-252h-83v247q0 99 -78 99q-57 0 -88 -41.5t-31 -102.5v-202h-82z" />
    <glyph glyph-name="Eng" unicode="&#x14a;" horiz-adv-x="752" 
d="M573 680h90v-677q0 -111 -54.5 -170t-156.5 -58l-11 81q64 0 98 38t34 110v49l-353 400q-6 7 -20.5 23.5t-22.5 27.5q2 -24 2 -62v-442h-90v685h37l396 -453q47 -53 54 -62q-3 39 -3 65v445z" />
    <glyph glyph-name="eng" unicode="&#x14b;" horiz-adv-x="494" 
d="M263 -221l-9 71q52 1 73 26t21 83v287q0 100 -77 100q-55 0 -87 -34.5t-32 -86.5v-225h-83v409h58l19 -61q48 72 139 72q71 0 108.5 -44t37.5 -126v-291q0 -89 -43 -134.5t-125 -45.5z" />
    <glyph glyph-name="Omacron" unicode="&#x14c;" horiz-adv-x="795" 
d="M259 775v70h273v-70h-273zM398 -13q-152 0 -250.5 102.5t-98.5 251.5q0 153 98 252.5t251 99.5q154 0 251 -99t97 -253q0 -149 -98 -251.5t-250 -102.5zM398 70q114 0 185.5 78.5t71.5 192.5q0 118 -71 193.5t-186 75.5t-186.5 -75.5t-71.5 -193.5q0 -114 72 -192.5
t186 -78.5z" />
    <glyph glyph-name="omacron" unicode="&#x14d;" horiz-adv-x="515" 
d="M130 523v65h255v-65h-255zM258 -12q-97 0 -158 61t-61 156t61 155.5t158 60.5q96 0 157 -60.5t61 -155.5t-61 -156t-157 -61zM258 62q60 0 97 39.5t37 103.5q0 63 -37 102.5t-97 39.5t-97.5 -39.5t-37.5 -102.5q0 -64 37 -103.5t98 -39.5z" />
    <glyph glyph-name="Obreve" unicode="&#x14e;" horiz-adv-x="795" 
d="M398 747q-51 0 -88 29t-49 83l58 17q7 -28 29.5 -44.5t49.5 -16.5t49.5 16.5t29.5 44.5l58 -17q-12 -54 -49.5 -83t-87.5 -29zM398 -13q-152 0 -250.5 102.5t-98.5 251.5q0 153 98 252.5t251 99.5q154 0 251 -99t97 -253q0 -149 -98 -251.5t-250 -102.5zM398 70
q114 0 185.5 78.5t71.5 192.5q0 118 -71 193.5t-186 75.5t-186.5 -75.5t-71.5 -193.5q0 -114 72 -192.5t186 -78.5z" />
    <glyph glyph-name="obreve" unicode="&#x14f;" horiz-adv-x="515" 
d="M258 496q-45 0 -78 27.5t-44 79.5l54 17q7 -27 25.5 -43t42.5 -16q23 0 42 16t25 43l55 -17q-12 -52 -45 -79.5t-77 -27.5zM258 -12q-97 0 -158 61t-61 156t61 155.5t158 60.5q96 0 157 -60.5t61 -155.5t-61 -156t-157 -61zM258 62q60 0 97 39.5t37 103.5q0 63 -37 102.5
t-97 39.5t-97.5 -39.5t-37.5 -102.5q0 -64 37 -103.5t98 -39.5z" />
    <glyph glyph-name="Ohungarumlaut" unicode="&#x150;" horiz-adv-x="795" 
d="M305 743l-50 33l97 146l66 -43zM467 743l-50 34l101 145l65 -45zM398 -13q-152 0 -250.5 102.5t-98.5 251.5q0 153 98 252.5t251 99.5q154 0 251 -99t97 -253q0 -149 -98 -251.5t-250 -102.5zM398 70q114 0 185.5 78.5t71.5 192.5q0 118 -71 193.5t-186 75.5
t-186.5 -75.5t-71.5 -193.5q0 -114 72 -192.5t186 -78.5z" />
    <glyph glyph-name="ohungarumlaut" unicode="&#x151;" horiz-adv-x="515" 
d="M168 489l-49 33l96 144l65 -43zM329 489l-49 33l99 144l64 -44zM258 -12q-97 0 -158 61t-61 156t61 155.5t158 60.5q96 0 157 -60.5t61 -155.5t-61 -156t-157 -61zM258 62q60 0 97 39.5t37 103.5q0 63 -37 102.5t-97 39.5t-97.5 -39.5t-37.5 -102.5q0 -64 37 -103.5
t98 -39.5z" />
    <glyph glyph-name="OE" unicode="&#x152;" horiz-adv-x="904" 
d="M569 81h295v-81h-377q-43 -13 -93 -13q-150 0 -247.5 102t-97.5 251q0 150 96.5 251.5t248.5 101.5q51 0 93 -13h368v-81h-286v-213h255v-78h-255v-227zM484 85v511q-45 15 -87 15q-115 0 -186 -77.5t-71 -193.5q0 -115 72 -192.5t185 -77.5q47 0 87 15z" />
    <glyph glyph-name="oe" unicode="&#x153;" horiz-adv-x="801" 
d="M578 420q86 0 137 -53t51 -151q0 -27 -2 -41h-305q9 -55 45 -85t88 -30q65 0 117 41l39 -54q-73 -58 -155 -58q-60 0 -106 25t-67 69q-50 -94 -170 -94q-94 0 -152.5 61.5t-58.5 156.5q0 92 58.5 152.5t152.5 60.5q121 0 170 -94q19 41 61 67.5t97 26.5zM581 350
q-51 0 -83 -30.5t-40 -81.5h229q2 49 -27.5 80.5t-78.5 31.5zM255 63q60 0 95 40t35 103q0 62 -35 101t-95 39q-62 0 -97.5 -39t-35.5 -101q0 -63 36 -103t97 -40z" />
    <glyph glyph-name="Racute" unicode="&#x154;" horiz-adv-x="621" 
d="M407 856l-151 -102l-40 45l138 118zM403 279l184 -276v-3h-104l-176 272h-128v-272h-90v680h262q95 0 159 -58.5t64 -146.5q0 -74 -46 -127t-125 -69zM179 351h165q66 0 103 33t37 90q0 54 -38.5 90t-98.5 36h-168v-249z" />
    <glyph glyph-name="racute" unicode="&#x155;" horiz-adv-x="342" 
d="M291 600l-147 -100l-38 44l134 114zM265 419q37 0 69 -15l-23 -71q-23 9 -51 9q-50 0 -79 -30t-29 -84v-228h-83v409h58l18 -57q39 67 120 67z" />
    <glyph glyph-name="uni0156" unicode="&#x156;" horiz-adv-x="621" 
d="M403 279l184 -276v-3h-104l-176 272h-128v-272h-90v680h262q95 0 159 -58.5t64 -146.5q0 -74 -46 -127t-125 -69zM179 351h165q66 0 103 33t37 90q0 54 -38.5 90t-98.5 36h-168v-249zM249 -283q29 91 29 182h85q-9 -110 -53 -182h-61z" />
    <glyph glyph-name="uni0157" unicode="&#x157;" horiz-adv-x="342" 
d="M265 419q37 0 69 -15l-23 -71q-23 9 -51 9q-50 0 -79 -30t-29 -84v-228h-83v409h58l18 -57q39 67 120 67zM36 -278q29 89 29 179h83q-9 -108 -52 -179h-60z" />
    <glyph glyph-name="Rcaron" unicode="&#x158;" horiz-adv-x="621" 
d="M316 748h-18l-133 107l33 42l108 -72l110 72l35 -43zM403 279l184 -276v-3h-104l-176 272h-128v-272h-90v680h262q95 0 159 -58.5t64 -146.5q0 -74 -46 -127t-125 -69zM179 351h165q66 0 103 33t37 90q0 54 -38.5 90t-98.5 36h-168v-249z" />
    <glyph glyph-name="rcaron" unicode="&#x159;" horiz-adv-x="342" 
d="M202 496h-17l-112 104l32 42l88 -71l90 71l34 -42zM265 419q37 0 69 -15l-23 -71q-23 9 -51 9q-50 0 -79 -30t-29 -84v-228h-83v409h58l18 -57q39 67 120 67z" />
    <glyph glyph-name="Sacute" unicode="&#x15a;" horiz-adv-x="565" 
d="M239 754l-40 45l138 118l53 -61zM289 -13q-140 0 -241 83l45 71q82 -72 195 -72q59 0 101 29.5t42 80.5q0 27 -12 48t-37.5 36.5t-48 25.5t-59.5 22q-93 32 -149 79.5t-56 124.5q0 82 62.5 130t153.5 48q115 0 213 -70l-40 -67q-83 55 -168 55q-53 0 -91 -24t-38 -67
q0 -26 11.5 -46.5t37 -36t45.5 -24.5t57 -22q47 -16 81.5 -33t65.5 -41.5t47 -58t16 -75.5q0 -90 -66.5 -143t-166.5 -53z" />
    <glyph glyph-name="sacute" unicode="&#x15b;" horiz-adv-x="374" 
d="M136 500l-38 44l134 114l51 -58zM192 -9q-85 0 -156 46l34 58q57 -34 119 -34q32 0 51 13.5t19 36.5q0 16 -14 30t-28 20.5t-38 15.5q-5 2 -8 3q-120 44 -120 126q0 52 40.5 80.5t101.5 28.5q68 0 129 -37l-31 -55q-45 24 -93 24q-67 0 -67 -41q0 -37 77 -64
q61 -20 96 -50t35 -81q0 -53 -41 -86.5t-106 -33.5z" />
    <glyph glyph-name="Scircumflex" unicode="&#x15c;" horiz-adv-x="565" 
d="M182 744l-35 44l135 106h17l134 -107l-33 -43l-109 72zM289 -13q-140 0 -241 83l45 71q82 -72 195 -72q59 0 101 29.5t42 80.5q0 27 -12 48t-37.5 36.5t-48 25.5t-59.5 22q-93 32 -149 79.5t-56 124.5q0 82 62.5 130t153.5 48q115 0 213 -70l-40 -67q-83 55 -168 55
q-53 0 -91 -24t-38 -67q0 -26 11.5 -46.5t37 -36t45.5 -24.5t57 -22q47 -16 81.5 -33t65.5 -41.5t47 -58t16 -75.5q0 -90 -66.5 -143t-166.5 -53z" />
    <glyph glyph-name="scircumflex" unicode="&#x15d;" horiz-adv-x="374" 
d="M98 489l-34 42l114 103h17l113 -104l-32 -41l-89 71zM192 -9q-85 0 -156 46l34 58q57 -34 119 -34q32 0 51 13.5t19 36.5q0 16 -14 30t-28 20.5t-38 15.5q-5 2 -8 3q-120 44 -120 126q0 52 40.5 80.5t101.5 28.5q68 0 129 -37l-31 -55q-45 24 -93 24q-67 0 -67 -41
q0 -37 77 -64q61 -20 96 -50t35 -81q0 -53 -41 -86.5t-106 -33.5z" />
    <glyph glyph-name="Scedilla" unicode="&#x15e;" horiz-adv-x="565" 
d="M522 183q0 -79 -52.5 -130t-136.5 -63l-19 -42q40 -4 66 -25t26 -57q0 -41 -32.5 -63.5t-81.5 -22.5q-64 0 -107 28l25 51q33 -22 74 -22q51 0 51 34q0 46 -100 44l31 73q-127 8 -218 82l45 71q82 -72 195 -72q59 0 101 29.5t42 80.5q0 27 -12 48t-37.5 36.5t-48 25.5
t-59.5 22q-93 32 -149 79.5t-56 124.5q0 82 62.5 130t153.5 48q115 0 213 -70l-40 -67q-83 55 -168 55q-53 0 -91 -24t-38 -67q0 -26 11.5 -46.5t37 -36t45.5 -24.5t57 -22q47 -16 81.5 -33t65.5 -41.5t47 -58t16 -75.5z" />
    <glyph glyph-name="scedilla" unicode="&#x15f;" horiz-adv-x="374" 
d="M339 111q0 -46 -31 -77.5t-83 -39.5l-19 -47q39 -5 63 -24.5t24 -53.5q0 -39 -30.5 -60.5t-76.5 -21.5q-59 0 -101 27l24 47q32 -20 70 -20q49 0 49 32q0 44 -96 42l33 77q-68 6 -129 45l34 58q57 -34 119 -34q32 0 51 13.5t19 36.5q0 16 -14 30t-28 20.5t-38 15.5
q-5 2 -8 3q-120 44 -120 126q0 52 40.5 80.5t101.5 28.5q68 0 129 -37l-31 -55q-45 24 -93 24q-67 0 -67 -41q0 -37 77 -64q61 -20 96 -50t35 -81z" />
    <glyph glyph-name="Scaron" unicode="&#x160;" horiz-adv-x="565" 
d="M281 748l-133 107l33 42l108 -72l110 72l35 -43l-135 -106h-18zM289 -13q-140 0 -241 83l45 71q82 -72 195 -72q59 0 101 29.5t42 80.5q0 27 -12 48t-37.5 36.5t-48 25.5t-59.5 22q-93 32 -149 79.5t-56 124.5q0 82 62.5 130t153.5 48q115 0 213 -70l-40 -67
q-83 55 -168 55q-53 0 -91 -24t-38 -67q0 -26 11.5 -46.5t37 -36t45.5 -24.5t57 -22q47 -16 81.5 -33t65.5 -41.5t47 -58t16 -75.5q0 -90 -66.5 -143t-166.5 -53z" />
    <glyph glyph-name="scaron" unicode="&#x161;" horiz-adv-x="374" 
d="M178 496l-112 104l32 42l88 -71l90 71l34 -42l-115 -104h-17zM192 -9q-85 0 -156 46l34 58q57 -34 119 -34q32 0 51 13.5t19 36.5q0 16 -14 30t-28 20.5t-38 15.5q-5 2 -8 3q-120 44 -120 126q0 52 40.5 80.5t101.5 28.5q68 0 129 -37l-31 -55q-45 24 -93 24
q-67 0 -67 -41q0 -37 77 -64q61 -20 96 -50t35 -81q0 -53 -41 -86.5t-106 -33.5z" />
    <glyph glyph-name="uni0162" unicode="&#x162;" horiz-adv-x="528" 
d="M309 0h-11l-22 -52q39 -4 65 -24.5t26 -55.5q0 -42 -32 -65t-81 -23q-64 0 -108 28l26 51q31 -22 73 -22q51 0 51 35q0 45 -100 43l36 85h-13v597h-200v83h491v-83h-201v-597z" />
    <glyph glyph-name="uni0163" unicode="&#x163;" horiz-adv-x="341" 
d="M221 -53q39 -5 63 -24.5t24 -53.5q0 -39 -30.5 -60.5t-76.5 -21.5q-59 0 -101 27l24 47q32 -20 70 -20q49 0 49 32q0 44 -96 42l34 79q-86 18 -86 129v216l-77 4v66h77l1 145h81v-145h137v-70h-137v-212q0 -60 48 -60q41 0 76 23l31 -60q-45 -31 -92 -37z" />
    <glyph glyph-name="Tcaron" unicode="&#x164;" horiz-adv-x="528" 
d="M273 748h-18l-133 107l33 42l108 -72l110 72l35 -43zM510 680v-83h-201v-597h-90v597h-200v83h491z" />
    <glyph glyph-name="tcaron" unicode="&#x165;" horiz-adv-x="333" 
d="M226 491q27 81 27 164h81q-9 -101 -51 -164h-57zM207 -9q-51 0 -81.5 32.5t-30.5 99.5v214l-77 4v68h77l1 145h82v-145h137v-72h-137v-210q0 -61 44 -61q37 0 70 25l32 -61q-55 -39 -117 -39z" />
    <glyph glyph-name="Tbar" unicode="&#x166;" horiz-adv-x="528" 
d="M510 597h-201v-234h126v-63h-126v-300h-90v300h-126v63h126v234h-200v83h491v-83z" />
    <glyph glyph-name="tbar" unicode="&#x167;" horiz-adv-x="333" 
d="M292 89l32 -59q-55 -39 -117 -39q-51 0 -81.5 32.5t-30.5 99.5v60h-43v51h43v107l-77 4v64h77l1 145h82v-145h137v-68h-137v-107h97v-51h-97v-58q0 -60 46 -60q36 0 68 24z" />
    <glyph glyph-name="Utilde" unicode="&#x168;" horiz-adv-x="696" 
d="M257 769l-54 31q32 79 87 79q30 0 70 -20q30 -15 42 -15q22 0 38 34l54 -30q-32 -77 -86 -77q-28 0 -61 17q-36 17 -49 17q-25 0 -41 -36zM349 -13q-117 0 -192 66.5t-75 185.5v441h90v-437q0 -85 47.5 -129t129.5 -44q80 0 127.5 44t47.5 129v437h90v-441
q0 -119 -74.5 -185.5t-190.5 -66.5z" />
    <glyph glyph-name="utilde" unicode="&#x169;" horiz-adv-x="491" 
d="M161 519l-51 29q30 73 80 73q28 0 61 -18q29 -16 42 -16q20 0 34 32l51 -28q-30 -71 -80 -71q-26 0 -55 16q-32 17 -45 17q-23 0 -37 -34zM340 409h82v-409h-60l-17 63q-46 -71 -132 -71q-73 0 -111.5 44.5t-38.5 122.5v250h83v-245q0 -98 84 -98q51 0 80.5 40.5
t29.5 97.5v205z" />
    <glyph glyph-name="Umacron" unicode="&#x16a;" horiz-adv-x="696" 
d="M211 775v70h273v-70h-273zM349 -13q-117 0 -192 66.5t-75 185.5v441h90v-437q0 -85 47.5 -129t129.5 -44q80 0 127.5 44t47.5 129v437h90v-441q0 -119 -74.5 -185.5t-190.5 -66.5z" />
    <glyph glyph-name="umacron" unicode="&#x16b;" horiz-adv-x="491" 
d="M116 523v65h255v-65h-255zM340 409h82v-409h-60l-17 63q-46 -71 -132 -71q-73 0 -111.5 44.5t-38.5 122.5v250h83v-245q0 -98 84 -98q51 0 80.5 40.5t29.5 97.5v205z" />
    <glyph glyph-name="Ubreve" unicode="&#x16c;" horiz-adv-x="696" 
d="M350 747q-51 0 -88 29t-49 83l58 17q7 -28 29.5 -44.5t49.5 -16.5t49.5 16.5t29.5 44.5l58 -17q-12 -54 -49.5 -83t-87.5 -29zM349 -13q-117 0 -192 66.5t-75 185.5v441h90v-437q0 -85 47.5 -129t129.5 -44q80 0 127.5 44t47.5 129v437h90v-441q0 -119 -74.5 -185.5
t-190.5 -66.5z" />
    <glyph glyph-name="ubreve" unicode="&#x16d;" horiz-adv-x="491" 
d="M244 496q-45 0 -78 27.5t-44 79.5l54 17q7 -27 25.5 -43t42.5 -16q23 0 42 16t25 43l55 -17q-12 -52 -45 -79.5t-77 -27.5zM340 409h82v-409h-60l-17 63q-46 -71 -132 -71q-73 0 -111.5 44.5t-38.5 122.5v250h83v-245q0 -98 84 -98q51 0 80.5 40.5t29.5 97.5v205z" />
    <glyph glyph-name="Uring" unicode="&#x16e;" horiz-adv-x="696" 
d="M351 725q-46 0 -79.5 27.5t-33.5 75.5q0 49 32.5 76.5t78.5 27.5t78.5 -27.5t32.5 -76.5q0 -48 -32 -75.5t-77 -27.5zM350 775q22 0 37.5 14t15.5 39q0 26 -16 40t-38 14t-37.5 -14t-15.5 -40q0 -25 16 -39t38 -14zM349 -13q-117 0 -192 66.5t-75 185.5v441h90v-437
q0 -85 47.5 -129t129.5 -44q80 0 127.5 44t47.5 129v437h90v-441q0 -119 -74.5 -185.5t-190.5 -66.5z" />
    <glyph glyph-name="uring" unicode="&#x16f;" horiz-adv-x="491" 
d="M244 476q-44 0 -75 26t-31 72t31 71.5t75 25.5t74.5 -25.5t30.5 -71.5t-30.5 -72t-74.5 -26zM244 524q21 0 35 13t14 37t-14 37t-35 13t-36 -13.5t-15 -36.5q0 -24 15 -37t36 -13zM340 409h82v-409h-60l-17 63q-46 -71 -132 -71q-73 0 -111.5 44.5t-38.5 122.5v250h83
v-245q0 -98 84 -98q51 0 80.5 40.5t29.5 97.5v205z" />
    <glyph glyph-name="Uhungarumlaut" unicode="&#x170;" horiz-adv-x="696" 
d="M258 743l-50 33l97 146l66 -43zM420 743l-50 34l101 145l65 -45zM349 -13q-117 0 -192 66.5t-75 185.5v441h90v-437q0 -85 47.5 -129t129.5 -44q80 0 127.5 44t47.5 129v437h90v-441q0 -119 -74.5 -185.5t-190.5 -66.5z" />
    <glyph glyph-name="uhungarumlaut" unicode="&#x171;" horiz-adv-x="491" 
d="M155 489l-49 33l96 144l65 -43zM316 489l-49 33l99 144l64 -44zM340 409h82v-409h-60l-17 63q-46 -71 -132 -71q-73 0 -111.5 44.5t-38.5 122.5v250h83v-245q0 -98 84 -98q51 0 80.5 40.5t29.5 97.5v205z" />
    <glyph glyph-name="Uogonek" unicode="&#x172;" horiz-adv-x="696" 
d="M524 680h90v-441q0 -137 -100 -206q-108 -93 -108 -148q0 -33 37 -33q21 0 46 16l21 -64q-37 -25 -88 -25q-49 0 -75.5 24t-26.5 64q0 57 59 121q-10 -1 -30 -1q-117 0 -192 66.5t-75 185.5v441h90v-437q0 -85 47.5 -129t129.5 -44q80 0 127.5 44t47.5 129v437z" />
    <glyph glyph-name="uogonek" unicode="&#x173;" horiz-adv-x="491" 
d="M422 -132l22 -57q-35 -25 -85 -25q-46 0 -71 23.5t-25 59.5q0 66 94 150l-12 44q-46 -71 -132 -71q-73 0 -111.5 44.5t-38.5 122.5v250h83v-245q0 -98 84 -98q51 0 80.5 40.5t29.5 97.5v205h82v-409q-83 -67 -83 -116q0 -32 38 -32q22 0 45 16z" />
    <glyph glyph-name="Wcircumflex" unicode="&#x174;" horiz-adv-x="960" 
d="M479 816l-109 -72l-35 44l135 106h17l134 -107l-33 -43zM848 680h94v-3l-236 -682h-27l-170 397q-15 33 -30 81q-15 -51 -28 -81l-170 -397h-27l-236 682v3h95l132 -394q25 -74 33 -108q17 60 39 107l150 358h24l144 -339q28 -68 47 -128q12 43 38 121z" />
    <glyph glyph-name="wcircumflex" unicode="&#x175;" horiz-adv-x="616" 
d="M308 560l-89 -71l-34 42l114 103h17l113 -104l-32 -41zM516 409h85v-2l-149 -412h-25l-119 249l-120 -249h-25l-148 412v2h85l72 -211q2 -6 6.5 -21l7.5 -25q1 4 20 47l93 188h18l93 -188q10 -18 21 -47q5 20 13 47z" />
    <glyph glyph-name="Ycircumflex" unicode="&#x176;" horiz-adv-x="629" 
d="M314 816l-109 -72l-35 44l135 106h17l134 -107l-33 -43zM508 680h104v-3l-252 -376v-301h-91v301l-252 376v3h104l137 -207q40 -61 57 -97q22 45 56 97z" />
    <glyph glyph-name="ycircumflex" unicode="&#x177;" horiz-adv-x="446" 
d="M223 560l-89 -71l-34 42l114 103h17l113 -104l-32 -41zM352 409h85v-2l-255 -627h-86v2l94 220l-179 405v2h86l105 -244q16 -39 28 -77q9 33 26 77z" />
    <glyph glyph-name="Ydieresis" unicode="&#x178;" horiz-adv-x="629" 
d="M217 774q-24 0 -39 15.5t-15 36.5q0 22 14.5 38.5t39.5 16.5q24 0 39 -16t15 -37q0 -22 -14.5 -38t-39.5 -16zM410 774q-24 0 -39 16t-15 37t15 37.5t39 16.5q25 0 39.5 -16.5t14.5 -37.5t-15 -37t-39 -16zM508 680h104v-3l-252 -376v-301h-91v301l-252 376v3h104
l137 -207q40 -61 57 -97q16 33 56 97z" />
    <glyph glyph-name="Zacute" unicode="&#x179;" horiz-adv-x="574" 
d="M238 754l-40 45l138 118l53 -61zM39 0v27l313 499q6 10 21.5 34.5t24.5 37.5q-24 -1 -75 -1h-266v83h473v-27l-318 -508q-40 -61 -41 -63q23 1 65 1h300v-83h-497z" />
    <glyph glyph-name="zacute" unicode="&#x17a;" horiz-adv-x="388" 
d="M292 600l-147 -100l-38 44l134 114zM227 73h127v-73h-318v22l174 279l22 37q-22 -1 -42 -1h-141v72h303v-22l-153 -245q-25 -41 -46 -69h74z" />
    <glyph glyph-name="Zdotaccent" unicode="&#x17b;" horiz-adv-x="574" 
d="M290 771q-26 0 -41 16.5t-15 39.5t15 40t41 17q27 0 42.5 -17t15.5 -41q0 -23 -15.5 -39t-42.5 -16zM39 0v27l313 499q6 10 21.5 34.5t24.5 37.5q-24 -1 -75 -1h-266v83h473v-27l-318 -508q-40 -61 -41 -63q23 1 65 1h300v-83h-497z" />
    <glyph glyph-name="zdotaccent" unicode="&#x17c;" horiz-adv-x="388" 
d="M196 517q-24 0 -39.5 15.5t-15.5 38.5q0 25 15.5 40.5t39.5 15.5q25 0 40.5 -15.5t15.5 -40.5q0 -24 -16 -39t-40 -15zM227 73h127v-73h-318v22l174 279q14 24 23 37q-23 -1 -43 -1h-141v72h303v-22l-153 -245q-24 -40 -46 -70q28 1 74 1z" />
    <glyph glyph-name="Zcaron" unicode="&#x17d;" horiz-adv-x="574" 
d="M281 748l-133 107l33 42l108 -72l110 72l35 -43l-135 -106h-18zM39 0v27l313 499q6 10 21.5 34.5t24.5 37.5q-24 -1 -75 -1h-266v83h473v-27l-318 -508q-40 -61 -41 -63q23 1 65 1h300v-83h-497z" />
    <glyph glyph-name="zcaron" unicode="&#x17e;" horiz-adv-x="388" 
d="M204 496h-17l-112 104l32 42l88 -71l90 71l34 -42zM227 73h127v-73h-318v22l174 279l22 37q-22 -1 -42 -1h-141v72h303v-22l-153 -245q-25 -41 -46 -69h74z" />
    <glyph glyph-name="florin" unicode="&#x192;" horiz-adv-x="471" 
d="M382 588q-74 0 -83 -97l-10 -91h126l-8 -80h-126l-33 -316q-9 -89 -53.5 -132t-115.5 -43q-62 0 -104 36l36 69q26 -22 63 -22q74 0 83 98l33 311l-118 3l7 76h119l10 96q9 84 54 129.5t115 45.5q62 0 104 -36l-36 -69q-26 22 -63 22z" />
    <glyph glyph-name="AEacute" unicode="&#x1fc;" horiz-adv-x="864" 
d="M655 856l-151 -102l-40 45l138 118zM523 81h301v-81h-387v141h-249l-91 -141h-101v3l444 677h374v-81h-291v-211h257v-78h-257v-229zM235 216h202v212v108q-18 -37 -41 -71z" />
    <glyph glyph-name="aeacute" unicode="&#x1fd;" horiz-adv-x="688" 
d="M437 600l-147 -100l-38 44l134 114zM485 415q81 0 124.5 -52.5t43.5 -141.5q0 -27 -2 -41h-288q6 -54 41 -88t89 -34q60 0 105 42l39 -53q-66 -58 -148 -58q-115 0 -163 91q-31 -48 -69 -68.5t-94 -20.5q-54 0 -90 31.5t-36 86.5q0 71 59 104.5t144 33.5q31 0 51 -2v25
q0 41 -20 57.5t-61 16.5q-67 0 -127 -33l-24 65q78 39 159 39q96 0 122 -64q42 64 145 64zM365 242h212q0 47 -25.5 75.5t-70.5 28.5q-99 0 -116 -104zM180 60q46 0 78.5 34.5t33.5 91.5q-17 2 -46 2q-126 0 -126 -74q0 -24 16 -39t44 -15z" />
    <glyph glyph-name="Oslashacute" unicode="&#x1fe;" horiz-adv-x="795" 
d="M497 856l-151 -102l-40 45l138 118zM627 614q119 -100 119 -273q0 -149 -98 -251.5t-250 -102.5q-98 0 -176 45l-56 -80l-52 37l56 80q-57 48 -89 119t-32 153q0 153 98 252.5t251 99.5q99 0 177 -43l68 98l52 -36zM140 341q0 -123 81 -201l307 439q-56 32 -130 32
q-115 0 -186.5 -76t-71.5 -194zM398 70q114 0 185.5 78.5t71.5 192.5q0 128 -80 203l-306 -441q58 -33 129 -33z" />
    <glyph glyph-name="oslashacute" unicode="&#x1ff;" horiz-adv-x="515" 
d="M354 600l-147 -100l-38 44l134 114zM401 373q75 -61 75 -168q0 -95 -61 -156t-157 -61q-59 0 -105 23l-35 -51l-39 27l35 50q-75 61 -75 168q0 95 61 155.5t158 60.5q57 0 103 -23l37 53l38 -27zM258 348q-60 0 -98 -40t-38 -103q0 -64 39 -105l159 234q-28 14 -62 14z
M258 61q60 0 97.5 40t37.5 104t-38 104l-160 -234q28 -14 63 -14z" />
    <glyph glyph-name="uni0218" unicode="&#x218;" horiz-adv-x="565" 
d="M289 -13q-140 0 -241 83l45 71q82 -72 195 -72q59 0 101 29.5t42 80.5q0 27 -12 48t-37.5 36.5t-48 25.5t-59.5 22q-93 32 -149 79.5t-56 124.5q0 82 62.5 130t153.5 48q115 0 213 -70l-40 -67q-83 55 -168 55q-53 0 -91 -24t-38 -67q0 -26 11.5 -46.5t37 -36t45.5 -24.5
t57 -22q47 -16 81.5 -33t65.5 -41.5t47 -58t16 -75.5q0 -90 -66.5 -143t-166.5 -53zM221 -283q29 91 29 182h85q-9 -110 -53 -182h-61z" />
    <glyph glyph-name="uni0219" unicode="&#x219;" horiz-adv-x="374" 
d="M192 -9q-85 0 -156 46l34 58q57 -34 119 -34q32 0 51 13.5t19 36.5q0 16 -14 30t-28 20.5t-38 15.5q-5 2 -8 3q-120 44 -120 126q0 52 40.5 80.5t101.5 28.5q68 0 129 -37l-31 -55q-45 24 -93 24q-67 0 -67 -41q0 -37 77 -64q61 -20 96 -50t35 -81q0 -53 -41 -86.5
t-106 -33.5zM122 -278q29 89 29 179h83q-9 -108 -52 -179h-60z" />
    <glyph glyph-name="uni021A" unicode="&#x21a;" horiz-adv-x="528" 
d="M510 680v-83h-201v-597h-90v597h-200v83h491zM193 -283q29 91 29 182h85q-9 -110 -53 -182h-61z" />
    <glyph glyph-name="uni021B" unicode="&#x21b;" horiz-adv-x="341" 
d="M213 -9q-55 0 -86.5 32t-31.5 100v216l-77 4v66h77l1 145h81v-145h137v-70h-137v-212q0 -60 48 -60q41 0 76 23l31 -60q-55 -39 -119 -39zM137 -278q29 89 29 179h83q-9 -108 -52 -179h-60z" />
    <glyph glyph-name="uni0237" unicode="&#x237;" horiz-adv-x="225" 
d="M-34 -231l-11 71q72 5 95 36t23 103v430h83v-424q0 -109 -41 -159.5t-149 -56.5z" />
    <glyph glyph-name="circumflex" unicode="&#x2c6;" horiz-adv-x="367" 
d="M97 489l-34 42l114 103h17l113 -104l-32 -41l-89 71z" />
    <glyph glyph-name="caron" unicode="&#x2c7;" horiz-adv-x="368" 
d="M176 496l-112 104l32 42l88 -71l90 71l34 -42l-115 -104h-17z" />
    <glyph glyph-name="breve" unicode="&#x2d8;" horiz-adv-x="366" 
d="M183 496q-45 0 -78 27.5t-44 79.5l54 17q7 -27 25.5 -43t42.5 -16q23 0 42 16t25 43l55 -17q-12 -52 -45 -79.5t-77 -27.5z" />
    <glyph glyph-name="dotaccent" unicode="&#x2d9;" horiz-adv-x="219" 
d="M107 517q-24 0 -39.5 15.5t-15.5 38.5q0 25 15.5 40.5t39.5 15.5q25 0 40.5 -15.5t15.5 -40.5q0 -24 -16 -39t-40 -15z" />
    <glyph glyph-name="ring" unicode="&#x2da;" horiz-adv-x="294" 
d="M148 476q-44 0 -75 26t-31 72t31 71.5t75 25.5t74.5 -25.5t30.5 -71.5t-30.5 -72t-74.5 -26zM148 524q21 0 35 13t14 37t-14 37t-35 13t-36 -13.5t-15 -36.5q0 -24 15 -37t36 -13z" />
    <glyph glyph-name="ogonek" unicode="&#x2db;" horiz-adv-x="249" 
d="M135 -214q-46 0 -71 23.5t-25 59.5q0 70 106 161l53 -30q-83 -67 -83 -116q0 -32 38 -32q22 0 45 16l22 -57q-35 -25 -85 -25z" />
    <glyph glyph-name="tilde" unicode="&#x2dc;" horiz-adv-x="378" 
d="M106 519l-51 29q30 73 80 73q28 0 61 -18q29 -16 42 -16q20 0 34 32l51 -28q-30 -71 -80 -71q-26 0 -55 16q-32 17 -45 17q-23 0 -37 -34z" />
    <glyph glyph-name="hungarumlaut" unicode="&#x2dd;" horiz-adv-x="391" 
d="M87 489l-49 33l96 144l65 -43zM248 489l-49 33l99 144l64 -44z" />
    <glyph glyph-name="gravecomb" unicode="&#x300;" 
d="M-77 500l-148 99l52 59l134 -115z" />
    <glyph glyph-name="acutecomb" unicode="&#x301;" 
d="M-196 500l-38 44l134 114l51 -58z" />
    <glyph glyph-name="uni0302" unicode="&#x302;" 
d="M-270 489l-34 42l114 103h17l113 -104l-32 -41l-89 71z" />
    <glyph glyph-name="tildecomb" unicode="&#x303;" 
d="M-272 519l-51 29q30 73 80 73q28 0 61 -18q29 -16 42 -16q20 0 34 32l51 -28q-30 -71 -80 -71q-26 0 -55 16q-32 17 -45 17q-23 0 -37 -34z" />
    <glyph glyph-name="uni0304" unicode="&#x304;" 
d="M-321 523v65h255v-65h-255z" />
    <glyph glyph-name="uni0306" unicode="&#x306;" 
d="M-183 496q-45 0 -78 27.5t-44 79.5l54 17q7 -27 25.5 -43t42.5 -16q23 0 42 16t25 43l55 -17q-12 -52 -45 -79.5t-77 -27.5z" />
    <glyph glyph-name="uni0307" unicode="&#x307;" 
d="M-112 517q-24 0 -39.5 15.5t-15.5 38.5q0 25 15.5 40.5t39.5 15.5q25 0 40.5 -15.5t15.5 -40.5q0 -24 -16 -39t-40 -15z" />
    <glyph glyph-name="uni0308" unicode="&#x308;" 
d="M-280 522q-22 0 -36.5 15t-14.5 35q0 21 13.5 36.5t37.5 15.5q23 0 37 -15.5t14 -35.5t-14 -35.5t-37 -15.5zM-119 522q-23 0 -37 15t-14 35q0 21 14 36.5t37 15.5t37 -15.5t14 -36.5q0 -20 -14 -35t-37 -15z" />
    <glyph glyph-name="uni030A" unicode="&#x30a;" 
d="M-146 476q-44 0 -75 26t-31 72t31 71.5t75 25.5t74.5 -25.5t30.5 -71.5t-30.5 -72t-74.5 -26zM-146 524q21 0 35 13t14 37t-14 37t-35 13t-36 -13.5t-15 -36.5q0 -24 15 -37t36 -13z" />
    <glyph glyph-name="uni030B" unicode="&#x30b;" 
d="M-304 489l-49 33l96 144l65 -43zM-143 489l-49 33l99 144l64 -44z" />
    <glyph glyph-name="uni030C" unicode="&#x30c;" 
d="M-192 496l-112 104l32 42l88 -71l90 71l34 -42l-115 -104h-17z" />
    <glyph glyph-name="uni0312" unicode="&#x312;" 
d="M-159 501q9 106 53 179h59q-28 -91 -28 -179h-84z" />
    <glyph glyph-name="uni0326" unicode="&#x326;" 
d="M-159 -278q29 89 29 179h83q-9 -108 -52 -179h-60z" />
    <glyph glyph-name="uni0327" unicode="&#x327;" 
d="M-150 -213q-59 0 -101 27l24 47q32 -20 70 -20q49 0 49 32q0 44 -96 42l36 83h59l-21 -51q39 -5 63 -24.5t24 -53.5q0 -39 -30.5 -60.5t-76.5 -21.5z" />
    <glyph glyph-name="uni0328" unicode="&#x328;" 
d="M-114 -214q-46 0 -71 23.5t-25 59.5q0 70 106 161l53 -30q-83 -67 -83 -116q0 -32 38 -32q22 0 45 16l22 -57q-35 -25 -85 -25z" />
    <glyph glyph-name="pi" unicode="&#x3c0;" horiz-adv-x="553" 
d="M100 -4v340h-80v73h513v-73h-80v-340h-80v340h-193v-340h-80z" />
    <glyph glyph-name="uni0400" unicode="&#x400;" horiz-adv-x="556" 
d="M339 754l-152 101l54 62l138 -118zM179 81h336v-81h-426v680h417v-81h-327v-212h288v-79h-288v-227z" />
    <glyph glyph-name="uni0401" unicode="&#x401;" horiz-adv-x="556" 
d="M203 774q-24 0 -39 15.5t-15 36.5q0 22 14.5 38.5t39.5 16.5q24 0 39 -16t15 -37q0 -22 -14.5 -38t-39.5 -16zM396 774q-24 0 -39 16t-15 37t15 37.5t39 16.5q25 0 39.5 -16.5t14.5 -37.5t-15 -37t-39 -16zM179 81h336v-81h-426v680h417v-81h-327v-212h288v-79h-288v-227
z" />
    <glyph glyph-name="uni0402" unicode="&#x402;" horiz-adv-x="691" 
d="M426 422q102 0 157 -54t55 -159q0 -41 -16 -84t-57.5 -83t-99.5 -53l-19 76q103 33 103 151q0 126 -128 126q-66 0 -122 -22v-320h-90v597h-190v83h501v-83h-221v-197q60 22 127 22z" />
    <glyph glyph-name="uni0403" unicode="&#x403;" horiz-adv-x="522" 
d="M256 754l-40 45l138 118l53 -61zM89 0v680h416v-83h-326v-597h-90z" />
    <glyph glyph-name="uni0404" unicode="&#x404;" horiz-adv-x="691" 
d="M616 172l53 -61q-118 -122 -273 -122q-151 0 -249 102.5t-98 249.5q0 152 98 251t250 99q147 0 255 -106l-52 -57q-44 41 -90.5 60.5t-108.5 19.5q-106 0 -176.5 -63t-82.5 -165h297v-80h-296q13 -99 82 -163.5t171 -64.5q125 0 220 100z" />
    <glyph glyph-name="uni0405" unicode="&#x405;" horiz-adv-x="565" 
d="M289 -13q-140 0 -241 83l45 71q82 -72 195 -72q59 0 101 29.5t42 80.5q0 27 -12 48t-37.5 36.5t-48 25.5t-59.5 22q-93 32 -149 79.5t-56 124.5q0 82 62.5 130t153.5 48q115 0 213 -70l-40 -67q-83 55 -168 55q-53 0 -91 -24t-38 -67q0 -26 11.5 -46.5t37 -36t45.5 -24.5
t57 -22q47 -16 81.5 -33t65.5 -41.5t47 -58t16 -75.5q0 -90 -66.5 -143t-166.5 -53z" />
    <glyph glyph-name="uni0406" unicode="&#x406;" horiz-adv-x="269" 
d="M89 0v680h90v-680h-90z" />
    <glyph glyph-name="uni0407" unicode="&#x407;" horiz-adv-x="269" 
d="M37 757q-24 0 -39 15.5t-15 36.5q0 22 14.5 38.5t39.5 16.5t39.5 -15.5t14.5 -37.5q0 -21 -14.5 -37.5t-39.5 -16.5zM230 757q-24 0 -39 16t-15 37q0 22 15 38t39 16q26 0 40.5 -16t14.5 -38q0 -21 -15 -37t-40 -16zM89 0v680h90v-680h-90z" />
    <glyph glyph-name="uni0408" unicode="&#x408;" horiz-adv-x="498" 
d="M198 -13q-104 0 -188 62l43 71q65 -51 142 -51q64 0 97.5 37.5t33.5 110.5v463h90v-464q0 -112 -56 -170.5t-162 -58.5z" />
    <glyph glyph-name="uni0409" unicode="&#x409;" horiz-adv-x="974" 
d="M729 409q92 0 154.5 -58t62.5 -147q0 -88 -62.5 -146t-154.5 -58h-235v597h-206l-31 -280q-18 -166 -76 -243.5t-162 -79.5l-8 77q67 1 105 68.5t55 212.5l37 328h376v-271h145zM725 81q58 0 94.5 33t36.5 90q0 58 -36.5 91t-94.5 33h-141v-247h141z" />
    <glyph glyph-name="uni040A" unicode="&#x40a;" horiz-adv-x="988" 
d="M743 395q94 0 155.5 -56.5t61.5 -141.5q0 -84 -61.5 -140.5t-155.5 -56.5h-235v313h-329v-313h-90v680h90v-285h329v285h90v-285h145zM739 81q57 0 94 33.5t37 82.5q0 50 -37 84t-94 34h-141v-234h141z" />
    <glyph glyph-name="uni040B" unicode="&#x40b;" horiz-adv-x="698" 
d="M435 423q91 0 143.5 -49.5t52.5 -133.5v-240h-91v239q0 47 -31 75t-87 28q-65 0 -123 -23v-319h-90v597h-190v83h501v-83h-221v-194q67 20 136 20z" />
    <glyph glyph-name="uni040C" unicode="&#x40c;" horiz-adv-x="589" 
d="M445 856l-151 -102l-40 45l138 118zM267 342l316 -339v-3h-110l-294 314v-314h-90v680h90v-315l279 315h107v-3z" />
    <glyph glyph-name="uni040D" unicode="&#x40d;" horiz-adv-x="751" 
d="M476 799l-40 -45l-152 101l54 62zM635 685h27v-685h-90v414q0 47 3 95q-35 -45 -78 -91l-381 -423h-27v685h90v-410q0 -50 -3 -100q25 32 83 96z" />
    <glyph glyph-name="uni040E" unicode="&#x40e;" horiz-adv-x="614" 
d="M312 744q-110 0 -156 88l53 38q37 -57 103 -57q67 0 104 57l52 -38q-45 -88 -156 -88zM514 680h96l-223 -475q-57 -120 -113 -163.5t-167 -47.5l-6 79q69 1 108 24t69 74l-272 509h97l221 -414z" />
    <glyph glyph-name="uni040F" unicode="&#x40f;" horiz-adv-x="704" 
d="M615 680v-680h-219v-152h-88v152h-219v680h90v-597h346v597h90z" />
    <glyph glyph-name="uni0410" unicode="&#x410;" horiz-adv-x="681" 
d="M355 685l319 -683v-2h-95l-64 139h-349l-63 -139h-95v2l319 683h28zM341 532q-27 -69 -45 -109l-96 -207h281l-95 207q-19 42 -45 109z" />
    <glyph glyph-name="uni0411" unicode="&#x411;" horiz-adv-x="621" 
d="M89 0v680h429v-82h-339v-192h173q99 0 162 -58t63 -145t-63 -145t-162 -58h-263zM179 79h168q65 0 102.5 32.5t37.5 91.5q0 58 -37.5 90.5t-102.5 32.5h-168v-247z" />
    <glyph glyph-name="uni0412" unicode="&#x412;" horiz-adv-x="630" 
d="M474 359q50 -23 79.5 -68t29.5 -101q0 -85 -59.5 -137.5t-152.5 -52.5h-282v680h264q86 0 143 -49.5t57 -127.5q0 -93 -79 -144zM179 601v-209h166q56 0 87 28t31 79q0 48 -33.5 75t-87.5 27h-163zM362 79q58 0 94 31.5t36 86.5q0 53 -34.5 84.5t-91.5 31.5h-187v-234
h183z" />
    <glyph glyph-name="uni0413" unicode="&#x413;" horiz-adv-x="522" 
d="M89 0v680h416v-83h-326v-597h-90z" />
    <glyph glyph-name="uni0414" unicode="&#x414;" horiz-adv-x="693" 
d="M590 83h81v-235h-88v152h-493v-152h-88v235h78q58 118 73 259l36 338h401v-597zM240 322q-14 -122 -63 -239h324v514h-232z" />
    <glyph glyph-name="uni0415" unicode="&#x415;" horiz-adv-x="556" 
d="M179 81h336v-81h-426v680h417v-81h-327v-212h288v-79h-288v-227z" />
    <glyph glyph-name="uni0416" unicode="&#x416;" horiz-adv-x="843" 
d="M546 342l292 -339v-3h-107l-264 307v-307h-91v307l-264 -307h-107v3l292 339l-283 336v2h105l257 -307v307h91v-307l258 307h103v-3z" />
    <glyph glyph-name="uni0417" unicode="&#x417;" horiz-adv-x="559" 
d="M274 -10q-151 0 -249 93l46 63q79 -74 200 -74q65 0 107.5 34t42.5 91q0 55 -39 85.5t-103 30.5h-93v79h92q52 0 81.5 30t29.5 78q0 50 -37.5 79.5t-100.5 29.5q-88 0 -159 -59l-42 63q89 78 205 78q97 0 160.5 -53t63.5 -132q0 -50 -25 -89.5t-65 -57.5q58 -20 90 -64
t32 -105q0 -84 -66 -142t-171 -58z" />
    <glyph glyph-name="uni0418" unicode="&#x418;" horiz-adv-x="751" 
d="M635 685h27v-685h-90v414q0 47 3 95q-35 -45 -78 -91l-381 -423h-27v685h90v-410q0 -50 -3 -100q25 32 83 96z" />
    <glyph glyph-name="uni0419" unicode="&#x419;" horiz-adv-x="751" 
d="M398 744q-110 0 -156 88l53 38q37 -57 103 -57q67 0 104 57l52 -38q-45 -88 -156 -88zM635 685h27v-685h-90v414q0 47 3 95q-35 -45 -78 -91l-381 -423h-27v685h90v-410q0 -50 -3 -100q25 32 83 96z" />
    <glyph glyph-name="uni041A" unicode="&#x41a;" horiz-adv-x="589" 
d="M267 342l316 -339v-3h-110l-294 314v-314h-90v680h90v-315l279 315h107v-3z" />
    <glyph glyph-name="uni041B" unicode="&#x41b;" horiz-adv-x="704" 
d="M22 -6l-11 76q75 6 110.5 64.5t51.5 200.5l38 345h404v-680h-91v597h-237l-31 -279q-18 -166 -72 -241.5t-162 -82.5z" />
    <glyph glyph-name="uni041C" unicode="&#x41c;" horiz-adv-x="856" 
d="M708 686l98 -686h-89l-59 417q-7 36 -8 69q-10 -16 -40 -63l-173 -271h-19l-172 271q-29 45 -40 64q-1 -12 -9 -71l-58 -416h-89l98 686h27l209 -329q41 -67 44 -73q17 32 44 73l209 329h27z" />
    <glyph glyph-name="uni041D" unicode="&#x41d;" horiz-adv-x="735" 
d="M89 0v680h90v-296h376v296h90v-680h-90v301h-376v-301h-90z" />
    <glyph glyph-name="uni041E" unicode="&#x41e;" horiz-adv-x="795" 
d="M398 -13q-152 0 -250.5 102.5t-98.5 251.5q0 153 98 252.5t251 99.5q154 0 251 -99t97 -253q0 -149 -98 -251.5t-250 -102.5zM398 70q114 0 185.5 78.5t71.5 192.5q0 118 -71 193.5t-186 75.5t-186.5 -75.5t-71.5 -193.5q0 -114 72 -192.5t186 -78.5z" />
    <glyph glyph-name="uni041F" unicode="&#x41f;" horiz-adv-x="707" 
d="M89 0v680h529v-680h-90v597h-349v-597h-90z" />
    <glyph glyph-name="uni0420" unicode="&#x420;" horiz-adv-x="592" 
d="M89 0v680h255q102 0 161.5 -64.5t59.5 -147.5q0 -84 -58.5 -145t-165.5 -61h-162v-262h-90zM179 342h156q68 0 104 38t36 89q0 54 -37.5 92t-98.5 38h-160v-257z" />
    <glyph glyph-name="uni0421" unicode="&#x421;" horiz-adv-x="689" 
d="M396 -13q-153 0 -250 102.5t-97 251.5q0 153 98 252.5t250 99.5q77 0 137.5 -26t117.5 -81l-50 -58q-82 82 -204 82q-113 0 -185 -76.5t-72 -192.5q0 -115 71.5 -193t184.5 -78q131 0 208 106l62 -54q-45 -63 -114.5 -99t-156.5 -36z" />
    <glyph glyph-name="uni0422" unicode="&#x422;" horiz-adv-x="528" 
d="M510 680v-83h-201v-597h-90v597h-200v83h491z" />
    <glyph glyph-name="uni0423" unicode="&#x423;" horiz-adv-x="614" 
d="M514 680h96l-223 -475q-57 -120 -113 -163.5t-167 -47.5l-6 79q69 1 108 24t69 74l-272 509h97l221 -414z" />
    <glyph glyph-name="uni0424" unicode="&#x424;" horiz-adv-x="820" 
d="M780 350q0 -125 -87.5 -207t-239.5 -92v-105h-87v105q-152 11 -239.5 92.5t-87.5 206.5t87.5 206.5t239.5 92.5v105h87v-104q153 -11 240 -93t87 -207zM130 350q0 -92 62.5 -150.5t176.5 -67.5v436q-114 -9 -176.5 -67.5t-62.5 -150.5zM451 132q114 9 176.5 67.5
t62.5 150.5t-62.5 150.5t-176.5 67.5v-436z" />
    <glyph glyph-name="uni0425" unicode="&#x425;" horiz-adv-x="625" 
d="M14 0v2l245 351l-224 325v2h104l107 -155q50 -76 68 -106q43 71 68 108l105 153h103v-2l-224 -325l245 -351v-2h-105l-127 185q-57 87 -66 102q-23 -41 -67 -103l-128 -184h-104z" />
    <glyph glyph-name="uni0426" unicode="&#x426;" horiz-adv-x="725" 
d="M615 83h89v-235h-88v152h-527v680h90v-597h346v597h90v-597z" />
    <glyph glyph-name="uni0427" unicode="&#x427;" horiz-adv-x="641" 
d="M461 680h91v-680h-91v274q-85 -30 -168 -30q-241 0 -241 220v216h90v-209q0 -79 38.5 -112t116.5 -33q83 0 164 35v319z" />
    <glyph glyph-name="uni0428" unicode="&#x428;" horiz-adv-x="1007" 
d="M827 680h90v-680h-828v680h90v-597h279v597h90v-597h279v597z" />
    <glyph glyph-name="uni0429" unicode="&#x429;" horiz-adv-x="1028" 
d="M917 83h89v-235h-87v152h-830v680h90v-597h279v597h90v-597h279v597h90v-597z" />
    <glyph glyph-name="uni042A" unicode="&#x42a;" horiz-adv-x="706" 
d="M462 409q91 0 153.5 -58t62.5 -147q0 -88 -62.5 -146t-153.5 -58h-263v597h-181v83h271v-271h173zM457 81q58 0 94.5 33t36.5 90q0 58 -36.5 91t-94.5 33h-168v-247h168z" />
    <glyph glyph-name="uni042B" unicode="&#x42b;" horiz-adv-x="870" 
d="M89 0v680h90v-271h173q92 0 154.5 -58t62.5 -147q0 -88 -62.5 -146t-154.5 -58h-263zM691 0v680h90v-680h-90zM179 81h169q58 0 94.5 33t36.5 90q0 58 -36.5 91t-94.5 33h-169v-247z" />
    <glyph glyph-name="uni042C" unicode="&#x42c;" horiz-adv-x="597" 
d="M352 409q92 0 154.5 -58t62.5 -147q0 -88 -62.5 -146t-154.5 -58h-263v680h90v-271h173zM348 81q58 0 94.5 33t36.5 90q0 58 -36.5 91t-94.5 33h-169v-247h169z" />
    <glyph glyph-name="uni042D" unicode="&#x42d;" horiz-adv-x="691" 
d="M295 691q151 0 249 -99t98 -251q0 -147 -98 -249.5t-249 -102.5q-155 0 -273 122l53 61q95 -100 219 -100q103 0 172 64.5t82 163.5h-310v80h311q-12 102 -81.5 165t-174.5 63q-65 0 -111.5 -19.5t-90.5 -59.5l-50 58q104 104 254 104z" />
    <glyph glyph-name="uni042E" unicode="&#x42e;" horiz-adv-x="1032" 
d="M636 691q153 0 250 -98.5t97 -251.5q0 -149 -97.5 -250.5t-249.5 -101.5q-140 0 -235.5 88.5t-109.5 222.5h-112v-300h-90v680h90v-297h112q14 137 109 222.5t236 85.5zM636 72q113 0 184.5 78t71.5 191q0 117 -70.5 192t-185.5 75t-185.5 -75t-70.5 -192
q0 -113 71.5 -191t184.5 -78z" />
    <glyph glyph-name="uni042F" unicode="&#x42f;" horiz-adv-x="630" 
d="M275 680h266v-680h-91v274h-146l-180 -274h-102v3l185 278q-75 18 -116.5 71t-41.5 125q0 89 61.5 146t164.5 57zM450 353v247h-171q-65 0 -102.5 -33t-37.5 -91q0 -57 37.5 -90t102.5 -33h171z" />
    <glyph glyph-name="uni0430" unicode="&#x430;" horiz-adv-x="453" 
d="M222 415q78 0 123 -38.5t45 -107.5v-269h-56l-16 62q-55 -71 -151 -71q-59 0 -94.5 31t-35.5 85q0 67 55.5 106t148.5 39q47 0 66 -2v19q0 35 -25 55t-70 20q-58 0 -129 -33l-23 65q85 39 162 39zM187 59q54 0 86.5 35t35.5 96q-29 4 -53 4q-65 0 -100.5 -21.5
t-35.5 -58.5q0 -26 17.5 -40.5t49.5 -14.5z" />
    <glyph glyph-name="uni0431" unicode="&#x431;" horiz-adv-x="533" 
d="M292 419q85 0 144 -55.5t59 -155.5q0 -103 -61 -160t-156 -57q-102 0 -162 66t-60 198v68q0 80 33.5 161.5t106.5 127.5q49 30 116.5 50.5t101.5 42.5l32 -73q-38 -25 -105.5 -47t-100.5 -41q-90 -54 -105 -198q60 73 157 73zM278 63q64 0 99 41t35 103q0 58 -35.5 99
t-98.5 41q-59 0 -97 -40t-38 -103q0 -65 38 -103t97 -38z" />
    <glyph glyph-name="uni0432" unicode="&#x432;" horiz-adv-x="448" 
d="M337 210q73 -22 73 -97q0 -53 -37 -83t-97 -30h-207v409h192q58 0 94 -29.5t36 -78.5q0 -62 -54 -91zM249 345h-99v-107h99q31 0 46.5 15.5t15.5 40.5q0 21 -15.5 36t-46.5 15zM262 65q33 0 49.5 15t16.5 40t-16.5 40.5t-49.5 15.5h-112v-111h112z" />
    <glyph glyph-name="uni0433" unicode="&#x433;" horiz-adv-x="364" 
d="M69 0v409h275v-72h-192v-337h-83z" />
    <glyph glyph-name="uni0434" unicode="&#x434;" horiz-adv-x="487" 
d="M411 70h59v-179h-78v109h-300v-109h-77v179h54q29 49 37 131l19 208h286v-339zM199 339l-15 -151q-7 -71 -29 -119h176v270h-132z" />
    <glyph glyph-name="uni0435" unicode="&#x435;" horiz-adv-x="466" 
d="M250 421q84 0 132.5 -53.5t48.5 -145.5q0 -23 -3 -47h-306q8 -53 45.5 -84.5t92.5 -31.5q67 0 113 43l40 -56q-68 -58 -158 -58q-94 0 -155 61t-61 156q0 92 60.5 154t150.5 62zM248 350q-47 0 -81 -30.5t-44 -81.5h232q-3 55 -32 83.5t-75 28.5z" />
    <glyph glyph-name="uni0436" unicode="&#x436;" horiz-adv-x="588" 
d="M408 212l175 -207v-5h-93l-155 186v-186h-82v185l-156 -185h-91v5l173 207l-154 193v4h93l135 -177v177h82v-177l134 177h94v-4z" />
    <glyph glyph-name="uni0437" unicode="&#x437;" horiz-adv-x="390" 
d="M189 -9q-91 0 -163 46l32 61q54 -37 124 -37q44 0 65.5 17t21.5 44q0 58 -76 58h-78v65h76q29 0 45.5 14t16.5 37q0 21 -19 35.5t-56 14.5q-53 0 -105 -27l-27 61q70 35 139 35q65 0 107 -30t42 -82q0 -29 -15.5 -52.5t-43.5 -33.5q37 -10 57 -37t20 -63q0 -57 -45 -91.5
t-118 -34.5z" />
    <glyph glyph-name="uni0438" unicode="&#x438;" horiz-adv-x="496" 
d="M399 409h28v-409h-82v214q0 29 1 44q-16 -20 -37 -41l-212 -217h-28v409h82v-206q0 -34 -2 -50q23 25 45 48z" />
    <glyph glyph-name="uni0439" unicode="&#x439;" horiz-adv-x="496" 
d="M254 498q-87 0 -127 75l46 34q30 -49 81 -49q49 0 81 49l46 -34q-40 -75 -127 -75zM399 409h28v-409h-82v214q0 29 1 44q-16 -20 -37 -41l-212 -217h-28v409h82v-206q0 -34 -2 -50q23 25 45 48z" />
    <glyph glyph-name="uni043A" unicode="&#x43a;" horiz-adv-x="420" 
d="M221 211l194 -206v-5h-97l-166 177v-177h-83v409h83v-167l150 167h96v-4z" />
    <glyph glyph-name="uni043B" unicode="&#x43b;" horiz-adv-x="477" 
d="M15 -6l-10 71q56 6 75.5 38t24.5 100l17 206h286v-409h-82v337h-132l-9 -136q-8 -107 -45 -152t-125 -55z" />
    <glyph glyph-name="uni043C" unicode="&#x43c;" horiz-adv-x="576" 
d="M489 409l36 -409h-81l-16 191q-4 42 -4 63q-18 -27 -49 -64l-77 -99h-19l-77 98q-49 66 -50 68q0 -21 -4 -67l-16 -190h-81l37 409h25l143 -176q22 -28 32 -43q16 22 33 42l143 177h25z" />
    <glyph glyph-name="uni043D" unicode="&#x43d;" horiz-adv-x="495" 
d="M344 409h82v-409h-82v171h-192v-171h-83v409h83v-166h192v166z" />
    <glyph glyph-name="uni043E" unicode="&#x43e;" horiz-adv-x="515" 
d="M258 -12q-97 0 -158 61t-61 156t61 155.5t158 60.5q96 0 157 -60.5t61 -155.5t-61 -156t-157 -61zM258 62q60 0 97 39.5t37 103.5q0 63 -37 102.5t-97 39.5t-97.5 -39.5t-37.5 -102.5q0 -64 37 -103.5t98 -39.5z" />
    <glyph glyph-name="uni043F" unicode="&#x43f;" horiz-adv-x="494" 
d="M69 0v409h356v-409h-82v336h-191v-336h-83z" />
    <glyph glyph-name="uni0440" unicode="&#x440;" horiz-adv-x="540" 
d="M299 419q87 0 144 -60t57 -151q0 -98 -56 -158t-146 -60q-93 0 -149 64q3 -56 3 -127v-147h-83v629h58l18 -61q56 71 154 71zM286 63q58 0 94.5 39t36.5 101q0 64 -36.5 103.5t-94.5 39.5q-62 0 -100 -38t-38 -101q0 -66 38 -105t100 -39z" />
    <glyph glyph-name="uni0441" unicode="&#x441;" horiz-adv-x="431" 
d="M246 -12q-82 0 -144.5 58.5t-62.5 158.5q0 98 63 157t153 59q89 0 150 -57l-43 -54q-44 38 -105 38q-56 0 -95 -39t-39 -104t38 -104t95 -39q67 0 113 44l44 -56q-37 -33 -74 -47.5t-93 -14.5z" />
    <glyph glyph-name="uni0442" unicode="&#x442;" horiz-adv-x="361" 
d="M139 0v337h-123v72h329v-72h-123v-337h-83z" />
    <glyph glyph-name="uni0443" unicode="&#x443;" horiz-adv-x="446" 
d="M352 409h85v-2l-175 -434q-39 -96 -84 -142t-129 -55l-12 67q33 4 56.5 15t41.5 33.5t28 42t26 55.5l1 4l-179 414v2h87l80 -195q34 -82 51 -133q20 64 47 133z" />
    <glyph glyph-name="uni0444" unicode="&#x444;" horiz-adv-x="614" 
d="M575 205q0 -90 -63.5 -149.5t-164.5 -65.5v-215h-81v215q-106 6 -166.5 64.5t-60.5 150.5t61 150t166 63v262h81v-262q101 -6 164.5 -64.5t63.5 -148.5zM121 205q0 -62 39 -100t108 -43v284q-68 -5 -107.5 -42.5t-39.5 -98.5zM346 62q68 5 107 43t39 100q0 61 -39 98.5
t-107 42.5v-284z" />
    <glyph glyph-name="uni0445" unicode="&#x445;" horiz-adv-x="432" 
d="M23 0v2l144 214l-130 191v2h91l59 -88q15 -24 28 -50q5 8 16 25t17 26l58 87h89v-2l-129 -191l143 -214v-2h-92l-68 104q-12 17 -34 56q-18 -35 -33 -57l-69 -103h-90z" />
    <glyph glyph-name="uni0446" unicode="&#x446;" horiz-adv-x="500" 
d="M423 72h59v-181h-78v109h-335v409h83v-337h189v337h82v-337z" />
    <glyph glyph-name="uni0447" unicode="&#x447;" horiz-adv-x="439" 
d="M287 409h83v-409h-83v155q-48 -23 -99 -23q-153 0 -153 139v138h82v-135q0 -71 83 -71q54 0 87 20v186z" />
    <glyph glyph-name="uni0448" unicode="&#x448;" horiz-adv-x="682" 
d="M532 409h81v-409h-544v409h82v-337h149v337h82v-337h150v337z" />
    <glyph glyph-name="uni0449" unicode="&#x449;" horiz-adv-x="690" 
d="M613 72h59v-181h-78v109h-525v409h82v-337h149v337h82v-337h150v337h81v-337z" />
    <glyph glyph-name="uni044A" unicode="&#x44a;" horiz-adv-x="479" 
d="M299 272q71 0 112.5 -36t41.5 -100t-41 -100t-113 -36h-189v337h-99v72h182v-137h106zM287 68q84 0 84 68t-84 68h-94v-136h94z" />
    <glyph glyph-name="uni044B" unicode="&#x44b;" horiz-adv-x="636" 
d="M258 273q71 0 112 -36.5t41 -100.5t-40.5 -100t-112.5 -36h-189v409h83v-136h106zM485 409h82v-409h-82v409zM245 68q85 0 85 68q0 69 -85 69h-93v-137h93z" />
    <glyph glyph-name="uni044C" unicode="&#x44c;" horiz-adv-x="438" 
d="M258 273q71 0 112 -36.5t41 -100.5t-40.5 -100t-112.5 -36h-189v409h83v-136h106zM245 68q85 0 85 68q0 69 -85 69h-93v-137h93z" />
    <glyph glyph-name="uni044D" unicode="&#x44d;" horiz-adv-x="437" 
d="M182 420q91 0 153.5 -58t62.5 -153t-60 -157.5t-156 -62.5t-165 69l46 53q53 -50 116 -50q54 0 89.5 32.5t44.5 83.5h-178v66h177q-10 48 -47 77t-86 29q-58 0 -108 -47l-47 49q67 69 158 69z" />
    <glyph glyph-name="uni044E" unicode="&#x44e;" horiz-adv-x="703" 
d="M447 420q96 0 156.5 -60.5t60.5 -154.5q0 -95 -60.5 -155.5t-156.5 -60.5q-87 0 -145.5 50t-69.5 132h-80v-171h-83v409h83v-166h81q12 80 70 128.5t144 48.5zM447 63q60 0 97 39.5t37 102.5q0 62 -37 101.5t-97 39.5t-97.5 -39.5t-37.5 -101.5q0 -63 37.5 -102.5
t97.5 -39.5z" />
    <glyph glyph-name="uni044F" unicode="&#x44f;" horiz-adv-x="456" 
d="M199 409h188v-409h-82v150h-83l-106 -150h-92v5l114 154q-85 27 -85 119q0 60 39.5 95.5t106.5 35.5zM209 212h96v129h-96q-75 0 -75 -65q0 -64 75 -64z" />
    <glyph glyph-name="uni0450" unicode="&#x450;" horiz-adv-x="466" 
d="M286 500l-148 99l52 59l134 -115zM250 421q84 0 132.5 -53.5t48.5 -145.5q0 -23 -3 -47h-306q8 -53 45.5 -84.5t92.5 -31.5q67 0 113 43l40 -56q-68 -58 -158 -58q-94 0 -155 61t-61 156q0 92 60.5 154t150.5 62zM248 350q-47 0 -81 -30.5t-44 -81.5h232q-3 55 -32 83.5
t-75 28.5z" />
    <glyph glyph-name="uni0451" unicode="&#x451;" horiz-adv-x="466" 
d="M158 522q-22 0 -36.5 15t-14.5 35q0 21 13.5 36.5t37.5 15.5q23 0 37 -15.5t14 -35.5t-14 -35.5t-37 -15.5zM319 522q-23 0 -37 15t-14 35q0 21 14 36.5t37 15.5t37 -15.5t14 -36.5q0 -20 -14 -35t-37 -15zM250 421q84 0 132.5 -53.5t48.5 -145.5q0 -23 -3 -47h-306
q8 -53 45.5 -84.5t92.5 -31.5q67 0 113 43l40 -56q-68 -58 -158 -58q-94 0 -155 61t-61 156q0 92 60.5 154t150.5 62zM248 350q-47 0 -81 -30.5t-44 -81.5h232q-3 55 -32 83.5t-75 28.5z" />
    <glyph glyph-name="uni0452" unicode="&#x452;" horiz-adv-x="494" 
d="M285 411q72 0 109 -44t37 -120v-296q0 -90 -44 -136t-127 -46l-6 72q52 1 73 27t21 89v288q0 41 -19.5 66.5t-58.5 25.5q-56 0 -87 -41.5t-31 -102.5v-193h-83v529h-54v47h54v104h83v-104h151v-47h-151v-125q0 -42 -2 -67q39 74 135 74z" />
    <glyph glyph-name="uni0453" unicode="&#x453;" horiz-adv-x="364" 
d="M161 500l-38 44l134 114l51 -58zM69 0v409h275v-72h-192v-337h-83z" />
    <glyph glyph-name="uni0454" unicode="&#x454;" horiz-adv-x="431" 
d="M371 105l42 -54q-37 -33 -74 -47.5t-93 -14.5q-82 0 -144.5 58.5t-62.5 157.5q0 97 63 156t153 59q74 0 140 -57l-43 -53q-42 39 -96 39q-47 0 -83.5 -28.5t-47.5 -77.5h170v-66h-172q9 -53 46 -84.5t87 -31.5q66 0 115 44z" />
    <glyph glyph-name="uni0455" unicode="&#x455;" horiz-adv-x="374" 
d="M192 -9q-85 0 -156 46l34 58q57 -34 119 -34q32 0 51 13.5t19 36.5q0 16 -14 30t-28 20.5t-38 15.5q-5 2 -8 3q-120 44 -120 126q0 52 40.5 80.5t101.5 28.5q68 0 129 -37l-31 -55q-45 24 -93 24q-67 0 -67 -41q0 -37 77 -64q61 -20 96 -50t35 -81q0 -53 -41 -86.5
t-106 -33.5z" />
    <glyph glyph-name="uni0456" unicode="&#x456;" horiz-adv-x="221" 
d="M110 519q-25 0 -40.5 15.5t-15.5 38.5q0 25 15.5 40.5t40.5 15.5q26 0 41.5 -15.5t15.5 -41.5q0 -23 -16 -38t-41 -15zM69 0v409h83v-409h-83z" />
    <glyph glyph-name="uni0457" unicode="&#x457;" horiz-adv-x="221" 
d="M33 520q-22 0 -36.5 14.5t-14.5 37.5t14.5 38t36.5 15t36.5 -15t14.5 -38q0 -22 -14.5 -37t-36.5 -15zM186 520q-22 0 -36 14.5t-14 37.5t14 38t36 15t36.5 -15t14.5 -38t-14.5 -37.5t-36.5 -14.5zM69 0v409h83v-409h-83z" />
    <glyph glyph-name="uni0458" unicode="&#x458;" horiz-adv-x="225" 
d="M114 519q-25 0 -40.5 15.5t-15.5 38.5q0 25 15.5 40.5t40.5 15.5q26 0 41.5 -15.5t15.5 -41.5q0 -23 -16 -38t-41 -15zM-34 -231l-11 71q72 5 95 36t23 103v430h83v-424q0 -109 -41 -159.5t-149 -56.5z" />
    <glyph glyph-name="uni0459" unicode="&#x459;" horiz-adv-x="665" 
d="M494 254q67 0 105.5 -33.5t38.5 -92.5t-38.5 -93.5t-105.5 -34.5h-179v337h-116l-13 -148q-15 -181 -171 -195l-10 67q92 5 104 151l17 197h271v-155h97zM482 67q74 0 74 61q0 59 -74 59h-85v-120h85z" />
    <glyph glyph-name="uni045A" unicode="&#x45a;" horiz-adv-x="678" 
d="M508 254q67 0 105.5 -33.5t38.5 -92.5t-39 -93.5t-105 -34.5h-179v185h-177v-185h-83v409h83v-155h177v155h82v-155h97zM496 67q74 0 74 61q0 59 -74 59h-85v-120h85z" />
    <glyph glyph-name="uni045B" unicode="&#x45b;" horiz-adv-x="494" 
d="M284 411q72 0 109.5 -44t37.5 -121v-246h-83v245q0 41 -19.5 66.5t-58.5 25.5q-56 0 -87 -41.5t-31 -102.5v-193h-83v529h-54v47h54v104h83v-104h151v-47h-151v-125q0 -42 -2 -67q19 34 54 54t80 20z" />
    <glyph glyph-name="uni045C" unicode="&#x45c;" horiz-adv-x="420" 
d="M352 600l-147 -100l-38 44l134 114zM221 211l194 -206v-5h-97l-166 177v-177h-83v409h83v-167l150 167h96v-4z" />
    <glyph glyph-name="uni045D" unicode="&#x45d;" horiz-adv-x="496" 
d="M330 550l-38 -43l-148 99l51 59zM399 409h28v-409h-82v214q0 29 1 44q-16 -20 -37 -41l-212 -217h-28v409h82v-206q0 -34 -2 -50q23 25 45 48z" />
    <glyph glyph-name="uni045E" unicode="&#x45e;" horiz-adv-x="446" 
d="M224 498q-87 0 -127 75l46 34q30 -49 81 -49q49 0 81 49l46 -34q-40 -75 -127 -75zM352 409h85v-2l-175 -434q-39 -96 -84 -142t-129 -55l-12 67q33 4 56.5 15t41.5 33.5t28 42t26 55.5l1 4l-179 414v2h87l80 -195q34 -82 51 -133q20 64 47 133z" />
    <glyph glyph-name="uni045F" unicode="&#x45f;" horiz-adv-x="492" 
d="M423 409v-409h-138v-109h-78v109h-138v409h83v-337h189v337h82z" />
    <glyph glyph-name="uni0490" unicode="&#x490;" horiz-adv-x="520" 
d="M89 0v680h332v152h83v-235h-325v-597h-90z" />
    <glyph glyph-name="uni0491" unicode="&#x491;" horiz-adv-x="364" 
d="M69 0v409h200v108h75v-180h-192v-337h-83z" />
    <glyph glyph-name="Wgrave" unicode="&#x1e80;" horiz-adv-x="960" 
d="M517 754l-152 101l54 62l138 -118zM848 680h94v-3l-236 -682h-27l-170 397q-13 29 -30 81q-16 -54 -28 -81l-170 -397h-27l-236 682v3h95l132 -394q25 -74 33 -109q13 46 39 108l150 358h24l144 -339q28 -66 47 -127q12 42 38 120z" />
    <glyph glyph-name="wgrave" unicode="&#x1e81;" horiz-adv-x="616" 
d="M355 500l-148 99l52 59l134 -115zM516 409h85v-2l-149 -412h-25l-119 250l-120 -250h-25l-148 412v2h85l72 -211q13 -41 14 -46q1 4 20 47l93 188h18l93 -188q11 -21 20 -47l14 47z" />
    <glyph glyph-name="Wacute" unicode="&#x1e82;" horiz-adv-x="960" 
d="M578 856l-151 -102l-40 45l138 118zM848 680h94v-3l-236 -682h-27l-170 397q-15 33 -30 81q-15 -51 -28 -81l-170 -397h-27l-236 682v3h95l132 -394q25 -74 33 -108q17 60 39 107l150 358h24l144 -339q28 -68 47 -128q12 43 38 121z" />
    <glyph glyph-name="wacute" unicode="&#x1e83;" horiz-adv-x="616" 
d="M404 600l-147 -100l-38 44l134 114zM516 409h85v-2l-149 -412h-25l-119 249l-120 -249h-25l-148 412v2h85l72 -211q2 -6 6.5 -21l7.5 -25q1 4 20 47l93 188h18l93 -188q10 -18 21 -47q5 20 13 47z" />
    <glyph glyph-name="Wdieresis" unicode="&#x1e84;" horiz-adv-x="960" 
d="M382 774q-24 0 -39 15.5t-15 36.5q0 22 14.5 38.5t39.5 16.5q24 0 39 -16t15 -37q0 -22 -14.5 -38t-39.5 -16zM575 774q-24 0 -39 16t-15 37t15 37.5t39 16.5q25 0 39.5 -16.5t14.5 -37.5t-15 -37t-39 -16zM848 680h94v-3l-236 -682h-27l-170 397q-13 29 -30 81
q-16 -54 -28 -81l-170 -397h-27l-236 682v3h95l132 -394q25 -74 33 -109q13 46 39 108l150 358h24l144 -339q28 -66 47 -127q12 42 38 120z" />
    <glyph glyph-name="wdieresis" unicode="&#x1e85;" horiz-adv-x="616" 
d="M227 522q-22 0 -36.5 15t-14.5 35q0 21 14 36.5t37 15.5t37 -15.5t14 -35.5t-14 -35.5t-37 -15.5zM388 522q-23 0 -37 15t-14 35q0 21 14 36.5t37 15.5q24 0 37.5 -15.5t13.5 -36.5q0 -20 -14 -35t-37 -15zM516 409h85v-2l-149 -412h-25l-119 250l-120 -250h-25l-148 412
v2h85l72 -211q13 -41 14 -46q1 4 20 47l93 188h18l93 -188q11 -21 20 -47l14 47z" />
    <glyph glyph-name="uni1E9E" unicode="&#x1e9e;" horiz-adv-x="662" 
d="M418 418q92 -4 148 -61t56 -144q0 -94 -60 -153.5t-155 -59.5h-132v79h117q64 0 102.5 37t38.5 97q0 59 -39 95.5t-102 36.5h-79v55l132 201h-127q-67 0 -104.5 -43.5t-37.5 -122.5v-435h-89v434q0 120 60.5 183t175.5 63h250v-29z" />
    <glyph glyph-name="Ygrave" unicode="&#x1ef2;" horiz-adv-x="629" 
d="M353 754l-152 101l54 62l138 -118zM508 680h104v-3l-252 -376v-301h-91v301l-252 376v3h104l137 -207q40 -61 57 -97q16 33 56 97z" />
    <glyph glyph-name="ygrave" unicode="&#x1ef3;" horiz-adv-x="446" 
d="M270 500l-148 99l52 59l134 -115zM352 409h85v-2l-255 -627h-86v2l94 219l-179 406v2h86l105 -244q17 -42 28 -76q9 32 26 76z" />
    <glyph glyph-name="endash" unicode="&#x2013;" horiz-adv-x="517" 
d="M57 184v67h403v-67h-403z" />
    <glyph glyph-name="emdash" unicode="&#x2014;" horiz-adv-x="681" 
d="M57 183v67h567v-67h-567z" />
    <glyph glyph-name="quoteleft" unicode="&#x2018;" horiz-adv-x="193" 
d="M97 571q24 0 40 -15t16 -41t-17 -40.5t-39 -14.5t-39 18t-17 54q0 45 24.5 88.5t63.5 74.5l23 -25q-55 -50 -63 -100q3 1 8 1z" />
    <glyph glyph-name="quoteright" unicode="&#x2019;" horiz-adv-x="193" 
d="M100 690q22 0 39 -18t17 -54q0 -45 -24 -88.5t-63 -74.5l-23 25q53 49 62 100q-3 -1 -8 -1q-23 0 -39 15.5t-16 40.5q0 26 16.5 40.5t38.5 14.5z" />
    <glyph glyph-name="quotesinglbase" unicode="&#x201a;" horiz-adv-x="253" 
d="M126 101q24 0 40.5 -17t16.5 -55q0 -44 -24.5 -86t-66.5 -73l-20 24q53 46 62 97q-3 -1 -8 -1q-23 0 -39 15.5t-16 40.5q0 27 16.5 41t38.5 14z" />
    <glyph glyph-name="quotedblleft" unicode="&#x201c;" horiz-adv-x="346" 
d="M98 571q23 0 39 -15.5t16 -40.5q0 -26 -16.5 -40.5t-38.5 -14.5t-39.5 18t-17.5 54q0 45 24.5 88.5t63.5 74.5l23 -24q-54 -48 -63 -101q3 1 9 1zM250 571q24 0 40 -15t16 -41t-17 -40.5t-39 -14.5t-39 18t-17 54q0 45 24.5 88.5t63.5 74.5l23 -24q-53 -49 -62 -100h7z
" />
    <glyph glyph-name="quotedblright" unicode="&#x201d;" horiz-adv-x="346" 
d="M100 690q22 0 39 -18t17 -54q0 -45 -24 -88t-63 -75l-23 26q53 47 62 99q-3 -1 -8 -1q-23 0 -39 15.5t-16 40.5q0 26 16.5 40.5t38.5 14.5zM253 690q22 0 39.5 -18t17.5 -54q0 -45 -24.5 -88t-63.5 -75l-23 26q53 47 63 99q-3 -1 -9 -1q-23 0 -39 15.5t-16 40.5
q0 26 16.5 40.5t38.5 14.5z" />
    <glyph glyph-name="quotedblbase" unicode="&#x201e;" horiz-adv-x="406" 
d="M126 101q24 0 40.5 -17t16.5 -55q0 -44 -24.5 -86t-66.5 -73l-20 24q53 46 62 97q-3 -1 -8 -1q-23 0 -39 15.5t-16 40.5q0 27 16.5 41t38.5 14zM280 101q23 0 39.5 -17t16.5 -55q0 -44 -24 -86.5t-66 -72.5l-21 24q53 45 63 97q-3 -1 -8 -1q-24 0 -40 15.5t-16 40.5
q0 27 17 41t39 14z" />
    <glyph glyph-name="dagger" unicode="&#x2020;" horiz-adv-x="583" 
d="M252 -294v594h-198v73h198v308h79v-308h198v-73h-198v-594h-79z" />
    <glyph glyph-name="daggerdbl" unicode="&#x2021;" horiz-adv-x="583" 
d="M252 -294v309h-198v72h198v213h-198v73h198v308h79v-308h198v-73h-198v-213h198v-72h-198v-309h-79z" />
    <glyph glyph-name="bullet" unicode="&#x2022;" horiz-adv-x="317" 
d="M158 264q-36 0 -62 22t-26 64t26 64t62 22q37 0 63 -22t26 -64t-26 -64t-63 -22z" />
    <glyph glyph-name="ellipsis" unicode="&#x2026;" horiz-adv-x="679" 
d="M129 -11q-24 0 -41.5 15t-17.5 43t17.5 43t41.5 15t41.5 -15t17.5 -43t-17.5 -43t-41.5 -15zM340 -11q-25 0 -42 15t-17 43t17 43t42 15q24 0 41 -15t17 -43t-17 -43t-41 -15zM550 -11q-24 0 -41.5 15t-17.5 43t17.5 43t41.5 15q25 0 42 -15t17 -43t-17 -43t-42 -15z" />
    <glyph glyph-name="perthousand" unicode="&#x2030;" horiz-adv-x="1109" 
d="M186 391q-72 0 -111 45t-39 105q0 59 39 104.5t111 45.5q71 0 110 -45t39 -105t-39 -105t-110 -45zM149 0l392 680h75l-391 -680h-76zM186 451q41 0 61 28t20 62t-20 61.5t-61 27.5q-42 0 -62 -27.5t-20 -61.5t20 -62t62 -28zM573 -11q-72 0 -111 45.5t-39 104.5
q0 60 39 105t111 45q71 0 110 -45t39 -105q0 -59 -39 -104.5t-110 -45.5zM923 -11q-71 0 -110 45.5t-39 104.5q0 60 39 105t110 45q72 0 111 -45t39 -105q0 -59 -39.5 -104.5t-110.5 -45.5zM573 50q42 0 61.5 27.5t19.5 61.5t-19.5 62t-61.5 28t-62 -28t-20 -62t20 -61.5
t62 -27.5zM923 50q42 0 62 27.5t20 61.5t-20 62t-62 28t-61.5 -28t-19.5 -62t19.5 -61.5t61.5 -27.5z" />
    <glyph glyph-name="guilsinglleft" unicode="&#x2039;" horiz-adv-x="259" 
d="M152 46l-123 196l121 191l62 -34l-89 -157l91 -162z" />
    <glyph glyph-name="guilsinglright" unicode="&#x203a;" horiz-adv-x="259" 
d="M107 46l-62 34l91 162l-89 157l62 34l121 -191z" />
    <glyph glyph-name="fraction" unicode="&#x2044;" horiz-adv-x="138" 
d="M-137 0l353 680h61l-352 -680h-62z" />
    <glyph glyph-name="Euro" unicode="&#x20ac;" horiz-adv-x="579" 
d="M423 -11q-130 0 -213.5 70t-104.5 181h-81v65h72q0 4 -0.5 12t-0.5 13q0 14 2 36h-73v64h84q29 112 109 176.5t198 64.5q70 0 129 -25l-27 -74q-42 18 -101 18q-164 0 -215 -160h226l-22 -64h-216q-2 -11 -2 -34q0 -18 1 -27h196l-23 -65h-163q17 -75 76 -122t153 -47
q55 0 100 21l26 -74q-63 -29 -130 -29z" />
    <glyph glyph-name="uni20BD" unicode="&#x20bd;" horiz-adv-x="608" 
d="M347 256h-136v-60h257v-68h-257v-128h-90v128h-89v68h89v60h-89v73h89v332h237q104 0 162 -59.5t58 -142.5q0 -84 -58.5 -143.5t-172.5 -59.5zM211 581v-252h129q79 0 113.5 36.5t34.5 93.5q0 54 -36.5 88t-99.5 34h-141z" />
    <glyph glyph-name="uni2113" unicode="&#x2113;" horiz-adv-x="446" 
d="M255 -11q-141 0 -141 159v23q-11 -5 -34.5 -16.5t-35.5 -16.5l-26 54q77 36 96 46v261q0 89 41 140.5t115 51.5q71 0 106.5 -50.5t35.5 -111.5q0 -108 -60.5 -184.5t-166.5 -136.5v-57q0 -39 18 -68t54 -29q49 0 88 37l36 -54q-51 -48 -126 -48zM185 279q160 104 160 252
q0 33 -18.5 63.5t-55.5 30.5q-40 0 -63 -34t-23 -93v-219z" />
    <glyph glyph-name="uni2116" unicode="&#x2116;" horiz-adv-x="1063" 
d="M891 423q-59 0 -99 35.5t-40 98.5q0 62 40 97.5t99 35.5t99 -35.5t40 -97.5q0 -63 -40 -98.5t-99 -35.5zM572 257v423h90v-685h-38l-394 450q-38 40 -54 60q3 -36 3 -71v-434h-90v685h37l390 -444q5 -6 25.5 -29.5t32.5 -37.5q-2 60 -2 83zM891 632q-30 0 -50.5 -20.5
t-20.5 -54.5q0 -35 20.5 -55t50.5 -20t50.5 20t20.5 55q0 34 -20.5 54.5t-50.5 20.5zM760 306v55h259v-55h-259z" />
    <glyph glyph-name="uni2117" unicode="&#x2117;" horiz-adv-x="777" 
d="M389 -3q-150 0 -245 98.5t-95 244.5t94.5 244t245.5 98q150 0 244.5 -98t94.5 -244t-94.5 -244.5t-244.5 -98.5zM389 57q125 0 201.5 80.5t76.5 202.5q0 121 -76.5 201.5t-201.5 80.5t-202 -80.5t-77 -201.5t77 -202t202 -81zM274 158v371h152q56 0 88 -35.5t32 -82.5
q0 -51 -32 -86t-91 -35h-88v-132h-61zM335 344h75q74 0 74 68q0 28 -18.5 44.5t-54.5 16.5h-76v-129z" />
    <glyph glyph-name="trademark" unicode="&#x2122;" horiz-adv-x="667" 
d="M134 402v226h-88v52h233v-52h-88v-226h-57zM298 402l39 278h13l106 -141l106 141h12l40 -278h-58l-19 159l-76 -100h-11l-76 100l-19 -159h-57z" />
    <glyph glyph-name="uni2126" unicode="&#x2126;" horiz-adv-x="782" 
d="M66 0v79h112q-65 43 -99 112t-34 153q0 146 97.5 246.5t248.5 100.5t248.5 -100.5t97.5 -246.5q0 -84 -34 -153t-99 -112h113v-79h-258v76q88 25 139.5 97t51.5 168q0 116 -72 192.5t-187 76.5t-186.5 -76.5t-71.5 -192.5q0 -96 51.5 -168t139.5 -97v-76h-258z" />
    <glyph glyph-name="estimated" unicode="&#x212e;" horiz-adv-x="780" 
d="M394 -10q-153 0 -249 103t-96 258q0 152 97 255.5t248 103.5q150 0 241.5 -102.5t91.5 -256.5q0 -4 -0.5 -12t-0.5 -12h-556v-170q80 -111 224 -111q67 0 127.5 33t101.5 89l45 -34q-106 -144 -274 -144zM170 377h440v174q-77 104 -216 104q-145 0 -224 -109v-169z" />
    <glyph glyph-name="uni2153" unicode="&#x2153;" horiz-adv-x="636" 
d="M99 397v188l-36 -34l-35 34l104 99h20v-287h-53zM77 0l353 680h61l-352 -680h-62zM488 -10q-60 0 -93 36l30 37q21 -24 59 -24q24 0 38 12t14 33q0 41 -54 41h-31v46h27q45 0 45 37q0 16 -11.5 25.5t-26.5 9.5q-28 0 -47 -17l-33 35q35 32 86 32q34 0 60 -21.5t26 -55.5
q0 -46 -39 -65q22 -5 37.5 -25.5t15.5 -45.5q0 -41 -28.5 -65.5t-74.5 -24.5z" />
    <glyph glyph-name="uni2154" unicode="&#x2154;" horiz-adv-x="702" 
d="M240 446v-49h-194v16l106 140q23 31 23 53q0 35 -36 35q-27 0 -45 -37l-43 20q23 66 90 66q40 0 64.5 -24t24.5 -59q0 -39 -32 -84l-59 -77h101zM496 680h61l-352 -680h-62zM604 151q22 -5 37.5 -25.5t15.5 -45.5q0 -41 -28.5 -65.5t-74.5 -24.5q-60 0 -93 36l30 37
q21 -24 59 -24q24 0 38 12t14 33q0 41 -54 41h-31v46h27q45 0 45 37q0 16 -11.5 25.5t-26.5 9.5q-28 0 -47 -17l-33 35q35 32 86 32q34 0 60 -21.5t26 -55.5q0 -46 -39 -65z" />
    <glyph glyph-name="oneeighth" unicode="&#x215b;" horiz-adv-x="647" 
d="M99 397v188l-36 -34l-35 34l104 99h20v-287h-53zM77 0l353 680h61l-352 -680h-62zM500 -10q-45 0 -74 23.5t-29 67.5q0 49 45 71q-31 25 -31 63q0 36 26 57t64 21q37 0 62 -20.5t25 -55.5q0 -43 -33 -63q47 -24 47 -73q0 -45 -28.5 -68t-73.5 -23zM501 175q14 0 23.5 10
t9.5 24q0 16 -9.5 26.5t-23.5 10.5q-16 0 -26 -10.5t-10 -26.5q0 -14 10 -24t26 -10zM500 38q21 0 34 12.5t13 32.5t-13.5 33.5t-34.5 13.5t-34.5 -13.5t-13.5 -33.5q0 -19 14 -32t35 -13z" />
    <glyph glyph-name="threeeighths" unicode="&#x215c;" horiz-adv-x="718" 
d="M136 387q-60 0 -93 36l30 37q21 -24 59 -24q24 0 38 12t14 33q0 41 -54 41h-31v46h27q45 0 45 37q0 16 -11.5 25.5t-26.5 9.5q-28 0 -47 -17l-33 35q35 32 86 32q34 0 60 -21.5t26 -55.5q0 -46 -39 -65q22 -5 37.5 -25.5t15.5 -45.5q0 -41 -28.5 -65.5t-74.5 -24.5z
M148 0l353 680h61l-352 -680h-62zM571 -10q-45 0 -74 23.5t-29 67.5q0 49 45 71q-31 25 -31 63q0 36 26 57t64 21q37 0 62 -20.5t25 -55.5q0 -43 -33 -63q47 -24 47 -73q0 -45 -28.5 -68t-73.5 -23zM572 175q14 0 23.5 10t9.5 24q0 16 -9.5 26.5t-23.5 10.5q-16 0 -26 -10.5
t-10 -26.5q0 -14 10 -24t26 -10zM571 38q21 0 34 12.5t13 32.5t-13.5 33.5t-34.5 13.5t-34.5 -13.5t-13.5 -33.5q0 -19 14 -32t35 -13z" />
    <glyph glyph-name="fiveeighths" unicode="&#x215d;" horiz-adv-x="718" 
d="M137 387q-58 0 -92 38l36 35q20 -23 54 -23q23 0 36 13.5t13 35.5q0 24 -17.5 36.5t-45.5 12.5q-22 0 -49 -8l-6 7l17 146h141v-51h-96l-7 -54q3 0 10 0.5t11 0.5q41 0 69 -23.5t28 -67.5q0 -45 -28.5 -71.5t-73.5 -26.5zM148 0l353 680h61l-352 -680h-62zM571 -10
q-45 0 -74 23.5t-29 67.5q0 49 45 71q-31 25 -31 63q0 36 26 57t64 21q37 0 62 -20.5t25 -55.5q0 -43 -33 -63q47 -24 47 -73q0 -45 -28.5 -68t-73.5 -23zM572 175q14 0 23.5 10t9.5 24q0 16 -9.5 26.5t-23.5 10.5q-16 0 -26 -10.5t-10 -26.5q0 -14 10 -24t26 -10zM571 38
q21 0 34 12.5t13 32.5t-13.5 33.5t-34.5 13.5t-34.5 -13.5t-13.5 -33.5q0 -19 14 -32t35 -13z" />
    <glyph glyph-name="seveneighths" unicode="&#x215e;" horiz-adv-x="656" 
d="M60 397l96 232h-110v51h182v-11l-112 -272h-56zM86 0l353 680h61l-352 -680h-62zM509 -10q-45 0 -74 23.5t-29 67.5q0 49 45 71q-31 25 -31 63q0 36 26 57t64 21q37 0 62 -20.5t25 -55.5q0 -43 -33 -63q47 -24 47 -73q0 -45 -28.5 -68t-73.5 -23zM510 175q14 0 23.5 10
t9.5 24q0 16 -9.5 26.5t-23.5 10.5q-16 0 -26 -10.5t-10 -26.5q0 -14 10 -24t26 -10zM509 38q21 0 34 12.5t13 32.5t-13.5 33.5t-34.5 13.5t-34.5 -13.5t-13.5 -33.5q0 -19 14 -32t35 -13z" />
    <glyph glyph-name="arrowleft" unicode="&#x2190;" horiz-adv-x="616" 
d="M598 294h-388q-35 0 -56 1q17 -14 41 -38l113 -111l-55 -56l-244 245l245 244l54 -55l-109 -109q-28 -26 -45 -41q40 2 56 2h388v-82z" />
    <glyph glyph-name="arrowup" unicode="&#x2191;" horiz-adv-x="518" 
d="M218 50v389q0 34 1 55q-13 -16 -38 -41l-111 -112l-56 54l245 245l244 -246l-54 -53l-109 109q-12 12 -42 44q2 -40 2 -55v-389h-82z" />
    <glyph glyph-name="arrowright" unicode="&#x2192;" horiz-adv-x="616" 
d="M18 415h389q34 0 55 -1q-8 6 -41 37l-112 112l54 55l245 -244l-246 -245l-53 55l109 109q27 27 44 42q-40 -2 -56 -2h-388v82z" />
    <glyph glyph-name="arrowdown" unicode="&#x2193;" horiz-adv-x="518" 
d="M300 657v-388q0 -35 -1 -56q4 5 37 41l112 113l55 -55l-244 -244l-245 245l55 54l109 -109q19 -20 42 -45q-2 40 -2 56v388h82z" />
    <glyph glyph-name="arrowboth" unicode="&#x2194;" horiz-adv-x="803" 
d="M253 110l-244 244l245 245l54 -55l-109 -109q-22 -22 -45 -41q21 1 56 1h383q35 0 56 -1q-13 10 -41 38l-113 111l55 56l244 -245l-245 -244l-54 54l109 109q22 22 45 41q-19 -1 -56 -1h-383q-35 0 -56 1q5 -4 41 -37l113 -112z" />
    <glyph glyph-name="arrowupdn" unicode="&#x2195;" horiz-adv-x="518" 
d="M14 503l245 245l244 -246l-54 -53l-109 109q-27 27 -41 45q1 -22 1 -57v-383q0 -34 -1 -55q6 8 37 41l112 112l55 -54l-244 -245l-245 245l55 54l109 -109q20 -20 41 -44q-1 19 -1 55v384q0 34 1 55q-13 -16 -38 -41l-111 -112z" />
    <glyph glyph-name="uni2196" unicode="&#x2196;" horiz-adv-x="475" 
d="M407 96l-275 275q-21 19 -39 40q3 -21 3 -56v-158l-77 -1v346l346 -1l-1 -76h-154q-15 0 -61 2l41 -38l275 -275z" />
    <glyph glyph-name="uni2197" unicode="&#x2197;" horiz-adv-x="475" 
d="M11 161l275 275q24 24 40 38q-21 -2 -56 -2l-158 -1l-1 78h346l-1 -347l-76 1v154q0 10 0.5 30t0.5 31q-13 -15 -37 -41l-275 -274z" />
    <glyph glyph-name="uni2198" unicode="&#x2198;" horiz-adv-x="475" 
d="M68 575l275 -275q19 -17 39 -39q-3 21 -3 55v158l77 1v-346l-346 1l1 76h154q38 0 61 -1q-23 20 -41 38l-275 274z" />
    <glyph glyph-name="uni2199" unicode="&#x2199;" horiz-adv-x="475" 
d="M464 518l-275 -275q-24 -24 -40 -38q21 2 56 2l158 1l1 -78h-346l1 346h76v-154q0 -10 -0.5 -30t-0.5 -31q2 2 16 17.5t21 22.5l275 275z" />
    <glyph glyph-name="partialdiff" unicode="&#x2202;" horiz-adv-x="488" 
d="M242 -11q-84 0 -143.5 52t-59.5 142q0 103 58.5 162t140.5 59q69 0 117 -42q-30 94 -96 167t-154 109l35 67q145 -66 227 -195t82 -282q0 -98 -54 -168.5t-153 -70.5zM242 64q62 0 93 46t31 109q0 49 -33 80.5t-84 31.5q-54 0 -91 -37t-37 -108q0 -50 33.5 -86t87.5 -36z
" />
    <glyph glyph-name="emptyset" unicode="&#x2205;" horiz-adv-x="800" 
d="M655 588q93 -98 93 -247q0 -148 -98 -250t-249 -102q-130 0 -224 78l-68 -74h-60l96 105q-91 101 -91 243q0 153 97 251.5t250 98.5q129 0 221 -73l64 69h60zM116 341q0 -117 70 -199l396 432q-74 58 -181 58q-128 0 -206.5 -81t-78.5 -210zM401 48q126 0 205 84.5
t79 208.5q0 122 -71 202l-396 -432q76 -63 183 -63z" />
    <glyph glyph-name="uni2206" unicode="&#x2206;" horiz-adv-x="674" 
d="M8 0v4l316 681h25l318 -682v-3h-659zM135 78h400l-198 433z" />
    <glyph glyph-name="product" unicode="&#x220f;" horiz-adv-x="712" 
d="M89 0v680h534v-680h-90v600h-354v-600h-90z" />
    <glyph glyph-name="summation" unicode="&#x2211;" horiz-adv-x="550" 
d="M36 0v32l212 308l-212 308v32h486v-80h-353l183 -260l-183 -260h353v-80h-486z" />
    <glyph glyph-name="minus" unicode="&#x2212;" horiz-adv-x="524" 
d="M64 304v72h396v-72h-396z" />
    <glyph glyph-name="radical" unicode="&#x221a;" horiz-adv-x="579" 
d="M522 723h86l-317 -723h-33l-153 334h-96v75h144l119 -269z" />
    <glyph glyph-name="infinity" unicode="&#x221e;" horiz-adv-x="709" 
d="M198 205q-57 0 -100.5 39.5t-43.5 105.5t43.5 106t100.5 40q48 0 84 -24t73 -68q36 43 72 67.5t84 24.5q57 0 100.5 -40t43.5 -106t-43.5 -105.5t-100.5 -39.5q-82 0 -156 91q-36 -43 -72.5 -67t-84.5 -24zM205 276q30 0 54.5 18.5t55.5 55.5q-31 38 -55.5 56.5
t-54.5 18.5q-27 0 -50 -20t-23 -55t23 -54.5t50 -19.5zM504 276q27 0 50 19.5t23 54.5t-23 55t-50 20q-49 0 -110 -75q30 -37 55.5 -55.5t54.5 -18.5z" />
    <glyph glyph-name="integral" unicode="&#x222b;" horiz-adv-x="449" 
d="M111 -182q-57 0 -109 40l32 60q40 -27 74 -27q75 0 75 96v536q0 82 43.5 125t110.5 43q56 0 110 -40l-33 -61q-38 27 -74 27q-75 0 -75 -96v-535q0 -82 -43.5 -125t-110.5 -43z" />
    <glyph glyph-name="approxequal" unicode="&#x2248;" horiz-adv-x="571" 
d="M123 356l-60 35q39 99 128 99q43 0 99 -34q58 -37 83 -37q43 0 63 64l62 -32q-33 -107 -122 -107q-40 0 -96 34q-58 36 -86 36q-30 0 -45 -14t-26 -44zM133 179l-60 34q39 100 128 100q45 0 99 -35q4 -3 16.5 -10.5t18 -10.5t15 -7.5t17.5 -6.5t16 -2q42 0 63 64l62 -32
q-33 -106 -122 -106q-42 0 -96 33q-2 1 -10.5 6.5t-11 7l-10 6t-11 6l-10.5 4.5t-11.5 4t-10.5 2t-11 1q-29 0 -44.5 -14.5t-26.5 -43.5z" />
    <glyph glyph-name="notequal" unicode="&#x2260;" horiz-adv-x="522" 
d="M445 399h-111l-67 -116h178v-72h-220l-67 -115l-54 34l47 81h-72v72h114l68 116h-182v72h223l65 111l56 -31l-47 -80h69v-72z" />
    <glyph glyph-name="lessequal" unicode="&#x2264;" horiz-adv-x="423" 
d="M368 225l-329 146v73l329 146v-84l-238 -98l238 -99v-84zM368 101h-329v70h329v-70z" />
    <glyph glyph-name="greaterequal" unicode="&#x2265;" horiz-adv-x="423" 
d="M55 225v84l239 99l-239 98v84l329 -146v-73zM55 101v70h329v-70h-329z" />
    <glyph glyph-name="lozenge" unicode="&#x25ca;" horiz-adv-x="539" 
d="M259 0l-231 340l231 340h21l231 -340l-231 -340h-21zM270 127l146 213l-146 211l-147 -211z" />
    <glyph glyph-name="i.loclTRK" horiz-adv-x="221" 
d="M110 526q-24 0 -40 15.5t-16 38.5q0 25 16 41t40 16q25 0 41 -16t16 -42q0 -23 -16 -38t-41 -15zM69 0v409h83v-409h-83z" />
    <glyph glyph-name="germandbls.calt" horiz-adv-x="662" 
d="M418 418q92 -4 148 -61t56 -144q0 -94 -60 -153.5t-155 -59.5h-132v79h117q64 0 102.5 37t38.5 97q0 59 -39 95.5t-102 36.5h-79v55l132 201h-127q-67 0 -104.5 -43.5t-37.5 -122.5v-435h-89v434q0 120 60.5 183t175.5 63h250v-29z" />
    <glyph glyph-name="a.ss01" horiz-adv-x="541" 
d="M410 409h62v-409h-62l-13 61q-56 -71 -155 -71q-90 0 -146 59.5t-56 154.5q0 96 56.5 155.5t149.5 59.5q92 0 148 -69zM256 63q62 0 99.5 38.5t37.5 102.5t-37.5 103t-99.5 39q-60 0 -96.5 -39t-36.5 -103t36.5 -102.5t96.5 -38.5z" />
    <glyph glyph-name="aacute.ss01" horiz-adv-x="541" 
d="M357 600l-147 -100l-38 44l134 114zM410 409h62v-409h-62l-12 61q-57 -71 -156 -71q-90 0 -146 59.5t-56 154.5q0 96 56.5 155.5t149.5 59.5q91 0 148 -69zM256 63q62 0 99.5 38.5t37.5 102.5t-37.5 103t-99.5 39q-60 0 -96.5 -39t-36.5 -103t36.5 -102.5t96.5 -38.5z
" />
    <glyph glyph-name="abreve.ss01" horiz-adv-x="541" 
d="M261 496q-45 0 -78 27.5t-44 79.5l54 17q7 -27 25.5 -43t42.5 -16q23 0 42 16t25 43l55 -17q-12 -52 -45 -79.5t-77 -27.5zM410 409h62v-409h-62l-12 61q-57 -71 -156 -71q-90 0 -146 59.5t-56 154.5q0 96 56.5 155.5t149.5 59.5q91 0 148 -69zM256 63q62 0 99.5 38.5
t37.5 102.5t-37.5 103t-99.5 39q-60 0 -96.5 -39t-36.5 -103t36.5 -102.5t96.5 -38.5z" />
    <glyph glyph-name="acircumflex.ss01" horiz-adv-x="541" 
d="M261 560l-89 -71l-34 42l114 103h17l113 -104l-32 -41zM410 409h62v-409h-62l-12 61q-57 -71 -156 -71q-90 0 -146 59.5t-56 154.5q0 96 56.5 155.5t149.5 59.5q91 0 148 -69zM256 63q62 0 99.5 38.5t37.5 102.5t-37.5 103t-99.5 39q-60 0 -96.5 -39t-36.5 -103
t36.5 -102.5t96.5 -38.5z" />
    <glyph glyph-name="adieresis.ss01" horiz-adv-x="541" 
d="M180 522q-22 0 -36.5 15t-14.5 35q0 21 13.5 36.5t37.5 15.5q23 0 37 -15.5t14 -35.5t-14 -35.5t-37 -15.5zM341 522q-23 0 -37 15t-14 35q0 21 14 36.5t37 15.5t37 -15.5t14 -36.5q0 -20 -14 -35t-37 -15zM410 409h62v-409h-62l-13 61q-56 -71 -155 -71q-90 0 -146 59.5
t-56 154.5q0 96 56.5 155.5t149.5 59.5q92 0 148 -69zM256 63q62 0 99.5 38.5t37.5 102.5t-37.5 103t-99.5 39q-60 0 -96.5 -39t-36.5 -103t36.5 -102.5t96.5 -38.5z" />
    <glyph glyph-name="agrave.ss01" horiz-adv-x="541" 
d="M308 500l-148 99l52 59l134 -115zM410 409h62v-409h-62l-13 61q-56 -71 -155 -71q-90 0 -146 59.5t-56 154.5q0 96 56.5 155.5t149.5 59.5q92 0 148 -69zM256 63q62 0 99.5 38.5t37.5 102.5t-37.5 103t-99.5 39q-60 0 -96.5 -39t-36.5 -103t36.5 -102.5t96.5 -38.5z" />
    <glyph glyph-name="amacron.ss01" horiz-adv-x="541" 
d="M133 523v65h255v-65h-255zM410 409h62v-409h-62l-13 61q-56 -71 -155 -71q-90 0 -146 59.5t-56 154.5q0 96 56.5 155.5t149.5 59.5q92 0 148 -69zM256 63q62 0 99.5 38.5t37.5 102.5t-37.5 103t-99.5 39q-60 0 -96.5 -39t-36.5 -103t36.5 -102.5t96.5 -38.5z" />
    <glyph glyph-name="aogonek.ss01" horiz-adv-x="544" 
d="M475 -132l22 -57q-35 -25 -85 -25q-46 0 -71 23.5t-25 59.5q0 67 93 150l-9 42q-56 -71 -155 -71q-90 0 -146 59.5t-56 154.5q0 96 56.5 155.5t149.5 59.5q92 0 148 -69l16 59h62v-409q-83 -67 -83 -116q0 -32 38 -32q22 0 45 16zM259 63q62 0 99.5 38.5t37.5 102.5
t-37.5 103t-99.5 39q-60 0 -96.5 -39t-36.5 -103t36.5 -102.5t96.5 -38.5z" />
    <glyph glyph-name="atilde.ss01" horiz-adv-x="541" 
d="M177 519l-51 29q30 73 80 73q28 0 61 -18q29 -16 42 -16q20 0 34 32l51 -28q-30 -71 -80 -71q-26 0 -55 16q-32 17 -45 17q-23 0 -37 -34zM410 409h62v-409h-62l-13 61q-56 -71 -155 -71q-90 0 -146 59.5t-56 154.5q0 96 56.5 155.5t149.5 59.5q92 0 148 -69zM256 63
q62 0 99.5 38.5t37.5 102.5t-37.5 103t-99.5 39q-60 0 -96.5 -39t-36.5 -103t36.5 -102.5t96.5 -38.5z" />
    <glyph glyph-name="ae.ss01" horiz-adv-x="787" 
d="M596 60q67 0 113 41l38 -52q-63 -58 -149 -58q-96 0 -142 65l-5 -56h-60l-6 55q-53 -64 -146 -64q-89 0 -144 60.5t-55 151.5q0 93 56 155t145 62t140 -60l9 49h59l10 -53q46 64 140 64q64 0 110.5 -37t46.5 -105q0 -118 -175 -118q-62 0 -113 7q8 -51 41 -79t87 -28z
M591 350q-51 0 -84 -32.5t-40 -89.5q65 -7 114 -7q99 0 99 64q0 30 -25 47.5t-64 17.5zM251 63q64 0 97.5 40.5t33.5 99.5q0 63 -33.5 103t-97.5 40q-57 0 -92.5 -39.5t-35.5 -103.5q0 -62 35 -101t93 -39z" />
    <glyph glyph-name="aeacute.ss01" horiz-adv-x="787" 
d="M516 600l-147 -100l-38 44l134 114zM596 60q67 0 113 41l38 -52q-63 -58 -149 -58q-96 0 -142 65l-5 -56h-60l-6 55q-53 -64 -146 -64q-89 0 -144 60.5t-55 151.5q0 93 56 155t145 62t140 -60l9 49h59l10 -53q46 64 140 64q64 0 110.5 -37t46.5 -105q0 -118 -175 -118
q-62 0 -113 7q8 -51 41 -79t87 -28zM591 350q-51 0 -84 -32.5t-40 -89.5q65 -7 114 -7q99 0 99 64q0 30 -25 47.5t-64 17.5zM251 63q64 0 97.5 40.5t33.5 99.5q0 63 -33.5 103t-97.5 40q-57 0 -92.5 -39.5t-35.5 -103.5q0 -62 35 -101t93 -39z" />
    <glyph glyph-name="e.ss01" horiz-adv-x="450" 
d="M259 58q62 0 115 43l37 -54q-64 -59 -157 -59q-98 0 -156.5 61t-58.5 156q0 91 57 153.5t154 62.5q74 0 121.5 -41.5t47.5 -101.5q0 -118 -173 -118q-60 0 -123 7q10 -50 46.5 -79.5t89.5 -29.5zM252 351q-54 0 -88.5 -33t-42.5 -89q68 -8 118 -8q49 0 76.5 12.5
t27.5 47.5q0 31 -26 50.5t-65 19.5z" />
    <glyph glyph-name="eacute.ss01" horiz-adv-x="450" 
d="M340 600l-147 -100l-38 44l134 114zM259 58q62 0 115 43l37 -54q-64 -59 -157 -59q-98 0 -156.5 61t-58.5 156q0 91 57 153.5t154 62.5q74 0 121.5 -41.5t47.5 -101.5q0 -118 -173 -118q-73 0 -123 7q10 -50 46.5 -79.5t89.5 -29.5zM252 351q-54 0 -88.5 -33t-41.5 -88
q59 -9 117 -9q49 0 76.5 12.5t27.5 47.5q0 31 -26 50.5t-65 19.5z" />
    <glyph glyph-name="ebreve.ss01" horiz-adv-x="450" 
d="M245 496q-45 0 -78 27.5t-44 79.5l54 17q7 -27 25.5 -43t42.5 -16q23 0 42 16t25 43l55 -17q-12 -52 -45 -79.5t-77 -27.5zM259 58q62 0 115 43l37 -54q-64 -59 -157 -59q-98 0 -156.5 61t-58.5 156q0 91 57 153.5t154 62.5q74 0 121.5 -41.5t47.5 -101.5
q0 -118 -173 -118q-73 0 -123 7q10 -50 46.5 -79.5t89.5 -29.5zM252 351q-54 0 -88.5 -33t-41.5 -88q59 -9 117 -9q49 0 76.5 12.5t27.5 47.5q0 31 -26 50.5t-65 19.5z" />
    <glyph glyph-name="ecaron.ss01" horiz-adv-x="450" 
d="M252 496h-17l-112 104l32 42l88 -71l90 71l34 -42zM259 58q62 0 115 43l37 -54q-64 -59 -157 -59q-98 0 -156.5 61t-58.5 156q0 91 57 153.5t154 62.5q74 0 121.5 -41.5t47.5 -101.5q0 -118 -173 -118q-73 0 -123 7q10 -50 46.5 -79.5t89.5 -29.5zM252 351
q-54 0 -88.5 -33t-41.5 -88q59 -9 117 -9q49 0 76.5 12.5t27.5 47.5q0 31 -26 50.5t-65 19.5z" />
    <glyph glyph-name="ecircumflex.ss01" horiz-adv-x="450" 
d="M244 560l-89 -71l-34 42l114 103h17l113 -104l-32 -41zM259 58q62 0 115 43l37 -54q-64 -59 -157 -59q-98 0 -156.5 61t-58.5 156q0 91 57 153.5t154 62.5q74 0 121.5 -41.5t47.5 -101.5q0 -118 -173 -118q-73 0 -123 7q10 -50 46.5 -79.5t89.5 -29.5zM252 351
q-54 0 -88.5 -33t-41.5 -88q59 -9 117 -9q49 0 76.5 12.5t27.5 47.5q0 31 -26 50.5t-65 19.5z" />
    <glyph glyph-name="edieresis.ss01" horiz-adv-x="450" 
d="M163 522q-22 0 -36.5 15t-14.5 35q0 21 14 36.5t37 15.5t37 -15.5t14 -35.5t-14 -35.5t-37 -15.5zM324 522q-23 0 -37 15t-14 35q0 21 14 36.5t37 15.5q24 0 37.5 -15.5t13.5 -36.5q0 -20 -14 -35t-37 -15zM259 58q62 0 115 43l37 -54q-64 -59 -157 -59q-98 0 -156.5 61
t-58.5 156q0 91 57 153.5t154 62.5q74 0 121.5 -41.5t47.5 -101.5q0 -118 -173 -118q-60 0 -123 7q10 -50 46.5 -79.5t89.5 -29.5zM252 351q-54 0 -88.5 -33t-42.5 -89q68 -8 118 -8q49 0 76.5 12.5t27.5 47.5q0 31 -26 50.5t-65 19.5z" />
    <glyph glyph-name="edotaccent.ss01" horiz-adv-x="450" 
d="M244 517q-24 0 -39.5 15.5t-15.5 38.5q0 25 15.5 40.5t39.5 15.5q25 0 40.5 -15.5t15.5 -40.5q0 -24 -16 -39t-40 -15zM259 58q62 0 115 43l37 -54q-64 -59 -157 -59q-98 0 -156.5 61t-58.5 156q0 91 57 153.5t154 62.5q74 0 121.5 -41.5t47.5 -101.5q0 -118 -173 -118
q-60 0 -123 7q10 -50 46.5 -79.5t89.5 -29.5zM252 351q-54 0 -88.5 -33t-42.5 -89q68 -8 118 -8q49 0 76.5 12.5t27.5 47.5q0 31 -26 50.5t-65 19.5z" />
    <glyph glyph-name="egrave.ss01" horiz-adv-x="450" 
d="M291 500l-148 99l52 59l134 -115zM259 58q62 0 115 43l37 -54q-64 -59 -157 -59q-98 0 -156.5 61t-58.5 156q0 91 57 153.5t154 62.5q74 0 121.5 -41.5t47.5 -101.5q0 -118 -173 -118q-60 0 -123 7q10 -50 46.5 -79.5t89.5 -29.5zM252 351q-54 0 -88.5 -33t-42.5 -89
q68 -8 118 -8q49 0 76.5 12.5t27.5 47.5q0 31 -26 50.5t-65 19.5z" />
    <glyph glyph-name="emacron.ss01" horiz-adv-x="450" 
d="M116 523v65h255v-65h-255zM259 58q62 0 115 43l37 -54q-64 -59 -157 -59q-98 0 -156.5 61t-58.5 156q0 91 57 153.5t154 62.5q74 0 121.5 -41.5t47.5 -101.5q0 -118 -173 -118q-60 0 -123 7q10 -50 46.5 -79.5t89.5 -29.5zM252 351q-54 0 -88.5 -33t-42.5 -89
q68 -8 118 -8q49 0 76.5 12.5t27.5 47.5q0 31 -26 50.5t-65 19.5z" />
    <glyph glyph-name="eogonek.ss01" horiz-adv-x="451" 
d="M416 51q-67 -65 -92 -102.5t-25 -66.5q0 -32 37 -32q24 0 45 16l22 -58q-38 -25 -85 -25q-46 0 -70.5 23t-24.5 61q0 56 66 124q-22 -2 -34 -2q-98 0 -156.5 61t-58.5 155q0 91 57.5 153t153.5 62q74 0 121.5 -41t47.5 -101q0 -118 -173 -118q-73 0 -123 7
q11 -49 47.5 -78.5t89.5 -29.5q65 0 112 42zM252 350q-54 0 -88 -33t-41 -87q59 -9 117 -9q49 0 76.5 12.5t27.5 47.5q0 31 -26 50t-66 19z" />
    <glyph glyph-name="g.ss01" horiz-adv-x="441" 
d="M296 32q133 -9 133 -112q0 -64 -58.5 -107.5t-143.5 -43.5q-96 0 -146 42.5t-50 103.5q0 62 44 98q-25 27 -25 64q0 46 38 78q-38 43 -38 104q0 68 47.5 114.5t127.5 46.5q33 0 99.5 -5.5t99.5 -5.5v-53l-68 -3q43 -41 43 -97q0 -66 -47 -111.5t-127 -45.5q-48 0 -85 17
q-10 -11 -10 -30t17.5 -33t48.5 -16zM225 350q-44 0 -68 -26t-24 -65q0 -40 24 -66t68 -26t68 26t24 66q0 39 -24 65t-68 26zM228 -162q46 0 83 21t37 53q0 22 -17.5 35t-48.5 15l-84 5q-35 2 -60 10q-24 -23 -24 -60q0 -33 28.5 -56t85.5 -23z" />
    <glyph glyph-name="gbreve.ss01" horiz-adv-x="441" 
d="M226 496q-45 0 -78 27.5t-44 79.5l54 17q7 -27 25.5 -43t42.5 -16q23 0 42 16t25 43l55 -17q-12 -52 -45 -79.5t-77 -27.5zM296 32q133 -9 133 -112q0 -64 -58.5 -107.5t-143.5 -43.5q-96 0 -146 42.5t-50 103.5q0 62 44 98q-25 25 -25 64q0 48 38 78q-38 43 -38 104
q0 68 47.5 114.5t127.5 46.5q33 0 99.5 -5.5t99.5 -5.5v-53l-68 -3q43 -41 43 -97q0 -66 -47 -111.5t-127 -45.5q-48 0 -84 17q-11 -11 -11 -30t17.5 -33t48.5 -16zM225 350q-44 0 -68 -26t-24 -65q0 -40 24 -66t68 -26t68 26t24 66q0 39 -24 65t-68 26zM228 -162
q46 0 83 21t37 53q0 22 -17.5 35t-48.5 15l-84 5q-35 2 -60 10q-24 -23 -24 -60q0 -33 28.5 -56t85.5 -23z" />
    <glyph glyph-name="gcircumflex.ss01" horiz-adv-x="441" 
d="M225 560l-89 -71l-34 42l114 103h17l113 -104l-32 -41zM296 32q133 -9 133 -112q0 -64 -58.5 -107.5t-143.5 -43.5q-96 0 -146 42.5t-50 103.5q0 62 44 98q-25 25 -25 64q0 48 38 78q-38 43 -38 104q0 68 47.5 114.5t127.5 46.5q33 0 99.5 -5.5t99.5 -5.5v-53l-68 -3
q43 -41 43 -97q0 -66 -47 -111.5t-127 -45.5q-48 0 -84 17q-11 -11 -11 -30t17.5 -33t48.5 -16zM225 350q-44 0 -68 -26t-24 -65q0 -40 24 -66t68 -26t68 26t24 66q0 39 -24 65t-68 26zM228 -162q46 0 83 21t37 53q0 22 -17.5 35t-48.5 15l-84 5q-35 2 -60 10
q-24 -23 -24 -60q0 -33 28.5 -56t85.5 -23z" />
    <glyph glyph-name="uni0123.ss01" horiz-adv-x="441" 
d="M294 680q-28 -91 -28 -179h-84q9 106 53 179h59zM296 32q133 -9 133 -112q0 -64 -58.5 -107.5t-143.5 -43.5q-96 0 -146 42.5t-50 103.5q0 62 44 98q-25 25 -25 64q0 48 38 78q-38 43 -38 104q0 68 47.5 114.5t127.5 46.5q33 0 99.5 -5.5t99.5 -5.5v-53l-68 -3
q43 -41 43 -97q0 -66 -47 -111.5t-127 -45.5q-48 0 -84 17q-11 -11 -11 -30t17.5 -33t48.5 -16zM225 350q-44 0 -68 -26t-24 -65q0 -40 24 -66t68 -26t68 26t24 66q0 39 -24 65t-68 26zM228 -162q46 0 83 21t37 53q0 22 -17.5 35t-48.5 15l-84 5q-35 2 -60 10
q-24 -23 -24 -60q0 -33 28.5 -56t85.5 -23z" />
    <glyph glyph-name="gdotaccent.ss01" horiz-adv-x="441" 
d="M225 517q-24 0 -39.5 15.5t-15.5 38.5q0 25 15.5 40.5t39.5 15.5q25 0 40.5 -15.5t15.5 -40.5q0 -24 -16 -39t-40 -15zM296 32q133 -9 133 -112q0 -64 -58.5 -107.5t-143.5 -43.5q-96 0 -146 42.5t-50 103.5q0 62 44 98q-25 27 -25 64q0 46 38 78q-38 43 -38 104
q0 68 47.5 114.5t127.5 46.5q33 0 99.5 -5.5t99.5 -5.5v-53l-68 -3q43 -41 43 -97q0 -66 -47 -111.5t-127 -45.5q-48 0 -85 17q-10 -11 -10 -30t17.5 -33t48.5 -16zM225 350q-44 0 -68 -26t-24 -65q0 -40 24 -66t68 -26t68 26t24 66q0 39 -24 65t-68 26zM228 -162
q46 0 83 21t37 53q0 22 -17.5 35t-48.5 15l-84 5q-35 2 -60 10q-24 -23 -24 -60q0 -33 28.5 -56t85.5 -23z" />
    <glyph glyph-name="y.ss01" horiz-adv-x="492" 
d="M341 409h82v-448q0 -95 -56 -143.5t-134 -48.5q-107 0 -170 69l43 58q51 -52 125 -52q45 0 77 30.5t32 89.5v91q-45 -63 -129 -63q-71 0 -109 44.5t-38 120.5v252h82v-253q0 -41 20.5 -65.5t62.5 -24.5q52 0 82 39.5t30 104.5v199z" />
    <glyph glyph-name="yacute.ss01" horiz-adv-x="492" 
d="M338 600l-147 -100l-38 44l134 114zM341 409h82v-448q0 -95 -56 -143.5t-134 -48.5q-107 0 -170 69l43 58q51 -52 125 -52q45 0 77 30.5t32 89.5v92q-43 -64 -129 -64q-71 0 -109 44.5t-38 120.5v252h82v-253q0 -41 20.5 -65.5t62.5 -24.5q52 0 82 39.5t30 104.5v199z
" />
    <glyph glyph-name="ycircumflex.ss01" horiz-adv-x="492" 
d="M242 560l-89 -71l-34 42l114 103h17l113 -104l-32 -41zM341 409h82v-448q0 -95 -56 -143.5t-134 -48.5q-107 0 -170 69l43 58q51 -52 125 -52q45 0 77 30.5t32 89.5v92q-43 -64 -129 -64q-71 0 -109 44.5t-38 120.5v252h82v-253q0 -41 20.5 -65.5t62.5 -24.5
q52 0 82 39.5t30 104.5v199z" />
    <glyph glyph-name="ydieresis.ss01" horiz-adv-x="492" 
d="M161 522q-22 0 -36.5 15t-14.5 35q0 21 14 36.5t37 15.5t37 -15.5t14 -35.5t-14 -35.5t-37 -15.5zM322 522q-23 0 -37 15t-14 35q0 21 14 36.5t37 15.5q24 0 37.5 -15.5t13.5 -36.5q0 -20 -14 -35t-37 -15zM341 409h82v-448q0 -95 -56 -143.5t-134 -48.5q-107 0 -170 69
l43 58q51 -52 125 -52q45 0 77 30.5t32 89.5v91q-45 -63 -129 -63q-71 0 -109 44.5t-38 120.5v252h82v-253q0 -41 20.5 -65.5t62.5 -24.5q52 0 82 39.5t30 104.5v199z" />
    <glyph glyph-name="ygrave.ss01" horiz-adv-x="492" 
d="M289 500l-148 99l52 59l134 -115zM341 409h82v-448q0 -95 -56 -143.5t-134 -48.5q-107 0 -170 69l43 58q51 -52 125 -52q45 0 77 30.5t32 89.5v91q-45 -63 -129 -63q-71 0 -109 44.5t-38 120.5v252h82v-253q0 -41 20.5 -65.5t62.5 -24.5q52 0 82 39.5t30 104.5v199z" />
    <glyph glyph-name="f_b" horiz-adv-x="860" 
d="M615 419q90 0 147.5 -60t57.5 -152q0 -96 -57 -156.5t-148 -60.5q-100 0 -153 73l-14 -63h-60v612q-53 38 -112 38q-45 0 -69.5 -25t-24.5 -75v-141h123v-70h-123v-339h-83v339h-87v70h87v148q0 76 42 122t122 46q72 0 133 -44l7 32h67v-233q0 -66 -3 -128q54 67 148 67z
M603 63q60 0 97 39.5t37 102.5q0 62 -37 101.5t-97 39.5t-98 -39.5t-38 -101.5q0 -63 37.5 -102.5t98.5 -39.5z" />
    <glyph glyph-name="f_f_b" horiz-adv-x="1187" 
d="M942 419q90 0 147.5 -60t57.5 -152q0 -96 -57 -156.5t-148 -60.5q-100 0 -154 74l-13 -64h-60v610q-57 40 -122 40q-45 0 -69.5 -25t-24.5 -75v-141h120v-70h-120v-339h-83v339h-235v-339h-82v339h-87v70h87v160q0 70 37 113t108 43q57 0 101 -20l-23 -67q-28 12 -66 12
q-34 0 -54.5 -22t-20.5 -62v-157h235v148q0 75 42.5 121.5t121.5 46.5q80 0 142 -45l8 33h67v-233q0 -69 -3 -129q24 32 64 50t84 18zM930 63q60 0 97 39.5t37 102.5q0 62 -37 101.5t-97 39.5t-98 -39.5t-38 -101.5q0 -63 37.5 -102.5t98.5 -39.5z" />
    <glyph glyph-name="f_f_h" horiz-adv-x="1140" 
d="M924 420q72 0 112.5 -44.5t40.5 -117.5v-258h-83v254q0 41 -21.5 66.5t-62.5 25.5q-53 0 -83 -42t-30 -102v-202h-82v603q-32 26 -58.5 36.5t-63.5 10.5q-45 0 -69.5 -25t-24.5 -75v-141h119v-70h-119v-339h-83v339h-235v-339h-82v339h-87v70h87v160q0 70 37 113t108 43
q57 0 101 -20l-23 -67q-26 12 -66 12q-34 0 -54.5 -22t-20.5 -62v-157h235v148q0 76 42.5 122t122.5 46q79 0 140 -51l10 39h66v-301q0 -40 -1 -65q40 73 128 73z" />
    <glyph glyph-name="f_f_j" horiz-adv-x="866" 
d="M797 409v-427q0 -107 -41 -157t-148 -56l-11 71q72 5 95 36t23 103v360h-216v-339h-83v339h-235v-339h-82v339h-87v70h87v160q0 70 37 113t108 43q55 0 101 -20l-23 -67q-28 12 -66 12q-34 0 -54.5 -22t-20.5 -62v-157h235v137q0 85 44.5 132t130.5 47q91 0 172 -66
l-37 -56q-35 26 -61 36.5t-62 10.5q-104 0 -104 -106v-135h298z" />
    <glyph glyph-name="f_f_k" horiz-adv-x="1066" 
d="M867 211l194 -206v-5h-97l-167 178v-178h-82v610q-56 40 -122 40q-45 0 -69.5 -25t-24.5 -75v-141h119v-70h-119v-339h-83v339h-235v-339h-82v339h-87v70h87v160q0 70 37 113t108 43q57 0 101 -20l-23 -67q-27 12 -66 12q-34 0 -54.5 -22t-20.5 -62v-157h235v148
q0 76 42.5 122t122.5 46q83 0 142 -46l7 34h67v-471l151 167h96v-4z" />
    <glyph glyph-name="f_h" horiz-adv-x="813" 
d="M597 420q72 0 112 -44.5t40 -117.5v-258h-82v254q0 41 -21.5 66.5t-62.5 25.5q-53 0 -83 -42t-30 -102v-202h-82v612q-53 38 -113 38q-44 0 -69 -25t-25 -75v-141h124v-70h-124v-339h-82v339h-87v70h87v148q0 76 42 122t122 46q76 0 133 -44l7 32h67v-301q0 -39 -1 -64
q42 72 128 72z" />
    <glyph glyph-name="f_j" horiz-adv-x="546" 
d="M477 409v-427q0 -107 -41 -157t-148 -56l-11 71q72 5 95 36t23 103v360h-214v-339h-82v339h-87v70h87v137q0 86 44 132.5t131 46.5q102 0 186 -65l-35 -59q-67 49 -139 49q-105 0 -105 -106v-135h296z" />
    <glyph glyph-name="f_k" horiz-adv-x="738" 
d="M539 211l194 -206v-5h-97l-166 177v-177h-83v612q-53 38 -112 38q-44 0 -69 -25t-25 -75v-141h124v-70h-124v-339h-82v339h-87v70h87v148q0 76 42 122t122 46q74 0 133 -44l7 32h67v-471l151 167h96v-4z" />
    <glyph glyph-name="uni0414.loclBGR" horiz-adv-x="739" 
d="M659 82h72v-234h-88v152h-547v-152h-88v234h72l273 598h33zM369 529q-7 -29 -22 -61l-174 -388h390l-172 388q-15 36 -22 61z" />
    <glyph glyph-name="uni041B.loclBGR" horiz-adv-x="682" 
d="M355 685l320 -683v-2h-98l-208 455q-18 40 -28 77q-11 -36 -28 -77l-210 -455h-95v2l319 683h28z" />
    <glyph glyph-name="uni0424.loclBGR" horiz-adv-x="874" 
d="M825 341q0 -149 -92 -247.5t-251 -103.5v-102h-89v102q-153 5 -248.5 104.5t-95.5 245.5q0 148 92 246t252 105v102h89v-102q152 -5 247.5 -104.5t95.5 -245.5zM479 72q122 4 188.5 78.5t66.5 190.5q0 111 -69 187.5t-186 80.5v-537zM140 340q0 -111 69 -187.5t186 -80.5
v537q-121 -4 -188 -79t-67 -190z" />
    <glyph glyph-name="uni0414.ss02" horiz-adv-x="739" 
d="M659 82h72v-234h-88v152h-547v-152h-88v234h72l273 598h33zM369 529q-7 -29 -22 -61l-174 -388h390l-172 388q-15 36 -22 61z" />
    <glyph glyph-name="uni041B.ss02" horiz-adv-x="682" 
d="M355 685l320 -683v-2h-98l-208 455q-18 40 -28 77q-11 -36 -28 -77l-210 -455h-95v2l319 683h28z" />
    <glyph glyph-name="uni0424.ss02" horiz-adv-x="874" 
d="M825 341q0 -149 -92 -247.5t-251 -103.5v-102h-89v102q-153 5 -248.5 104.5t-95.5 245.5q0 148 92 246t252 105v102h89v-102q152 -5 247.5 -104.5t95.5 -245.5zM479 72q122 4 188.5 78.5t66.5 190.5q0 111 -69 187.5t-186 80.5v-537zM140 340q0 -111 69 -187.5t186 -80.5
v537q-121 -4 -188 -79t-67 -190z" />
    <glyph glyph-name="uni0414.ss03" horiz-adv-x="739" 
d="M659 82h72v-234h-88v152h-547v-152h-88v234h72l273 598h33zM369 529q-7 -29 -22 -61l-174 -388h390l-172 388q-15 36 -22 61z" />
    <glyph glyph-name="uni041B.ss03" horiz-adv-x="682" 
d="M355 685l320 -683v-2h-98l-208 455q-18 40 -28 77q-11 -36 -28 -77l-210 -455h-95v2l319 683h28z" />
    <glyph glyph-name="uni0424.ss03" horiz-adv-x="874" 
d="M825 341q0 -149 -92 -247.5t-251 -103.5v-102h-89v102q-153 5 -248.5 104.5t-95.5 245.5q0 148 92 246t252 105v102h89v-102q152 -5 247.5 -104.5t95.5 -245.5zM479 72q122 4 188.5 78.5t66.5 190.5q0 111 -69 187.5t-186 80.5v-537zM140 340q0 -111 69 -187.5t186 -80.5
v537q-121 -4 -188 -79t-67 -190z" />
    <glyph glyph-name="uni0432.loclBGR" horiz-adv-x="541" 
d="M364 379q63 -17 100.5 -65t37.5 -116q0 -98 -62.5 -153.5t-165.5 -55.5q-101 0 -157 70t-56 201v134q0 147 63 223t176 76q77 0 122.5 -40.5t45.5 -105.5q0 -104 -104 -168zM295 616q-70 0 -108 -58t-38 -156v-37l82 24q150 43 150 148q0 37 -22.5 58t-63.5 21zM279 65
q61 0 98 34.5t37 97.5q0 55 -33.5 90t-86.5 35q-41 0 -71 -10l-74 -20v-42q0 -185 130 -185z" />
    <glyph glyph-name="uni0433.loclBGR" horiz-adv-x="367" 
d="M180 -11q-66 0 -105.5 29.5t-39.5 86.5q0 91 124 133q47 15 64.5 28.5t17.5 33.5q0 22 -18 34t-42 12q-53 0 -100 -31l-29 61q62 39 136 39q59 0 95.5 -30.5t36.5 -81.5q0 -48 -29 -76t-98 -51q-38 -12 -56.5 -27t-18.5 -40q0 -49 70 -49q60 0 109 36l35 -60
q-68 -47 -152 -47z" />
    <glyph glyph-name="uni0434.loclBGR" horiz-adv-x="541" 
d="M415 409h57v-447q0 -97 -59.5 -145t-151.5 -48q-116 0 -190 74l43 58q57 -57 142 -57q61 0 97 30t36 90q0 57 2 87q-55 -61 -146 -61q-93 0 -149 62t-56 153t55 152.5t146 61.5q104 0 155 -68zM256 63q68 0 102.5 40t34.5 102q0 61 -34 101.5t-103 40.5q-63 0 -98 -40
t-35 -102t36 -102t97 -40z" />
    <glyph glyph-name="uni0436.loclBGR" horiz-adv-x="588" 
d="M408 212l175 -207v-5h-93l-155 186v-186h-82v185l-156 -185h-91v5l173 207l-154 194v3h93l135 -177v448h82v-448l134 177h94v-3z" />
    <glyph glyph-name="uni0437.loclBGR" horiz-adv-x="391" 
d="M161 -231q-97 0 -171 56l32 63q63 -46 134 -46q66 0 102.5 31t36.5 87q0 55 -35 85t-97 30h-68v69h66q44 0 73 29t29 73q0 46 -28 71t-78 25q-45 0 -110 -31l-29 62q75 42 149 42q83 0 130.5 -43t47.5 -118q0 -94 -78 -139q48 -14 79.5 -59.5t31.5 -102.5
q0 -85 -58 -134.5t-159 -49.5z" />
    <glyph glyph-name="uni0438.loclBGR" horiz-adv-x="491" 
d="M340 409h82v-409h-60l-17 63q-46 -71 -132 -71q-73 0 -111.5 44.5t-38.5 122.5v250h83v-245q0 -98 84 -98q51 0 80.5 40.5t29.5 97.5v205z" />
    <glyph glyph-name="uni0439.loclBGR" horiz-adv-x="491" 
d="M244 498q-87 0 -127 75l46 34q30 -49 81 -49q49 0 81 49l46 -34q-40 -75 -127 -75zM340 409h82v-409h-60l-17 63q-46 -71 -132 -71q-73 0 -111.5 44.5t-38.5 122.5v250h83v-245q0 -98 84 -98q51 0 80.5 40.5t29.5 97.5v205z" />
    <glyph glyph-name="uni045D.loclBGR" horiz-adv-x="494" 
d="M281 509l-148 99l52 59l134 -115zM340 409h82v-409h-60l-17 63q-46 -71 -132 -71q-73 0 -111.5 44.5t-38.5 122.5v250h83v-245q0 -98 84 -98q51 0 80.5 40.5t29.5 97.5v205z" />
    <glyph glyph-name="uni043A.loclBGR" horiz-adv-x="420" 
d="M222 211l193 -207v-4h-97l-166 177v-177h-83v680h83v-438l150 167h96v-3z" />
    <glyph glyph-name="uni043B.loclBGR" horiz-adv-x="430" 
d="M232 413l189 -411v-2h-90l-92 215q-15 37 -24 67q-9 -30 -24 -67l-92 -215h-90v2l189 411h34z" />
    <glyph glyph-name="uni043F.loclBGR" horiz-adv-x="494" 
d="M285 420q71 0 108.5 -44t37.5 -126v-250h-83v246q0 100 -77 100q-55 0 -87 -34.5t-32 -86.5v-225h-83v409h58l19 -62q49 73 139 73z" />
    <glyph glyph-name="uni0442.loclBGR" horiz-adv-x="751" 
d="M544 420q69 0 106.5 -43t37.5 -119v-258h-82v253q0 44 -20 68.5t-56 24.5q-53 0 -81.5 -40.5t-28.5 -94.5v-211h-83v255q0 39 -19 65t-57 26q-53 0 -81 -40.5t-28 -94.5v-211h-83v409h58l19 -63q44 74 131 74q93 0 126 -77q43 77 141 77z" />
    <glyph glyph-name="uni0446.loclBGR" horiz-adv-x="499" 
d="M468 71h13v-180h-76v114q-48 13 -57 60q-47 -73 -138 -73q-70 0 -108.5 44.5t-38.5 117.5v255h83v-253q0 -40 20 -65t60 -25q55 0 84.5 40t29.5 99v204h83v-300q0 -20 10.5 -29t34.5 -9z" />
    <glyph glyph-name="uni0448.loclBGR" horiz-adv-x="748" 
d="M596 409h83v-409h-61l-18 67q-43 -75 -128 -75q-44 0 -77 20.5t-49 57.5q-45 -78 -135 -78q-70 0 -109 43t-39 119v255h83v-252q0 -42 19.5 -66t55.5 -24q53 0 81 41.5t28 97.5v203h82v-252q0 -39 19 -64.5t57 -25.5q52 0 80 41.5t28 97.5v203z" />
    <glyph glyph-name="uni0449.loclBGR" horiz-adv-x="756" 
d="M725 71h13v-180h-77v114q-47 14 -56 58q-49 -71 -127 -71q-95 0 -132 78q-43 -78 -135 -78q-72 0 -110 44t-38 117v256h83v-252q0 -40 19 -65t56 -25q53 0 81 41.5t28 97.5v203h82v-252q0 -39 19 -64.5t57 -25.5q52 0 80 41.5t28 97.5v203h83v-299q0 -21 10.5 -30
t35.5 -9z" />
    <glyph glyph-name="uni044C.loclBGR" horiz-adv-x="441" 
d="M253 295q73 0 117 -41t44 -110q0 -70 -47.5 -111.5t-127.5 -41.5q-83 0 -129.5 43t-46.5 119v256h82v-146q44 32 108 32zM240 58q41 0 66.5 23.5t25.5 62.5q0 38 -25 60.5t-67 22.5q-46 0 -72 -22t-26 -60q0 -41 26 -64t72 -23z" />
    <glyph glyph-name="uni044A.loclBGR" horiz-adv-x="486" 
d="M298 295q71 0 115.5 -40t44.5 -110q0 -73 -47.5 -113.5t-126.5 -40.5q-82 0 -129.5 43.5t-47.5 118.5v184h-99v72h182v-146q42 32 108 32zM285 58q40 0 66 22.5t26 63.5q0 39 -26 61t-66 22q-46 0 -71.5 -21.5t-25.5 -61.5t26 -63t71 -23z" />
    <glyph glyph-name="uni044B.loclBGR" horiz-adv-x="662" 
d="M253 295q73 0 117 -41t44 -110q0 -70 -47.5 -111.5t-127.5 -41.5q-83 0 -129.5 43t-46.5 119v256h82v-146q44 32 108 32zM510 0v409h83v-409h-83zM240 58q41 0 66.5 23.5t25.5 62.5q0 38 -25 60.5t-67 22.5q-46 0 -72 -22t-26 -60q0 -41 26 -64t72 -23z" />
    <glyph glyph-name="uni0430.ss01" horiz-adv-x="541" 
d="M410 409h62v-409h-62l-13 61q-56 -71 -155 -71q-90 0 -146 59.5t-56 154.5q0 96 56.5 155.5t149.5 59.5q92 0 148 -69zM256 63q62 0 99.5 38.5t37.5 102.5t-37.5 103t-99.5 39q-60 0 -96.5 -39t-36.5 -103t36.5 -102.5t96.5 -38.5z" />
    <glyph glyph-name="uni0435.ss01" horiz-adv-x="450" 
d="M259 58q62 0 115 43l37 -54q-64 -59 -157 -59q-98 0 -156.5 61t-58.5 156q0 91 57 153.5t154 62.5q74 0 121.5 -41.5t47.5 -101.5q0 -118 -173 -118q-60 0 -123 7q10 -50 46.5 -79.5t89.5 -29.5zM252 351q-54 0 -88.5 -33t-42.5 -89q68 -8 118 -8q49 0 76.5 12.5
t27.5 47.5q0 31 -26 50.5t-65 19.5z" />
    <glyph glyph-name="uni0443.ss01" horiz-adv-x="492" 
d="M341 409h82v-448q0 -95 -56 -143.5t-134 -48.5q-107 0 -170 69l43 58q51 -52 125 -52q45 0 77 30.5t32 89.5v91q-45 -63 -129 -63q-71 0 -109 44.5t-38 120.5v252h82v-253q0 -41 20.5 -65.5t62.5 -24.5q52 0 82 39.5t30 104.5v199z" />
    <glyph glyph-name="uni0432.ss02" horiz-adv-x="541" 
d="M364 379q63 -17 100.5 -65t37.5 -116q0 -98 -62.5 -153.5t-165.5 -55.5q-101 0 -157 70t-56 201v134q0 147 63 223t176 76q77 0 122.5 -40.5t45.5 -105.5q0 -104 -104 -168zM295 616q-70 0 -108 -58t-38 -156v-37l82 24q150 43 150 148q0 37 -22.5 58t-63.5 21zM279 65
q61 0 98 34.5t37 97.5q0 55 -33.5 90t-86.5 35q-41 0 -71 -10l-74 -20v-42q0 -185 130 -185z" />
    <glyph glyph-name="uni0433.ss02" horiz-adv-x="367" 
d="M180 -11q-66 0 -105.5 29.5t-39.5 86.5q0 91 124 133q47 15 64.5 28.5t17.5 33.5q0 22 -18 34t-42 12q-53 0 -100 -31l-29 61q62 39 136 39q59 0 95.5 -30.5t36.5 -81.5q0 -48 -29 -76t-98 -51q-38 -12 -56.5 -27t-18.5 -40q0 -49 70 -49q60 0 109 36l35 -60
q-68 -47 -152 -47z" />
    <glyph glyph-name="uni0434.ss02" horiz-adv-x="541" 
d="M415 409h57v-447q0 -97 -59.5 -145t-151.5 -48q-116 0 -190 74l43 58q57 -57 142 -57q61 0 97 30t36 90q0 57 2 87q-55 -61 -146 -61q-93 0 -149 62t-56 153t55 152.5t146 61.5q104 0 155 -68zM256 63q68 0 102.5 40t34.5 102q0 61 -34 101.5t-103 40.5q-63 0 -98 -40
t-35 -102t36 -102t97 -40z" />
    <glyph glyph-name="uni0436.ss02" horiz-adv-x="588" 
d="M408 212l175 -207v-5h-93l-155 186v-186h-82v185l-156 -185h-91v5l173 207l-154 194v3h93l135 -177v448h82v-448l134 177h94v-3z" />
    <glyph glyph-name="uni0437.ss02" horiz-adv-x="391" 
d="M161 -231q-97 0 -171 56l32 63q63 -46 134 -46q66 0 102.5 31t36.5 87q0 55 -35 85t-97 30h-68v69h66q44 0 73 29t29 73q0 46 -28 71t-78 25q-45 0 -110 -31l-29 62q75 42 149 42q83 0 130.5 -43t47.5 -118q0 -94 -78 -139q48 -14 79.5 -59.5t31.5 -102.5
q0 -85 -58 -134.5t-159 -49.5z" />
    <glyph glyph-name="uni0438.ss02" horiz-adv-x="491" 
d="M340 409h82v-409h-60l-17 63q-46 -71 -132 -71q-73 0 -111.5 44.5t-38.5 122.5v250h83v-245q0 -98 84 -98q51 0 80.5 40.5t29.5 97.5v205z" />
    <glyph glyph-name="uni0439.ss02" horiz-adv-x="491" 
d="M244 498q-87 0 -127 75l46 34q30 -49 81 -49q49 0 81 49l46 -34q-40 -75 -127 -75zM340 409h82v-409h-60l-17 63q-46 -71 -132 -71q-73 0 -111.5 44.5t-38.5 122.5v250h83v-245q0 -98 84 -98q51 0 80.5 40.5t29.5 97.5v205z" />
    <glyph glyph-name="uni045D.ss02" horiz-adv-x="491" 
d="M291 500l-148 99l52 59l134 -115zM340 409h82v-409h-60l-17 63q-46 -71 -132 -71q-73 0 -111.5 44.5t-38.5 122.5v250h83v-245q0 -98 84 -98q51 0 80.5 40.5t29.5 97.5v205z" />
    <glyph glyph-name="uni043A.ss02" horiz-adv-x="420" 
d="M222 211l193 -207v-4h-97l-166 177v-177h-83v680h83v-438l150 167h96v-3z" />
    <glyph glyph-name="uni043B.ss02" horiz-adv-x="430" 
d="M232 413l189 -411v-2h-90l-92 215q-15 37 -24 67q-9 -30 -24 -67l-92 -215h-90v2l189 411h34z" />
    <glyph glyph-name="uni043F.ss02" horiz-adv-x="494" 
d="M285 420q71 0 108.5 -44t37.5 -126v-250h-83v246q0 100 -77 100q-55 0 -87 -34.5t-32 -86.5v-225h-83v409h58l19 -62q49 73 139 73z" />
    <glyph glyph-name="uni0442.ss02" horiz-adv-x="751" 
d="M544 420q69 0 106.5 -43t37.5 -119v-258h-82v253q0 44 -20 68.5t-56 24.5q-53 0 -81.5 -40.5t-28.5 -94.5v-211h-83v255q0 39 -19 65t-57 26q-53 0 -81 -40.5t-28 -94.5v-211h-83v409h58l19 -63q44 74 131 74q93 0 126 -77q43 77 141 77z" />
    <glyph glyph-name="uni0446.ss02" horiz-adv-x="499" 
d="M468 71h13v-180h-76v114q-48 13 -57 60q-47 -73 -138 -73q-70 0 -108.5 44.5t-38.5 117.5v255h83v-253q0 -40 20 -65t60 -25q55 0 84.5 40t29.5 99v204h83v-300q0 -20 10.5 -29t34.5 -9z" />
    <glyph glyph-name="uni0448.ss02" horiz-adv-x="748" 
d="M596 409h83v-409h-61l-18 67q-43 -75 -128 -75q-44 0 -77 20.5t-49 57.5q-45 -78 -135 -78q-70 0 -109 43t-39 119v255h83v-252q0 -42 19.5 -66t55.5 -24q53 0 81 41.5t28 97.5v203h82v-252q0 -39 19 -64.5t57 -25.5q52 0 80 41.5t28 97.5v203z" />
    <glyph glyph-name="uni0449.ss02" horiz-adv-x="756" 
d="M725 71h13v-180h-77v114q-47 14 -56 58q-49 -71 -127 -71q-95 0 -132 78q-43 -78 -135 -78q-72 0 -110 44t-38 117v256h83v-252q0 -40 19 -65t56 -25q53 0 81 41.5t28 97.5v203h82v-252q0 -39 19 -64.5t57 -25.5q52 0 80 41.5t28 97.5v203h83v-299q0 -21 10.5 -30
t35.5 -9z" />
    <glyph glyph-name="uni044C.ss02" horiz-adv-x="445" 
d="M257 295q73 0 117 -41t44 -110q0 -70 -47.5 -111.5t-127.5 -41.5q-83 0 -129.5 43t-46.5 119v256h82v-146q44 32 108 32zM244 58q41 0 66.5 23.5t25.5 62.5q0 38 -25 60.5t-67 22.5q-46 0 -72 -22t-26 -60q0 -41 26 -64t72 -23z" />
    <glyph glyph-name="uni044A.ss02" horiz-adv-x="486" 
d="M298 295q71 0 115.5 -40t44.5 -110q0 -73 -47.5 -113.5t-126.5 -40.5q-82 0 -129.5 43.5t-47.5 118.5v184h-99v72h182v-146q42 32 108 32zM285 58q40 0 66 22.5t26 63.5q0 39 -26 61t-66 22q-46 0 -71.5 -21.5t-25.5 -61.5t26 -63t71 -23z" />
    <glyph glyph-name="uni044B.ss02" horiz-adv-x="662" 
d="M253 295q73 0 117 -41t44 -110q0 -70 -47.5 -111.5t-127.5 -41.5q-83 0 -129.5 43t-46.5 119v256h82v-146q44 32 108 32zM510 0v409h83v-409h-83zM240 58q41 0 66.5 23.5t25.5 62.5q0 38 -25 60.5t-67 22.5q-46 0 -72 -22t-26 -60q0 -41 26 -64t72 -23z" />
    <glyph glyph-name="uni0430.ss03" horiz-adv-x="541" 
d="M410 409h62v-409h-62l-13 61q-56 -71 -155 -71q-90 0 -146 59.5t-56 154.5q0 96 56.5 155.5t149.5 59.5q92 0 148 -69zM256 63q62 0 99.5 38.5t37.5 102.5t-37.5 103t-99.5 39q-60 0 -96.5 -39t-36.5 -103t36.5 -102.5t96.5 -38.5z" />
    <glyph glyph-name="uni0432.ss03" horiz-adv-x="541" 
d="M364 379q63 -17 100.5 -65t37.5 -116q0 -98 -62.5 -153.5t-165.5 -55.5q-101 0 -157 70t-56 201v134q0 147 63 223t176 76q77 0 122.5 -40.5t45.5 -105.5q0 -104 -104 -168zM295 616q-70 0 -108 -58t-38 -156v-37l82 24q150 43 150 148q0 37 -22.5 58t-63.5 21zM279 65
q61 0 98 34.5t37 97.5q0 55 -33.5 90t-86.5 35q-41 0 -71 -10l-74 -20v-42q0 -185 130 -185z" />
    <glyph glyph-name="uni0433.ss03" horiz-adv-x="367" 
d="M180 -11q-66 0 -105.5 29.5t-39.5 86.5q0 91 124 133q47 15 64.5 28.5t17.5 33.5q0 22 -18 34t-42 12q-53 0 -100 -31l-29 61q62 39 136 39q59 0 95.5 -30.5t36.5 -81.5q0 -48 -29 -76t-98 -51q-38 -12 -56.5 -27t-18.5 -40q0 -49 70 -49q60 0 109 36l35 -60
q-68 -47 -152 -47z" />
    <glyph glyph-name="uni0434.ss03" horiz-adv-x="541" 
d="M415 409h57v-447q0 -97 -59.5 -145t-151.5 -48q-116 0 -190 74l43 58q57 -57 142 -57q61 0 97 30t36 90q0 57 2 87q-55 -61 -146 -61q-93 0 -149 62t-56 153t55 152.5t146 61.5q104 0 155 -68zM256 63q68 0 102.5 40t34.5 102q0 61 -34 101.5t-103 40.5q-63 0 -98 -40
t-35 -102t36 -102t97 -40z" />
    <glyph glyph-name="uni0435.ss03" horiz-adv-x="450" 
d="M259 58q62 0 115 43l37 -54q-64 -59 -157 -59q-98 0 -156.5 61t-58.5 156q0 91 57 153.5t154 62.5q74 0 121.5 -41.5t47.5 -101.5q0 -118 -173 -118q-60 0 -123 7q10 -50 46.5 -79.5t89.5 -29.5zM252 351q-54 0 -88.5 -33t-42.5 -89q68 -8 118 -8q49 0 76.5 12.5
t27.5 47.5q0 31 -26 50.5t-65 19.5z" />
    <glyph glyph-name="uni0436.ss03" horiz-adv-x="588" 
d="M408 212l175 -207v-5h-93l-155 186v-186h-82v185l-156 -185h-91v5l173 207l-154 194v3h93l135 -177v448h82v-448l134 177h94v-3z" />
    <glyph glyph-name="uni0437.ss03" horiz-adv-x="391" 
d="M161 -231q-97 0 -171 56l32 63q63 -46 134 -46q66 0 102.5 31t36.5 87q0 55 -35 85t-97 30h-68v69h66q44 0 73 29t29 73q0 46 -28 71t-78 25q-45 0 -110 -31l-29 62q75 42 149 42q83 0 130.5 -43t47.5 -118q0 -94 -78 -139q48 -14 79.5 -59.5t31.5 -102.5
q0 -85 -58 -134.5t-159 -49.5z" />
    <glyph glyph-name="uni0438.ss03" horiz-adv-x="491" 
d="M340 409h82v-409h-60l-17 63q-46 -71 -132 -71q-73 0 -111.5 44.5t-38.5 122.5v250h83v-245q0 -98 84 -98q51 0 80.5 40.5t29.5 97.5v205z" />
    <glyph glyph-name="uni0439.ss03" horiz-adv-x="491" 
d="M244 498q-87 0 -127 75l46 34q30 -49 81 -49q49 0 81 49l46 -34q-40 -75 -127 -75zM340 409h82v-409h-60l-17 63q-46 -71 -132 -71q-73 0 -111.5 44.5t-38.5 122.5v250h83v-245q0 -98 84 -98q51 0 80.5 40.5t29.5 97.5v205z" />
    <glyph glyph-name="uni045D.ss03" horiz-adv-x="494" 
d="M281 509l-148 99l52 59l134 -115zM340 409h82v-409h-60l-17 63q-46 -71 -132 -71q-73 0 -111.5 44.5t-38.5 122.5v250h83v-245q0 -98 84 -98q51 0 80.5 40.5t29.5 97.5v205z" />
    <glyph glyph-name="uni043A.ss03" horiz-adv-x="420" 
d="M222 211l193 -207v-4h-97l-166 177v-177h-83v680h83v-438l150 167h96v-3z" />
    <glyph glyph-name="uni043B.ss03" horiz-adv-x="430" 
d="M232 413l189 -411v-2h-90l-92 215q-15 37 -24 67q-9 -30 -24 -67l-92 -215h-90v2l189 411h34z" />
    <glyph glyph-name="uni043F.ss03" horiz-adv-x="494" 
d="M285 420q71 0 108.5 -44t37.5 -126v-250h-83v246q0 100 -77 100q-55 0 -87 -34.5t-32 -86.5v-225h-83v409h58l19 -62q49 73 139 73z" />
    <glyph glyph-name="uni0442.ss03" horiz-adv-x="751" 
d="M544 420q69 0 106.5 -43t37.5 -119v-258h-82v253q0 44 -20 68.5t-56 24.5q-53 0 -81.5 -40.5t-28.5 -94.5v-211h-83v255q0 39 -19 65t-57 26q-53 0 -81 -40.5t-28 -94.5v-211h-83v409h58l19 -63q44 74 131 74q93 0 126 -77q43 77 141 77z" />
    <glyph glyph-name="uni0443.ss03" horiz-adv-x="492" 
d="M341 409h82v-448q0 -95 -56 -143.5t-134 -48.5q-107 0 -170 69l43 58q51 -52 125 -52q45 0 77 30.5t32 89.5v91q-45 -63 -129 -63q-71 0 -109 44.5t-38 120.5v252h82v-253q0 -41 20.5 -65.5t62.5 -24.5q52 0 82 39.5t30 104.5v199z" />
    <glyph glyph-name="uni0446.ss03" horiz-adv-x="499" 
d="M468 71h13v-180h-76v114q-48 13 -57 60q-47 -73 -138 -73q-70 0 -108.5 44.5t-38.5 117.5v255h83v-253q0 -40 20 -65t60 -25q55 0 84.5 40t29.5 99v204h83v-300q0 -20 10.5 -29t34.5 -9z" />
    <glyph glyph-name="uni0448.ss03" horiz-adv-x="748" 
d="M596 409h83v-409h-61l-18 67q-43 -75 -128 -75q-44 0 -77 20.5t-49 57.5q-45 -78 -135 -78q-70 0 -109 43t-39 119v255h83v-252q0 -42 19.5 -66t55.5 -24q53 0 81 41.5t28 97.5v203h82v-252q0 -39 19 -64.5t57 -25.5q52 0 80 41.5t28 97.5v203z" />
    <glyph glyph-name="uni0449.ss03" horiz-adv-x="756" 
d="M725 71h13v-180h-77v114q-47 14 -56 58q-49 -71 -127 -71q-95 0 -132 78q-43 -78 -135 -78q-72 0 -110 44t-38 117v256h83v-252q0 -40 19 -65t56 -25q53 0 81 41.5t28 97.5v203h82v-252q0 -39 19 -64.5t57 -25.5q52 0 80 41.5t28 97.5v203h83v-299q0 -21 10.5 -30
t35.5 -9z" />
    <glyph glyph-name="uni044C.ss03" horiz-adv-x="445" 
d="M257 295q73 0 117 -41t44 -110q0 -70 -47.5 -111.5t-127.5 -41.5q-83 0 -129.5 43t-46.5 119v256h82v-146q44 32 108 32zM244 58q41 0 66.5 23.5t25.5 62.5q0 38 -25 60.5t-67 22.5q-46 0 -72 -22t-26 -60q0 -41 26 -64t72 -23z" />
    <glyph glyph-name="uni044A.ss03" horiz-adv-x="486" 
d="M298 295q71 0 115.5 -40t44.5 -110q0 -73 -47.5 -113.5t-126.5 -40.5q-82 0 -129.5 43.5t-47.5 118.5v184h-99v72h182v-146q42 32 108 32zM285 58q40 0 66 22.5t26 63.5q0 39 -26 61t-66 22q-46 0 -71.5 -21.5t-25.5 -61.5t26 -63t71 -23z" />
    <glyph glyph-name="uni044B.ss03" horiz-adv-x="662" 
d="M253 295q73 0 117 -41t44 -110q0 -70 -47.5 -111.5t-127.5 -41.5q-83 0 -129.5 43t-46.5 119v256h82v-146q44 32 108 32zM510 0v409h83v-409h-83zM240 58q41 0 66.5 23.5t25.5 62.5q0 38 -25 60.5t-67 22.5q-46 0 -72 -22t-26 -60q0 -41 26 -64t72 -23z" />
    <glyph glyph-name="zero.sinf" horiz-adv-x="314" 
d="M157 -70q-58 0 -85 45.5t-27 106.5q0 60 27 105.5t85 45.5t85 -45.5t27 -105.5q0 -61 -27 -106.5t-85 -45.5zM157 -18q56 0 56 100t-56 100t-56 -100t56 -100z" />
    <glyph glyph-name="one.sinf" horiz-adv-x="214" 
d="M99 -60v188l-36 -34l-35 34l104 99h20v-287h-53z" />
    <glyph glyph-name="two.sinf" horiz-adv-x="280" 
d="M140 -11h100v-49h-194v16l106 140q23 31 23 53q0 35 -36 35q-27 0 -45 -37l-43 20q23 66 90 66q40 0 64.5 -24t24.5 -59q0 -39 -32 -84z" />
    <glyph glyph-name="three.sinf" horiz-adv-x="285" 
d="M136 -70q-59 0 -93 35l30 38q21 -24 59 -24q24 0 38 12t14 33q0 41 -54 41h-31v46h27q45 0 45 37q0 16 -11.5 25.5t-26.5 9.5q-28 0 -47 -17l-33 35q35 32 86 32q34 0 60 -21.5t26 -55.5q0 -46 -39 -65q22 -5 37.5 -25.5t15.5 -45.5q0 -41 -28.5 -65.5t-74.5 -24.5z" />
    <glyph glyph-name="four.sinf" horiz-adv-x="302" 
d="M167 -60v50h-136v17l170 220h17v-192h35v-45h-35v-50h-51zM109 35h59v77z" />
    <glyph glyph-name="five.sinf" horiz-adv-x="285" 
d="M137 -70q-58 0 -92 37l36 36q20 -23 54 -23q23 0 36 13.5t13 35.5q0 24 -17.5 36.5t-45.5 12.5q-22 0 -49 -8l-6 7l17 146h141v-51h-96l-7 -54q3 0 10 0.5t11 0.5q41 0 69 -23.5t28 -67.5q0 -45 -28.5 -71.5t-73.5 -26.5z" />
    <glyph glyph-name="six.sinf" horiz-adv-x="292" 
d="M159 119q38 0 63 -24.5t25 -67.5q0 -42 -27 -69.5t-70 -27.5q-51 0 -77.5 34t-26.5 86v11q0 75 41 123t118 48l8 -50q-87 5 -108 -82q22 19 54 19zM149 -21q22 0 33.5 12.5t11.5 32.5q0 46 -46 46q-20 0 -33 -12.5t-13 -33.5q0 -19 12.5 -32t34.5 -13z" />
    <glyph glyph-name="seven.sinf" horiz-adv-x="273" 
d="M60 -60l96 232h-110v51h182v-11l-112 -272h-56z" />
    <glyph glyph-name="eight.sinf" horiz-adv-x="295" 
d="M148 -70q-45 0 -74 23.5t-29 67.5q0 49 45 71q-31 25 -31 63q0 36 26 57t64 21q37 0 62 -20.5t25 -55.5q0 -43 -33 -63q47 -24 47 -73q0 -45 -28.5 -68t-73.5 -23zM149 115q14 0 23.5 10t9.5 24q0 16 -9.5 26.5t-23.5 10.5q-16 0 -26 -10.5t-10 -26.5q0 -14 10 -24
t26 -10zM148 -22q21 0 34 12.5t13 32.5t-13.5 33.5t-34.5 13.5t-34.5 -13.5t-13.5 -33.5q0 -19 14 -32t35 -13z" />
    <glyph glyph-name="nine.sinf" horiz-adv-x="291" 
d="M143 233q51 0 77 -34t26 -86v-11q0 -75 -41 -123t-117 -48l-9 50q88 -5 109 82q-22 -19 -55 -19q-38 0 -63 24.5t-25 67.5q0 42 27.5 69.5t70.5 27.5zM145 93q20 0 32.5 12.5t12.5 33.5q0 19 -12.5 32t-34.5 13q-21 0 -32.5 -12.5t-11.5 -32.5q0 -46 46 -46z" />
    <glyph glyph-name="zero.tf" horiz-adv-x="548" 
d="M274 -11q-111 0 -176.5 92.5t-65.5 249.5q0 156 65.5 248.5t176.5 92.5t176.5 -92.5t65.5 -248.5q0 -157 -65.5 -249.5t-176.5 -92.5zM274 71q70 0 111 70.5t41 189.5q0 118 -41 189t-111 71t-111 -71t-41 -189q0 -119 41 -189.5t111 -70.5z" />
    <glyph glyph-name="one.tf" horiz-adv-x="548" 
d="M347 78h150v-78h-404v78h166v391q0 46 4 75q-30 -20 -45 -29l-144 -88l-39 65l274 178h38v-592z" />
    <glyph glyph-name="two.tf" horiz-adv-x="548" 
d="M262 80h207v-80h-416v29l256 325q62 78 62 133q0 45 -28.5 74t-79.5 29q-78 0 -133 -77l-62 48q77 111 200 111q90 0 141.5 -49.5t51.5 -127.5q0 -48 -17 -90.5t-67 -105.5l-137 -173l-39 -48q40 2 61 2z" />
    <glyph glyph-name="three.tf" horiz-adv-x="548" 
d="M257 -11q-133 0 -213 86l55 59q56 -63 156 -63q61 0 100 34.5t39 87.5q0 115 -162 115h-65v78h63q65 0 98.5 32t33.5 76q0 42 -32 70t-83 28q-80 0 -131 -62l-50 58q75 84 185 84q89 0 145 -49.5t56 -125.5q0 -43 -25.5 -82.5t-72.5 -60.5q64 -17 97.5 -64.5t33.5 -103.5
q0 -86 -64 -141.5t-164 -55.5z" />
    <glyph glyph-name="four.tf" horiz-adv-x="548" 
d="M434 212h75v-77h-75v-135h-85v135h-321v34l370 501h36v-458zM351 212v198q0 47 2 75l-42 -58l-120 -164q-27 -37 -40 -52q24 1 73 1h127z" />
    <glyph glyph-name="five.tf" horiz-adv-x="548" 
d="M251 406q107 0 173 -53t66 -148q0 -94 -65.5 -154.5t-169.5 -60.5q-126 0 -206 87l53 59q54 -63 149 -63q66 0 107.5 37.5t41.5 95.5q0 65 -45.5 96t-119.5 31q-58 0 -128 -19l-13 13l34 334h331v-80h-256l-18 -179q31 4 66 4z" />
    <glyph glyph-name="six.tf" horiz-adv-x="548" 
d="M297 410q88 0 148 -54t60 -151q0 -95 -60 -155.5t-158 -60.5q-113 0 -169.5 71t-56.5 186v12q0 178 86 287t270 127l11 -77q-121 -10 -190.5 -72.5t-85.5 -168.5q51 56 145 56zM286 71q57 0 94 36.5t37 96.5q0 62 -37.5 96t-93.5 34q-60 0 -98 -35.5t-38 -96.5
q0 -58 38 -94.5t98 -36.5z" />
    <glyph glyph-name="seven.tf" horiz-adv-x="548" 
d="M39 661h461v-27l-270 -634h-92l218 512q10 23 32 71q-48 -2 -74 -2h-275v80z" />
    <glyph glyph-name="eight.tf" horiz-adv-x="548" 
d="M274 -10q-103 0 -165 52.5t-62 142.5q0 60 32.5 105t91.5 62q-105 37 -105 145q0 78 58 126.5t152 48.5q93 0 149 -48.5t56 -126.5q0 -52 -28 -89.5t-72 -55.5q52 -16 86.5 -63t34.5 -106q0 -89 -62 -141t-166 -52zM276 390q54 0 86 29t32 75q0 44 -32.5 71.5t-85.5 27.5
q-54 0 -88 -27.5t-34 -71.5q0 -47 33 -75.5t89 -28.5zM274 71q60 0 98.5 31t38.5 86q0 56 -37 90t-102 34q-61 0 -98 -34.5t-37 -89.5q0 -53 39 -85t98 -32z" />
    <glyph glyph-name="nine.tf" horiz-adv-x="548" 
d="M261 672q113 0 169.5 -70.5t56.5 -185.5v-12q0 -179 -86 -288t-270 -127l-12 77q122 10 191 73t86 169q-51 -57 -145 -57q-89 0 -149 54t-60 152q0 95 60.5 155t158.5 60zM262 327q60 0 97.5 35.5t37.5 96.5q0 58 -37.5 94.5t-97.5 36.5q-57 0 -94 -36.5t-37 -96.5
q0 -62 37.5 -96t93.5 -34z" />
    <glyph glyph-name="zero.dnom" horiz-adv-x="314" 
d="M157 -10q-58 0 -85 45.5t-27 106.5q0 60 27 105.5t85 45.5t85 -45.5t27 -105.5q0 -61 -27 -106.5t-85 -45.5zM157 42q56 0 56 100t-56 100t-56 -100t56 -100z" />
    <glyph glyph-name="one.dnom" horiz-adv-x="214" 
d="M99 0v188l-36 -34l-35 34l104 99h20v-287h-53z" />
    <glyph glyph-name="two.dnom" horiz-adv-x="280" 
d="M139 49h101v-49h-194v16l106 140q23 31 23 53q0 35 -36 35q-27 0 -45 -37l-43 20q23 66 90 66q40 0 64.5 -24t24.5 -59q0 -39 -32 -84z" />
    <glyph glyph-name="three.dnom" horiz-adv-x="285" 
d="M136 -10q-60 0 -93 36l30 37q21 -24 59 -24q24 0 38 12t14 33q0 41 -54 41h-31v46h27q45 0 45 37q0 16 -11.5 25.5t-26.5 9.5q-28 0 -47 -17l-33 35q35 32 86 32q34 0 60 -21.5t26 -55.5q0 -46 -39 -65q22 -5 37.5 -25.5t15.5 -45.5q0 -41 -28.5 -65.5t-74.5 -24.5z" />
    <glyph glyph-name="four.dnom" horiz-adv-x="302" 
d="M167 0v50h-136v17l170 220h17v-192h35v-45h-35v-50h-51zM109 95h59v77z" />
    <glyph glyph-name="five.dnom" horiz-adv-x="285" 
d="M137 -10q-58 0 -92 38l36 35q20 -23 54 -23q23 0 36 13.5t13 35.5q0 24 -17.5 36.5t-45.5 12.5q-22 0 -49 -8l-6 7l17 146h141v-51h-96l-7 -54q3 0 10 0.5t11 0.5q41 0 69 -23.5t28 -67.5q0 -45 -28.5 -71.5t-73.5 -26.5z" />
    <glyph glyph-name="six.dnom" horiz-adv-x="292" 
d="M159 179q38 0 63 -24.5t25 -67.5q0 -42 -27 -69.5t-70 -27.5q-51 0 -77.5 34t-26.5 86v11q0 75 41 123t118 48l8 -50q-87 5 -108 -82q22 19 54 19zM149 39q22 0 33.5 12.5t11.5 32.5q0 46 -46 46q-20 0 -33 -12.5t-13 -33.5q0 -19 12.5 -32t34.5 -13z" />
    <glyph glyph-name="seven.dnom" horiz-adv-x="273" 
d="M60 0l96 232h-110v51h182v-11l-112 -272h-56z" />
    <glyph glyph-name="eight.dnom" horiz-adv-x="295" 
d="M148 -10q-45 0 -74 23.5t-29 67.5q0 49 45 71q-31 25 -31 63q0 36 26 57t64 21q37 0 62 -20.5t25 -55.5q0 -43 -33 -63q47 -24 47 -73q0 -45 -28.5 -68t-73.5 -23zM149 175q14 0 23.5 10t9.5 24q0 16 -9.5 26.5t-23.5 10.5q-16 0 -26 -10.5t-10 -26.5q0 -14 10 -24
t26 -10zM148 38q21 0 34 12.5t13 32.5t-13.5 33.5t-34.5 13.5t-34.5 -13.5t-13.5 -33.5q0 -19 14 -32t35 -13z" />
    <glyph glyph-name="nine.dnom" horiz-adv-x="291" 
d="M143 293q51 0 77 -34t26 -86v-11q0 -75 -41 -123t-117 -48l-9 50q89 -3 109 82q-22 -19 -55 -19q-38 0 -63 24.5t-25 67.5q0 42 27.5 69.5t70.5 27.5zM145 153q20 0 32.5 12.5t12.5 33.5q0 19 -12.5 32t-34.5 13q-21 0 -32.5 -12.5t-11.5 -32.5q0 -46 46 -46z" />
    <glyph glyph-name="zero.numr" horiz-adv-x="314" 
d="M157 387q-58 0 -85 45.5t-27 106.5q0 60 27 105.5t85 45.5t85 -45.5t27 -105.5q0 -61 -27 -106.5t-85 -45.5zM157 439q56 0 56 100t-56 100t-56 -100t56 -100z" />
    <glyph glyph-name="one.numr" horiz-adv-x="214" 
d="M99 397v188l-36 -34l-35 34l104 99h20v-287h-53z" />
    <glyph glyph-name="two.numr" horiz-adv-x="280" 
d="M139 446h101v-49h-194v16l106 140q23 31 23 53q0 35 -36 35q-27 0 -45 -37l-43 20q23 66 90 66q40 0 64.5 -24t24.5 -59q0 -39 -32 -84z" />
    <glyph glyph-name="three.numr" horiz-adv-x="285" 
d="M136 387q-60 0 -93 36l30 37q21 -24 59 -24q24 0 38 12t14 33q0 41 -54 41h-31v46h27q45 0 45 37q0 16 -11.5 25.5t-26.5 9.5q-28 0 -47 -17l-33 35q35 32 86 32q34 0 60 -21.5t26 -55.5q0 -46 -39 -65q22 -5 37.5 -25.5t15.5 -45.5q0 -41 -28.5 -65.5t-74.5 -24.5z" />
    <glyph glyph-name="four.numr" horiz-adv-x="302" 
d="M167 397v50h-136v17l170 220h17v-192h35v-45h-35v-50h-51zM109 492h59v77z" />
    <glyph glyph-name="five.numr" horiz-adv-x="285" 
d="M137 387q-58 0 -92 38l36 35q20 -23 54 -23q23 0 36 13.5t13 35.5q0 24 -17.5 36.5t-45.5 12.5q-22 0 -49 -8l-6 7l17 146h141v-51h-96l-7 -54q3 0 10 0.5t11 0.5q41 0 69 -23.5t28 -67.5q0 -45 -28.5 -71.5t-73.5 -26.5z" />
    <glyph glyph-name="six.numr" horiz-adv-x="292" 
d="M159 578q38 0 63 -24.5t25 -67.5q0 -42 -27 -69.5t-70 -27.5q-51 0 -77.5 34t-26.5 86v11q0 75 41 123t118 48l8 -50q-87 5 -108 -82q22 19 54 19zM149 438q22 0 33.5 12.5t11.5 32.5q0 46 -46 46q-20 0 -33 -12.5t-13 -33.5q0 -19 12.5 -32t34.5 -13z" />
    <glyph glyph-name="seven.numr" horiz-adv-x="273" 
d="M60 397l96 232h-110v51h182v-11l-112 -272h-56z" />
    <glyph glyph-name="eight.numr" horiz-adv-x="295" 
d="M148 387q-45 0 -74 23.5t-29 67.5q0 49 45 71q-31 25 -31 63q0 36 26 57t64 21q37 0 62 -20.5t25 -55.5q0 -43 -33 -63q47 -23 47 -73q0 -45 -28.5 -68t-73.5 -23zM149 572q14 0 23.5 10t9.5 24q0 16 -9.5 26.5t-23.5 10.5q-16 0 -26 -10.5t-10 -26.5q0 -14 10 -24
t26 -10zM148 435q21 0 34 12.5t13 32.5t-13.5 33.5t-34.5 13.5t-34.5 -13.5t-13.5 -33.5q0 -19 14 -32t35 -13z" />
    <glyph glyph-name="nine.numr" horiz-adv-x="291" 
d="M143 690q51 0 77 -34t26 -86v-11q0 -75 -41 -123t-117 -48l-9 50q89 -3 109 82q-22 -19 -55 -19q-38 0 -63 24.5t-25 67.5q0 42 27.5 69.5t70.5 27.5zM145 550q20 0 32.5 12.5t12.5 33.5q0 19 -12.5 32t-34.5 13q-21 0 -32.5 -12.5t-11.5 -32.5q0 -46 46 -46z" />
    <glyph glyph-name="zero.sups" horiz-adv-x="314" 
d="M157 387q-58 0 -85 45.5t-27 106.5q0 60 27 105.5t85 45.5t85 -45.5t27 -105.5q0 -61 -27 -106.5t-85 -45.5zM157 439q56 0 56 100t-56 100t-56 -100t56 -100z" />
    <glyph glyph-name="one.sups" horiz-adv-x="214" 
d="M99 397v188l-36 -34l-35 34l104 99h20v-287h-53z" />
    <glyph glyph-name="two.sups" horiz-adv-x="280" 
d="M139 446h101v-49h-194v16l106 140q23 31 23 53q0 35 -36 35q-27 0 -45 -37l-43 20q23 66 90 66q40 0 64.5 -24t24.5 -59q0 -39 -32 -84z" />
    <glyph glyph-name="three.sups" horiz-adv-x="285" 
d="M136 387q-60 0 -93 36l30 37q21 -24 59 -24q24 0 38 12t14 33q0 41 -54 41h-31v46h27q45 0 45 37q0 16 -11.5 25.5t-26.5 9.5q-28 0 -47 -17l-33 35q35 32 86 32q34 0 60 -21.5t26 -55.5q0 -46 -39 -65q22 -5 37.5 -25.5t15.5 -45.5q0 -41 -28.5 -65.5t-74.5 -24.5z" />
    <glyph glyph-name="four.sups" horiz-adv-x="302" 
d="M167 397v50h-136v17l170 220h17v-192h35v-45h-35v-50h-51zM109 492h59v77z" />
    <glyph glyph-name="five.sups" horiz-adv-x="285" 
d="M137 387q-58 0 -92 38l36 35q20 -23 54 -23q23 0 36 13.5t13 35.5q0 24 -17.5 36.5t-45.5 12.5q-22 0 -49 -8l-6 7l17 146h141v-51h-96l-7 -54q3 0 10 0.5t11 0.5q41 0 69 -23.5t28 -67.5q0 -45 -28.5 -71.5t-73.5 -26.5z" />
    <glyph glyph-name="six.sups" horiz-adv-x="292" 
d="M159 577q38 0 63 -24.5t25 -67.5q0 -42 -27 -69.5t-70 -27.5q-51 0 -77.5 34t-26.5 86v11q0 75 41 123t118 48l8 -50q-87 5 -108 -82q22 19 54 19zM149 437q22 0 33.5 12.5t11.5 32.5q0 46 -46 46q-20 0 -33 -12.5t-13 -33.5q0 -19 12.5 -32t34.5 -13z" />
    <glyph glyph-name="seven.sups" horiz-adv-x="273" 
d="M60 397l96 232h-110v51h182v-11l-112 -272h-56z" />
    <glyph glyph-name="eight.sups" horiz-adv-x="295" 
d="M148 387q-45 0 -74 23.5t-29 67.5q0 49 45 71q-31 25 -31 63q0 36 26 57t64 21q37 0 62 -20.5t25 -55.5q0 -43 -33 -63q47 -23 47 -73q0 -45 -28.5 -68t-73.5 -23zM149 572q14 0 23.5 10t9.5 24q0 16 -9.5 26.5t-23.5 10.5q-16 0 -26 -10.5t-10 -26.5q0 -14 10 -24
t26 -10zM148 435q21 0 34 12.5t13 32.5t-13.5 33.5t-34.5 13.5t-34.5 -13.5t-13.5 -33.5q0 -19 14 -32t35 -13z" />
    <glyph glyph-name="nine.sups" horiz-adv-x="291" 
d="M143 690q51 0 77 -34t26 -86v-11q0 -75 -41 -123t-117 -48l-9 50q89 -3 109 82q-22 -19 -55 -19q-38 0 -63 24.5t-25 67.5q0 42 27.5 69.5t70.5 27.5zM145 550q20 0 32.5 12.5t12.5 33.5q0 19 -12.5 32t-34.5 13q-21 0 -32.5 -12.5t-11.5 -32.5q0 -46 46 -46z" />
    <glyph glyph-name="colon.case" horiz-adv-x="256" 
d="M128 416q-24 0 -41 15t-17 42t17 42t41 15t41 -15t17 -42t-17 -42t-41 -15zM128 109q-24 0 -41 14.5t-17 42.5t17 42.5t41 14.5t41 -14.5t17 -42.5t-17 -42.5t-41 -14.5z" />
    <glyph glyph-name="parenleft.case" horiz-adv-x="332" 
d="M240 -128q-71 84 -113.5 211.5t-42.5 266.5q0 140 42.5 267t113.5 211l52 -47q-60 -74 -94.5 -188.5t-34.5 -242.5t34.5 -242.5t94.5 -188.5z" />
    <glyph glyph-name="parenright.case" horiz-adv-x="332" 
d="M93 828q71 -84 113 -211t42 -267t-42 -267t-113 -211l-52 47q60 74 94.5 188.5t34.5 242.5t-34.5 242.5t-94.5 188.5z" />
    <glyph glyph-name="braceleft.case" horiz-adv-x="331" 
d="M293 -126q-81 -4 -117.5 28.5t-36.5 107.5v212q0 48 -17 70t-64 22v72q47 -1 64 21.5t17 70.5v212q0 75 36.5 107.5t117.5 28.5v-71q-46 1 -62 -13.5t-16 -56.5v-218q0 -90 -69 -117q69 -27 69 -117v-218q0 -42 16 -56.5t62 -13.5v-71z" />
    <glyph glyph-name="braceright.case" horiz-adv-x="331" 
d="M39 -126v71q46 -1 61.5 13.5t15.5 56.5v218q0 90 70 117q-70 27 -70 117v218q0 42 -15.5 56.5t-61.5 13.5v71q81 4 117.5 -28.5t36.5 -107.5v-212q0 -48 17 -70.5t64 -21.5v-72q-47 0 -64 -22t-17 -70v-212q0 -75 -36.5 -107.5t-117.5 -28.5z" />
    <glyph glyph-name="bracketleft.case" horiz-adv-x="297" 
d="M93 -123v946h163v-70h-86v-806h86v-70h-163z" />
    <glyph glyph-name="bracketright.case" horiz-adv-x="297" 
d="M204 -123h-163v70h86v806h-86v70h163v-946z" />
    <glyph glyph-name="hyphen.case" horiz-adv-x="400" 
d="M67 314v73h265v-73h-265z" />
    <glyph glyph-name="endash.case" horiz-adv-x="537" 
d="M67 318v67h403v-67h-403z" />
    <glyph glyph-name="emdash.case" horiz-adv-x="701" 
d="M67 318v67h567v-67h-567z" />
    <glyph glyph-name="guillemotleft.case" horiz-adv-x="427" 
d="M158 154l-123 196l121 191l62 -34l-89 -157l91 -162zM314 154l-122 196l121 191l61 -34l-88 -157l90 -162z" />
    <glyph glyph-name="guillemotright.case" horiz-adv-x="427" 
d="M113 154l-62 34l91 162l-89 157l62 34l121 -191zM269 154l-61 34l90 162l-89 157l62 34l121 -191z" />
    <glyph glyph-name="guilsinglleft.case" horiz-adv-x="271" 
d="M158 154l-123 196l121 191l62 -34l-89 -157l91 -162z" />
    <glyph glyph-name="guilsinglright.case" horiz-adv-x="271" 
d="M113 154l-62 34l91 162l-89 157l62 34l121 -191z" />
    <glyph glyph-name="cent.tf" horiz-adv-x="548" 
d="M455 147q-50 -64 -131 -74v-84h-61v84q-79 9 -126.5 66t-47.5 138q0 84 48 139t126 65v81h61v-81q76 -9 124 -65l-48 -51q-39 45 -102 45q-53 0 -89.5 -35t-36.5 -98q0 -58 34 -95.5t92 -37.5q67 0 107 51z" />
    <glyph glyph-name="dollar.tf" horiz-adv-x="548" 
d="M243 -97v89q-113 12 -198 82l48 65q83 -69 194 -69q58 0 94 28t36 74q0 25 -11.5 44.5t-38.5 36.5t-46 26t-59 25q-45 19 -73.5 33.5t-60 37.5t-46.5 53t-15 67q0 74 48.5 120t127.5 55v96h79v-97q82 -9 157 -61l-40 -71q-74 54 -162 54q-49 0 -84.5 -21.5t-35.5 -68.5
q0 -17 9 -32.5t20 -26.5t34.5 -23.5t39 -19l46.5 -19.5q47 -19 76 -34t61.5 -39.5t48 -57t15.5 -73.5q0 -76 -51 -126.5t-134 -58.5v-88h-79z" />
    <glyph glyph-name="Euro.tf" horiz-adv-x="548" 
d="M510 93l26 -75q-61 -29 -130 -29q-118 0 -195.5 68t-98.5 183h-78v65h70v20q0 15 2 41h-72v64h82q27 110 105 175.5t187 65.5q60 0 119 -25l-27 -74q-40 17 -88 17q-72 0 -125 -43t-76 -116h209l-22 -64h-200q-2 -26 -2 -40t1 -21h180l-23 -65h-148q19 -78 72 -123.5
t132 -45.5q56 0 100 22z" />
    <glyph glyph-name="florin.tf" horiz-adv-x="548" 
d="M423 595q-36 0 -59 -26.5t-27 -75.5l-9 -93h127l-7 -74h-128l-32 -322q-9 -85 -52 -130t-113 -45q-62 0 -99 34l34 63q24 -20 60 -20q35 0 58 26.5t28 75.5l32 318l-117 2l7 72h117l10 97q8 84 51.5 129.5t112.5 45.5q64 0 101 -34l-35 -63q-26 20 -60 20z" />
    <glyph glyph-name="uni20BD.tf" horiz-adv-x="548" 
d="M284 266h-83v-67h202v-68h-202v-131h-91v131h-85v68h85v67h-85v73h85v322h185q103 0 161.5 -59.5t58.5 -140.5q0 -80 -59.5 -137.5t-171.5 -57.5zM201 581v-242h79q77 0 110.5 35.5t33.5 87.5q0 49 -37 84t-95 35h-91z" />
    <glyph glyph-name="sterling.tf" horiz-adv-x="548" 
d="M199 81h325v-81h-439l-18 45q60 54 93.5 114.5t33.5 114.5q0 12 -1 18h-101v68h78q-4 8 -17.5 31t-19.5 35t-12 34t-6 44q0 73 56 120.5t145 47.5q108 0 188 -78l-49 -57q-54 54 -129 54q-54 0 -87.5 -24.5t-33.5 -65.5q0 -23 8.5 -45t25.5 -50.5t24 -45.5h187v-68h-170
q1 -6 1 -18q0 -101 -82 -193z" />
    <glyph glyph-name="yen.tf" horiz-adv-x="548" 
d="M228 0v173h-155v65h155v57h-155v65h125l-181 301h101l155 -275l159 275h101l-183 -301h126v-65h-157v-57h157v-65h-157v-173h-91z" />
    <glyph glyph-name="uni0308.case" 
d="M-296 774q-24 0 -39 15.5t-15 36.5q0 22 14.5 38.5t39.5 16.5q24 0 39 -16t15 -37q0 -22 -14.5 -38t-39.5 -16zM-103 774q-24 0 -39 16t-15 37t15 37.5t39 16.5q25 0 39.5 -16.5t14.5 -37.5t-15 -37t-39 -16z" />
    <glyph glyph-name="uni0307.case" 
d="M-112 768q-26 0 -41 16.5t-15 39.5t15 40t41 17q27 0 42.5 -17t15.5 -41q0 -23 -15.5 -39t-42.5 -16z" />
    <glyph glyph-name="gravecomb.case" 
d="M-76 754l-152 101l54 62l138 -118z" />
    <glyph glyph-name="acutecomb.case" 
d="M-197 754l-40 45l138 118l53 -61z" />
    <glyph glyph-name="uni030B.case" 
d="M-305 743l-50 33l97 146l66 -43zM-143 743l-50 34l101 145l65 -45z" />
    <glyph glyph-name="uni0302.case" 
d="M-290 744l-35 44l135 106h17l134 -107l-33 -43l-109 72z" />
    <glyph glyph-name="uni030C.case" 
d="M-192 748l-133 107l33 42l108 -72l110 72l35 -43l-135 -106h-18z" />
    <glyph glyph-name="uni0306.case" 
d="M-183 747q-51 0 -88 29t-49 83l58 17q7 -28 29.5 -44.5t49.5 -16.5t49.5 16.5t29.5 44.5l58 -17q-12 -54 -49.5 -83t-87.5 -29z" />
    <glyph glyph-name="uni030A.case" 
d="M-145 725q-46 0 -79.5 27.5t-33.5 75.5q0 49 32.5 76.5t78.5 27.5t78.5 -27.5t32.5 -76.5q0 -48 -32 -75.5t-77 -27.5zM-146 775q22 0 37.5 14t15.5 39q0 26 -16 40t-38 14t-37.5 -14t-15.5 -40q0 -25 16 -39t38 -14z" />
    <glyph glyph-name="tildecomb.case" 
d="M-281 769l-54 31q32 79 87 79q30 0 70 -20q30 -15 42 -15q22 0 38 34l54 -30q-32 -77 -86 -77q-28 0 -61 17q-36 17 -49 17q-25 0 -41 -36z" />
    <glyph glyph-name="uni0304.case" 
d="M-332 811v70h273v-70h-273z" />
    <glyph glyph-name="uni0312.case" 
d="M-160 771q9 109 54 182h60q-28 -88 -28 -182h-86z" />
    <glyph glyph-name="uni0326.case" 
d="M-160 -283q29 91 29 182h85q-9 -110 -53 -182h-61z" />
    <glyph glyph-name="uni0327.case" 
d="M-150 -220q-64 0 -107 28l25 51q33 -22 74 -22q51 0 51 34q0 46 -100 44l36 85h66l-23 -52q40 -4 66 -25t26 -57q0 -41 -32.5 -63.5t-81.5 -22.5z" />
    <glyph glyph-name="uni0328.case" 
d="M-115 -221q-48 0 -74.5 23.5t-26.5 63.5q0 75 108 162l59 -28q-83 -64 -83 -115q0 -33 38 -33q21 0 46 16l21 -64q-37 -25 -88 -25z" />
    <glyph glyph-name="uni0308.narrow" 
d="M-276 520q-22 0 -36.5 14.5t-14.5 37.5t14.5 38t36.5 15t36.5 -15t14.5 -38q0 -22 -14.5 -37t-36.5 -15zM-123 520q-22 0 -36 14.5t-14 37.5t14 38t36 15t36.5 -15t14.5 -38t-14.5 -37.5t-36.5 -14.5z" />
    <glyph glyph-name="uni0304.narrow" 
d="M-298 520v68h208v-68h-208z" />
    <glyph glyph-name="brevecombcy" 
d="M-153 498q-87 0 -127 75l46 34q30 -49 81 -49q49 0 81 49l46 -34q-40 -75 -127 -75z" />
    <glyph glyph-name="brevecombcy.case" 
d="M-153 744q-109 0 -157 88l54 38q37 -57 103 -57q67 0 104 57l52 -38q-45 -88 -156 -88z" />
    </font>
</defs>
</svg>
